<?xml version="1.0" encoding="utf-8" standalone="no"?>
<!DOCTYPE svg PUBLIC "-//W3C//DTD SVG 1.1//EN"
  "http://www.w3.org/Graphics/SVG/1.1/DTD/svg11.dtd">
<svg xmlns:xlink="http://www.w3.org/1999/xlink" width="422.6225pt" height="349.011pt" viewBox="0 0 422.6225 349.011" xmlns="http://www.w3.org/2000/svg" version="1.1">
 <metadata>
  <rdf:RDF xmlns:dc="http://purl.org/dc/elements/1.1/" xmlns:cc="http://creativecommons.org/ns#" xmlns:rdf="http://www.w3.org/1999/02/22-rdf-syntax-ns#">
   <cc:Work>
    <dc:type rdf:resource="http://purl.org/dc/dcmitype/StillImage"/>
    <dc:date>2022-01-04T17:08:15.628985</dc:date>
    <dc:format>image/svg+xml</dc:format>
    <dc:creator>
     <cc:Agent>
      <dc:title>Matplotlib v3.5.0, https://matplotlib.org/</dc:title>
     </cc:Agent>
    </dc:creator>
   </cc:Work>
  </rdf:RDF>
 </metadata>
 <defs>
  <style type="text/css">*{stroke-linejoin: round; stroke-linecap: butt}</style>
 </defs>
 <g id="figure_1">
  <g id="patch_1">
   <path d="M 0 349.011 
L 422.6225 349.011 
L 422.6225 0 
L 0 0 
z
" style="fill: #ffffff"/>
  </g>
  <g id="axes_1">
   <g id="patch_2">
    <path d="M 41.3625 309.126625 
L 340.4836 309.126625 
L 340.4836 7.2 
L 41.3625 7.2 
z
" style="fill: #ffffff"/>
   </g>
   <g id="matplotlib.axis_1">
    <g id="xtick_1">
     <g id="line2d_1">
      <path d="M 84.097796 309.126625 
L 84.097796 7.2 
" clip-path="url(#p86e6526052)" style="fill: none; stroke: #cccccc; stroke-width: 0.8; stroke-linecap: round"/>
     </g>
     <g id="text_1">
      <!-- $\mathdefault{10^{1}}$ -->
      <g style="fill: #262626" transform="translate(76.247796 326.439125)scale(0.1 -0.1)">
       <defs>
        <path id="ArialMT-31" d="M 2384 0 
L 1822 0 
L 1822 3584 
Q 1619 3391 1289 3197 
Q 959 3003 697 2906 
L 697 3450 
Q 1169 3672 1522 3987 
Q 1875 4303 2022 4600 
L 2384 4600 
L 2384 0 
z
" transform="scale(0.015625)"/>
        <path id="ArialMT-30" d="M 266 2259 
Q 266 3072 433 3567 
Q 600 4063 929 4331 
Q 1259 4600 1759 4600 
Q 2128 4600 2406 4451 
Q 2684 4303 2865 4023 
Q 3047 3744 3150 3342 
Q 3253 2941 3253 2259 
Q 3253 1453 3087 958 
Q 2922 463 2592 192 
Q 2263 -78 1759 -78 
Q 1097 -78 719 397 
Q 266 969 266 2259 
z
M 844 2259 
Q 844 1131 1108 757 
Q 1372 384 1759 384 
Q 2147 384 2411 759 
Q 2675 1134 2675 2259 
Q 2675 3391 2411 3762 
Q 2147 4134 1753 4134 
Q 1366 4134 1134 3806 
Q 844 3388 844 2259 
z
" transform="scale(0.015625)"/>
       </defs>
       <use xlink:href="#ArialMT-31" transform="translate(0 0.99375)"/>
       <use xlink:href="#ArialMT-30" transform="translate(55.615234 0.99375)"/>
       <use xlink:href="#ArialMT-31" transform="translate(112.972813 70.6875)scale(0.7)"/>
      </g>
     </g>
    </g>
    <g id="xtick_2">
     <g id="line2d_2">
      <path d="M 155.632051 309.126625 
L 155.632051 7.2 
" clip-path="url(#p86e6526052)" style="fill: none; stroke: #cccccc; stroke-width: 0.8; stroke-linecap: round"/>
     </g>
     <g id="text_2">
      <!-- $\mathdefault{10^{3}}$ -->
      <g style="fill: #262626" transform="translate(147.782051 326.439125)scale(0.1 -0.1)">
       <defs>
        <path id="ArialMT-33" d="M 269 1209 
L 831 1284 
Q 928 806 1161 595 
Q 1394 384 1728 384 
Q 2125 384 2398 659 
Q 2672 934 2672 1341 
Q 2672 1728 2419 1979 
Q 2166 2231 1775 2231 
Q 1616 2231 1378 2169 
L 1441 2663 
Q 1497 2656 1531 2656 
Q 1891 2656 2178 2843 
Q 2466 3031 2466 3422 
Q 2466 3731 2256 3934 
Q 2047 4138 1716 4138 
Q 1388 4138 1169 3931 
Q 950 3725 888 3313 
L 325 3413 
Q 428 3978 793 4289 
Q 1159 4600 1703 4600 
Q 2078 4600 2393 4439 
Q 2709 4278 2876 4000 
Q 3044 3722 3044 3409 
Q 3044 3113 2884 2869 
Q 2725 2625 2413 2481 
Q 2819 2388 3044 2092 
Q 3269 1797 3269 1353 
Q 3269 753 2831 336 
Q 2394 -81 1725 -81 
Q 1122 -81 723 278 
Q 325 638 269 1209 
z
" transform="scale(0.015625)"/>
       </defs>
       <use xlink:href="#ArialMT-31" transform="translate(0 0.99375)"/>
       <use xlink:href="#ArialMT-30" transform="translate(55.615234 0.99375)"/>
       <use xlink:href="#ArialMT-33" transform="translate(112.972813 70.6875)scale(0.7)"/>
      </g>
     </g>
    </g>
    <g id="xtick_3">
     <g id="line2d_3">
      <path d="M 227.166306 309.126625 
L 227.166306 7.2 
" clip-path="url(#p86e6526052)" style="fill: none; stroke: #cccccc; stroke-width: 0.8; stroke-linecap: round"/>
     </g>
     <g id="text_3">
      <!-- $\mathdefault{10^{5}}$ -->
      <g style="fill: #262626" transform="translate(219.316306 326.339125)scale(0.1 -0.1)">
       <defs>
        <path id="ArialMT-35" d="M 266 1200 
L 856 1250 
Q 922 819 1161 601 
Q 1400 384 1738 384 
Q 2144 384 2425 690 
Q 2706 997 2706 1503 
Q 2706 1984 2436 2262 
Q 2166 2541 1728 2541 
Q 1456 2541 1237 2417 
Q 1019 2294 894 2097 
L 366 2166 
L 809 4519 
L 3088 4519 
L 3088 3981 
L 1259 3981 
L 1013 2750 
Q 1425 3038 1878 3038 
Q 2478 3038 2890 2622 
Q 3303 2206 3303 1553 
Q 3303 931 2941 478 
Q 2500 -78 1738 -78 
Q 1113 -78 717 272 
Q 322 622 266 1200 
z
" transform="scale(0.015625)"/>
       </defs>
       <use xlink:href="#ArialMT-31" transform="translate(0 0.879688)"/>
       <use xlink:href="#ArialMT-30" transform="translate(55.615234 0.879688)"/>
       <use xlink:href="#ArialMT-35" transform="translate(112.972813 70.573438)scale(0.7)"/>
      </g>
     </g>
    </g>
    <g id="xtick_4">
     <g id="line2d_4">
      <path d="M 298.700561 309.126625 
L 298.700561 7.2 
" clip-path="url(#p86e6526052)" style="fill: none; stroke: #cccccc; stroke-width: 0.8; stroke-linecap: round"/>
     </g>
     <g id="text_4">
      <!-- $\mathdefault{10^{7}}$ -->
      <g style="fill: #262626" transform="translate(290.850561 326.339125)scale(0.1 -0.1)">
       <defs>
        <path id="ArialMT-37" d="M 303 3981 
L 303 4522 
L 3269 4522 
L 3269 4084 
Q 2831 3619 2401 2847 
Q 1972 2075 1738 1259 
Q 1569 684 1522 0 
L 944 0 
Q 953 541 1156 1306 
Q 1359 2072 1739 2783 
Q 2119 3494 2547 3981 
L 303 3981 
z
" transform="scale(0.015625)"/>
       </defs>
       <use xlink:href="#ArialMT-31" transform="translate(0 0.846875)"/>
       <use xlink:href="#ArialMT-30" transform="translate(55.615234 0.846875)"/>
       <use xlink:href="#ArialMT-37" transform="translate(112.972813 70.540625)scale(0.7)"/>
      </g>
     </g>
    </g>
    <g id="text_5">
     <!-- Ditag Length (bp) -->
     <g style="fill: #262626" transform="translate(152.291019 339.706312)scale(0.1 -0.1)">
      <defs>
       <path id="ArialMT-44" d="M 494 0 
L 494 4581 
L 2072 4581 
Q 2606 4581 2888 4516 
Q 3281 4425 3559 4188 
Q 3922 3881 4101 3404 
Q 4281 2928 4281 2316 
Q 4281 1794 4159 1391 
Q 4038 988 3847 723 
Q 3656 459 3429 307 
Q 3203 156 2883 78 
Q 2563 0 2147 0 
L 494 0 
z
M 1100 541 
L 2078 541 
Q 2531 541 2789 625 
Q 3047 709 3200 863 
Q 3416 1078 3536 1442 
Q 3656 1806 3656 2325 
Q 3656 3044 3420 3430 
Q 3184 3816 2847 3947 
Q 2603 4041 2063 4041 
L 1100 4041 
L 1100 541 
z
" transform="scale(0.015625)"/>
       <path id="ArialMT-69" d="M 425 3934 
L 425 4581 
L 988 4581 
L 988 3934 
L 425 3934 
z
M 425 0 
L 425 3319 
L 988 3319 
L 988 0 
L 425 0 
z
" transform="scale(0.015625)"/>
       <path id="ArialMT-74" d="M 1650 503 
L 1731 6 
Q 1494 -44 1306 -44 
Q 1000 -44 831 53 
Q 663 150 594 308 
Q 525 466 525 972 
L 525 2881 
L 113 2881 
L 113 3319 
L 525 3319 
L 525 4141 
L 1084 4478 
L 1084 3319 
L 1650 3319 
L 1650 2881 
L 1084 2881 
L 1084 941 
Q 1084 700 1114 631 
Q 1144 563 1211 522 
Q 1278 481 1403 481 
Q 1497 481 1650 503 
z
" transform="scale(0.015625)"/>
       <path id="ArialMT-61" d="M 2588 409 
Q 2275 144 1986 34 
Q 1697 -75 1366 -75 
Q 819 -75 525 192 
Q 231 459 231 875 
Q 231 1119 342 1320 
Q 453 1522 633 1644 
Q 813 1766 1038 1828 
Q 1203 1872 1538 1913 
Q 2219 1994 2541 2106 
Q 2544 2222 2544 2253 
Q 2544 2597 2384 2738 
Q 2169 2928 1744 2928 
Q 1347 2928 1158 2789 
Q 969 2650 878 2297 
L 328 2372 
Q 403 2725 575 2942 
Q 747 3159 1072 3276 
Q 1397 3394 1825 3394 
Q 2250 3394 2515 3294 
Q 2781 3194 2906 3042 
Q 3031 2891 3081 2659 
Q 3109 2516 3109 2141 
L 3109 1391 
Q 3109 606 3145 398 
Q 3181 191 3288 0 
L 2700 0 
Q 2613 175 2588 409 
z
M 2541 1666 
Q 2234 1541 1622 1453 
Q 1275 1403 1131 1340 
Q 988 1278 909 1158 
Q 831 1038 831 891 
Q 831 666 1001 516 
Q 1172 366 1500 366 
Q 1825 366 2078 508 
Q 2331 650 2450 897 
Q 2541 1088 2541 1459 
L 2541 1666 
z
" transform="scale(0.015625)"/>
       <path id="ArialMT-67" d="M 319 -275 
L 866 -356 
Q 900 -609 1056 -725 
Q 1266 -881 1628 -881 
Q 2019 -881 2231 -725 
Q 2444 -569 2519 -288 
Q 2563 -116 2559 434 
Q 2191 0 1641 0 
Q 956 0 581 494 
Q 206 988 206 1678 
Q 206 2153 378 2554 
Q 550 2956 876 3175 
Q 1203 3394 1644 3394 
Q 2231 3394 2613 2919 
L 2613 3319 
L 3131 3319 
L 3131 450 
Q 3131 -325 2973 -648 
Q 2816 -972 2473 -1159 
Q 2131 -1347 1631 -1347 
Q 1038 -1347 672 -1080 
Q 306 -813 319 -275 
z
M 784 1719 
Q 784 1066 1043 766 
Q 1303 466 1694 466 
Q 2081 466 2343 764 
Q 2606 1063 2606 1700 
Q 2606 2309 2336 2618 
Q 2066 2928 1684 2928 
Q 1309 2928 1046 2623 
Q 784 2319 784 1719 
z
" transform="scale(0.015625)"/>
       <path id="ArialMT-20" transform="scale(0.015625)"/>
       <path id="ArialMT-4c" d="M 469 0 
L 469 4581 
L 1075 4581 
L 1075 541 
L 3331 541 
L 3331 0 
L 469 0 
z
" transform="scale(0.015625)"/>
       <path id="ArialMT-65" d="M 2694 1069 
L 3275 997 
Q 3138 488 2766 206 
Q 2394 -75 1816 -75 
Q 1088 -75 661 373 
Q 234 822 234 1631 
Q 234 2469 665 2931 
Q 1097 3394 1784 3394 
Q 2450 3394 2872 2941 
Q 3294 2488 3294 1666 
Q 3294 1616 3291 1516 
L 816 1516 
Q 847 969 1125 678 
Q 1403 388 1819 388 
Q 2128 388 2347 550 
Q 2566 713 2694 1069 
z
M 847 1978 
L 2700 1978 
Q 2663 2397 2488 2606 
Q 2219 2931 1791 2931 
Q 1403 2931 1139 2672 
Q 875 2413 847 1978 
z
" transform="scale(0.015625)"/>
       <path id="ArialMT-6e" d="M 422 0 
L 422 3319 
L 928 3319 
L 928 2847 
Q 1294 3394 1984 3394 
Q 2284 3394 2536 3286 
Q 2788 3178 2913 3003 
Q 3038 2828 3088 2588 
Q 3119 2431 3119 2041 
L 3119 0 
L 2556 0 
L 2556 2019 
Q 2556 2363 2490 2533 
Q 2425 2703 2258 2804 
Q 2091 2906 1866 2906 
Q 1506 2906 1245 2678 
Q 984 2450 984 1813 
L 984 0 
L 422 0 
z
" transform="scale(0.015625)"/>
       <path id="ArialMT-68" d="M 422 0 
L 422 4581 
L 984 4581 
L 984 2938 
Q 1378 3394 1978 3394 
Q 2347 3394 2619 3248 
Q 2891 3103 3008 2847 
Q 3125 2591 3125 2103 
L 3125 0 
L 2563 0 
L 2563 2103 
Q 2563 2525 2380 2717 
Q 2197 2909 1863 2909 
Q 1613 2909 1392 2779 
Q 1172 2650 1078 2428 
Q 984 2206 984 1816 
L 984 0 
L 422 0 
z
" transform="scale(0.015625)"/>
       <path id="ArialMT-28" d="M 1497 -1347 
Q 1031 -759 709 28 
Q 388 816 388 1659 
Q 388 2403 628 3084 
Q 909 3875 1497 4659 
L 1900 4659 
Q 1522 4009 1400 3731 
Q 1209 3300 1100 2831 
Q 966 2247 966 1656 
Q 966 153 1900 -1347 
L 1497 -1347 
z
" transform="scale(0.015625)"/>
       <path id="ArialMT-62" d="M 941 0 
L 419 0 
L 419 4581 
L 981 4581 
L 981 2947 
Q 1338 3394 1891 3394 
Q 2197 3394 2470 3270 
Q 2744 3147 2920 2923 
Q 3097 2700 3197 2384 
Q 3297 2069 3297 1709 
Q 3297 856 2875 390 
Q 2453 -75 1863 -75 
Q 1275 -75 941 416 
L 941 0 
z
M 934 1684 
Q 934 1088 1097 822 
Q 1363 388 1816 388 
Q 2184 388 2453 708 
Q 2722 1028 2722 1663 
Q 2722 2313 2464 2622 
Q 2206 2931 1841 2931 
Q 1472 2931 1203 2611 
Q 934 2291 934 1684 
z
" transform="scale(0.015625)"/>
       <path id="ArialMT-70" d="M 422 -1272 
L 422 3319 
L 934 3319 
L 934 2888 
Q 1116 3141 1344 3267 
Q 1572 3394 1897 3394 
Q 2322 3394 2647 3175 
Q 2972 2956 3137 2557 
Q 3303 2159 3303 1684 
Q 3303 1175 3120 767 
Q 2938 359 2589 142 
Q 2241 -75 1856 -75 
Q 1575 -75 1351 44 
Q 1128 163 984 344 
L 984 -1272 
L 422 -1272 
z
M 931 1641 
Q 931 1000 1190 694 
Q 1450 388 1819 388 
Q 2194 388 2461 705 
Q 2728 1022 2728 1688 
Q 2728 2322 2467 2637 
Q 2206 2953 1844 2953 
Q 1484 2953 1207 2617 
Q 931 2281 931 1641 
z
" transform="scale(0.015625)"/>
       <path id="ArialMT-29" d="M 791 -1347 
L 388 -1347 
Q 1322 153 1322 1656 
Q 1322 2244 1188 2822 
Q 1081 3291 891 3722 
Q 769 4003 388 4659 
L 791 4659 
Q 1378 3875 1659 3084 
Q 1900 2403 1900 1659 
Q 1900 816 1576 28 
Q 1253 -759 791 -1347 
z
" transform="scale(0.015625)"/>
      </defs>
      <use xlink:href="#ArialMT-44"/>
      <use xlink:href="#ArialMT-69" x="72.216797"/>
      <use xlink:href="#ArialMT-74" x="94.433594"/>
      <use xlink:href="#ArialMT-61" x="122.216797"/>
      <use xlink:href="#ArialMT-67" x="177.832031"/>
      <use xlink:href="#ArialMT-20" x="233.447266"/>
      <use xlink:href="#ArialMT-4c" x="261.230469"/>
      <use xlink:href="#ArialMT-65" x="316.845703"/>
      <use xlink:href="#ArialMT-6e" x="372.460938"/>
      <use xlink:href="#ArialMT-67" x="428.076172"/>
      <use xlink:href="#ArialMT-74" x="483.691406"/>
      <use xlink:href="#ArialMT-68" x="511.474609"/>
      <use xlink:href="#ArialMT-20" x="567.089844"/>
      <use xlink:href="#ArialMT-28" x="594.873047"/>
      <use xlink:href="#ArialMT-62" x="628.173828"/>
      <use xlink:href="#ArialMT-70" x="683.789062"/>
      <use xlink:href="#ArialMT-29" x="739.404297"/>
     </g>
    </g>
   </g>
   <g id="matplotlib.axis_2">
    <g id="ytick_1">
     <g id="line2d_5">
      <path d="M 41.3625 309.126625 
L 340.4836 309.126625 
" clip-path="url(#p86e6526052)" style="fill: none; stroke: #cccccc; stroke-width: 0.8; stroke-linecap: round"/>
     </g>
     <g id="text_6">
      <!-- 0.0 -->
      <g style="fill: #262626" transform="translate(20.4625 312.705531)scale(0.1 -0.1)">
       <defs>
        <path id="ArialMT-2e" d="M 581 0 
L 581 641 
L 1222 641 
L 1222 0 
L 581 0 
z
" transform="scale(0.015625)"/>
       </defs>
       <use xlink:href="#ArialMT-30"/>
       <use xlink:href="#ArialMT-2e" x="55.615234"/>
       <use xlink:href="#ArialMT-30" x="83.398438"/>
      </g>
     </g>
    </g>
    <g id="ytick_2">
     <g id="line2d_6">
      <path d="M 41.3625 266.662595 
L 340.4836 266.662595 
" clip-path="url(#p86e6526052)" style="fill: none; stroke: #cccccc; stroke-width: 0.8; stroke-linecap: round"/>
     </g>
     <g id="text_7">
      <!-- 0.1 -->
      <g style="fill: #262626" transform="translate(20.4625 270.241502)scale(0.1 -0.1)">
       <use xlink:href="#ArialMT-30"/>
       <use xlink:href="#ArialMT-2e" x="55.615234"/>
       <use xlink:href="#ArialMT-31" x="83.398438"/>
      </g>
     </g>
    </g>
    <g id="ytick_3">
     <g id="line2d_7">
      <path d="M 41.3625 224.198566 
L 340.4836 224.198566 
" clip-path="url(#p86e6526052)" style="fill: none; stroke: #cccccc; stroke-width: 0.8; stroke-linecap: round"/>
     </g>
     <g id="text_8">
      <!-- 0.2 -->
      <g style="fill: #262626" transform="translate(20.4625 227.777472)scale(0.1 -0.1)">
       <defs>
        <path id="ArialMT-32" d="M 3222 541 
L 3222 0 
L 194 0 
Q 188 203 259 391 
Q 375 700 629 1000 
Q 884 1300 1366 1694 
Q 2113 2306 2375 2664 
Q 2638 3022 2638 3341 
Q 2638 3675 2398 3904 
Q 2159 4134 1775 4134 
Q 1369 4134 1125 3890 
Q 881 3647 878 3216 
L 300 3275 
Q 359 3922 746 4261 
Q 1134 4600 1788 4600 
Q 2447 4600 2831 4234 
Q 3216 3869 3216 3328 
Q 3216 3053 3103 2787 
Q 2991 2522 2730 2228 
Q 2469 1934 1863 1422 
Q 1356 997 1212 845 
Q 1069 694 975 541 
L 3222 541 
z
" transform="scale(0.015625)"/>
       </defs>
       <use xlink:href="#ArialMT-30"/>
       <use xlink:href="#ArialMT-2e" x="55.615234"/>
       <use xlink:href="#ArialMT-32" x="83.398438"/>
      </g>
     </g>
    </g>
    <g id="ytick_4">
     <g id="line2d_8">
      <path d="M 41.3625 181.734536 
L 340.4836 181.734536 
" clip-path="url(#p86e6526052)" style="fill: none; stroke: #cccccc; stroke-width: 0.8; stroke-linecap: round"/>
     </g>
     <g id="text_9">
      <!-- 0.3 -->
      <g style="fill: #262626" transform="translate(20.4625 185.313443)scale(0.1 -0.1)">
       <use xlink:href="#ArialMT-30"/>
       <use xlink:href="#ArialMT-2e" x="55.615234"/>
       <use xlink:href="#ArialMT-33" x="83.398438"/>
      </g>
     </g>
    </g>
    <g id="ytick_5">
     <g id="line2d_9">
      <path d="M 41.3625 139.270507 
L 340.4836 139.270507 
" clip-path="url(#p86e6526052)" style="fill: none; stroke: #cccccc; stroke-width: 0.8; stroke-linecap: round"/>
     </g>
     <g id="text_10">
      <!-- 0.4 -->
      <g style="fill: #262626" transform="translate(20.4625 142.849413)scale(0.1 -0.1)">
       <defs>
        <path id="ArialMT-34" d="M 2069 0 
L 2069 1097 
L 81 1097 
L 81 1613 
L 2172 4581 
L 2631 4581 
L 2631 1613 
L 3250 1613 
L 3250 1097 
L 2631 1097 
L 2631 0 
L 2069 0 
z
M 2069 1613 
L 2069 3678 
L 634 1613 
L 2069 1613 
z
" transform="scale(0.015625)"/>
       </defs>
       <use xlink:href="#ArialMT-30"/>
       <use xlink:href="#ArialMT-2e" x="55.615234"/>
       <use xlink:href="#ArialMT-34" x="83.398438"/>
      </g>
     </g>
    </g>
    <g id="ytick_6">
     <g id="line2d_10">
      <path d="M 41.3625 96.806477 
L 340.4836 96.806477 
" clip-path="url(#p86e6526052)" style="fill: none; stroke: #cccccc; stroke-width: 0.8; stroke-linecap: round"/>
     </g>
     <g id="text_11">
      <!-- 0.5 -->
      <g style="fill: #262626" transform="translate(20.4625 100.385383)scale(0.1 -0.1)">
       <use xlink:href="#ArialMT-30"/>
       <use xlink:href="#ArialMT-2e" x="55.615234"/>
       <use xlink:href="#ArialMT-35" x="83.398438"/>
      </g>
     </g>
    </g>
    <g id="ytick_7">
     <g id="line2d_11">
      <path d="M 41.3625 54.342448 
L 340.4836 54.342448 
" clip-path="url(#p86e6526052)" style="fill: none; stroke: #cccccc; stroke-width: 0.8; stroke-linecap: round"/>
     </g>
     <g id="text_12">
      <!-- 0.6 -->
      <g style="fill: #262626" transform="translate(20.4625 57.921354)scale(0.1 -0.1)">
       <defs>
        <path id="ArialMT-36" d="M 3184 3459 
L 2625 3416 
Q 2550 3747 2413 3897 
Q 2184 4138 1850 4138 
Q 1581 4138 1378 3988 
Q 1113 3794 959 3422 
Q 806 3050 800 2363 
Q 1003 2672 1297 2822 
Q 1591 2972 1913 2972 
Q 2475 2972 2870 2558 
Q 3266 2144 3266 1488 
Q 3266 1056 3080 686 
Q 2894 316 2569 119 
Q 2244 -78 1831 -78 
Q 1128 -78 684 439 
Q 241 956 241 2144 
Q 241 3472 731 4075 
Q 1159 4600 1884 4600 
Q 2425 4600 2770 4297 
Q 3116 3994 3184 3459 
z
M 888 1484 
Q 888 1194 1011 928 
Q 1134 663 1356 523 
Q 1578 384 1822 384 
Q 2178 384 2434 671 
Q 2691 959 2691 1453 
Q 2691 1928 2437 2201 
Q 2184 2475 1800 2475 
Q 1419 2475 1153 2201 
Q 888 1928 888 1484 
z
" transform="scale(0.015625)"/>
       </defs>
       <use xlink:href="#ArialMT-30"/>
       <use xlink:href="#ArialMT-2e" x="55.615234"/>
       <use xlink:href="#ArialMT-36" x="83.398438"/>
      </g>
     </g>
    </g>
    <g id="ytick_8">
     <g id="line2d_12">
      <path d="M 41.3625 11.878418 
L 340.4836 11.878418 
" clip-path="url(#p86e6526052)" style="fill: none; stroke: #cccccc; stroke-width: 0.8; stroke-linecap: round"/>
     </g>
     <g id="text_13">
      <!-- 0.7 -->
      <g style="fill: #262626" transform="translate(20.4625 15.457324)scale(0.1 -0.1)">
       <use xlink:href="#ArialMT-30"/>
       <use xlink:href="#ArialMT-2e" x="55.615234"/>
       <use xlink:href="#ArialMT-37" x="83.398438"/>
      </g>
     </g>
    </g>
    <g id="text_14">
     <!-- Density -->
     <g style="fill: #262626" transform="translate(14.357813 174.835187)rotate(-90)scale(0.1 -0.1)">
      <defs>
       <path id="ArialMT-73" d="M 197 991 
L 753 1078 
Q 800 744 1014 566 
Q 1228 388 1613 388 
Q 2000 388 2187 545 
Q 2375 703 2375 916 
Q 2375 1106 2209 1216 
Q 2094 1291 1634 1406 
Q 1016 1563 777 1677 
Q 538 1791 414 1992 
Q 291 2194 291 2438 
Q 291 2659 392 2848 
Q 494 3038 669 3163 
Q 800 3259 1026 3326 
Q 1253 3394 1513 3394 
Q 1903 3394 2198 3281 
Q 2494 3169 2634 2976 
Q 2775 2784 2828 2463 
L 2278 2388 
Q 2241 2644 2061 2787 
Q 1881 2931 1553 2931 
Q 1166 2931 1000 2803 
Q 834 2675 834 2503 
Q 834 2394 903 2306 
Q 972 2216 1119 2156 
Q 1203 2125 1616 2013 
Q 2213 1853 2448 1751 
Q 2684 1650 2818 1456 
Q 2953 1263 2953 975 
Q 2953 694 2789 445 
Q 2625 197 2315 61 
Q 2006 -75 1616 -75 
Q 969 -75 630 194 
Q 291 463 197 991 
z
" transform="scale(0.015625)"/>
       <path id="ArialMT-79" d="M 397 -1278 
L 334 -750 
Q 519 -800 656 -800 
Q 844 -800 956 -737 
Q 1069 -675 1141 -563 
Q 1194 -478 1313 -144 
Q 1328 -97 1363 -6 
L 103 3319 
L 709 3319 
L 1400 1397 
Q 1534 1031 1641 628 
Q 1738 1016 1872 1384 
L 2581 3319 
L 3144 3319 
L 1881 -56 
Q 1678 -603 1566 -809 
Q 1416 -1088 1222 -1217 
Q 1028 -1347 759 -1347 
Q 597 -1347 397 -1278 
z
" transform="scale(0.015625)"/>
      </defs>
      <use xlink:href="#ArialMT-44"/>
      <use xlink:href="#ArialMT-65" x="72.216797"/>
      <use xlink:href="#ArialMT-6e" x="127.832031"/>
      <use xlink:href="#ArialMT-73" x="183.447266"/>
      <use xlink:href="#ArialMT-69" x="233.447266"/>
      <use xlink:href="#ArialMT-74" x="255.664062"/>
      <use xlink:href="#ArialMT-79" x="283.447266"/>
     </g>
    </g>
   </g>
   <g id="line2d_13">
    <path d="M 54.958914 309.126491 
L 75.45602 309.105696 
L 76.822493 308.890947 
L 78.188967 307.014122 
L 79.555441 301.667079 
L 80.921915 299.172051 
L 82.288388 303.788034 
L 83.654862 307.197853 
L 85.021336 307.827364 
L 89.120757 307.409521 
L 91.853704 307.060906 
L 100.052547 305.345418 
L 102.785494 304.423879 
L 104.151968 303.921956 
L 105.518442 303.241704 
L 108.251389 301.616762 
L 110.984337 300.436408 
L 119.183179 295.092088 
L 120.549653 293.828718 
L 121.916127 291.958946 
L 123.2826 289.805302 
L 124.649074 286.991738 
L 127.382021 278.225186 
L 128.748495 275.329036 
L 131.481443 271.312954 
L 134.21439 266.959952 
L 138.313811 260.425208 
L 139.680285 259.218964 
L 141.046759 259.001785 
L 143.779706 258.850303 
L 145.14618 258.949483 
L 146.512654 259.975611 
L 147.879127 262.230247 
L 149.245601 265.564569 
L 150.612075 270.038381 
L 154.711496 287.292192 
L 156.07797 292.323755 
L 157.444444 296.738351 
L 158.810917 300.150002 
L 160.177391 302.490522 
L 161.543865 303.889936 
L 162.910338 304.608514 
L 165.643286 305.41571 
L 173.842128 307.200203 
L 175.208602 307.285544 
L 176.575076 307.551463 
L 179.308023 308.413487 
L 180.674497 308.662752 
L 184.773918 308.882735 
L 187.506866 308.94962 
L 192.972761 309.077157 
L 199.805129 309.119555 
L 244.898762 309.126625 
L 326.887186 309.126549 
L 326.887186 309.126549 
" clip-path="url(#p86e6526052)" style="fill: none; stroke: #d62728; stroke-width: 1.5; stroke-linecap: round"/>
   </g>
   <g id="line2d_14">
    <path d="M 56.130908 309.126598 
L 76.451313 309.10633 
L 77.806007 308.874838 
L 79.160701 304.284353 
L 80.515395 294.589026 
L 81.870088 302.339341 
L 83.224782 307.746376 
L 85.934169 307.879192 
L 87.288863 307.390155 
L 88.643557 307.622729 
L 91.352944 307.215975 
L 94.062332 306.637575 
L 96.771719 306.096376 
L 98.126413 305.959696 
L 99.481106 305.636245 
L 100.8358 304.905877 
L 102.190494 303.540257 
L 103.545188 302.350053 
L 104.899881 300.658039 
L 106.254575 297.89388 
L 107.609269 294.858656 
L 108.963962 293.265745 
L 110.318656 293.490174 
L 111.67335 292.165758 
L 113.028044 290.167497 
L 115.737431 286.937718 
L 118.446818 282.406947 
L 119.801512 280.682682 
L 121.156206 277.043662 
L 122.510899 272.645836 
L 123.865593 268.733305 
L 125.220287 260.788972 
L 126.574981 245.990182 
L 127.929674 236.772394 
L 129.284368 231.643443 
L 130.639062 229.217542 
L 131.993755 223.324987 
L 133.348449 216.305159 
L 134.703143 211.518029 
L 136.057837 204.76532 
L 137.41253 199.240443 
L 138.767224 190.286183 
L 140.121918 189.639879 
L 141.476611 189.979609 
L 142.831305 189.624269 
L 144.185999 184.857158 
L 145.540693 182.36005 
L 146.895386 184.150016 
L 148.25008 191.876741 
L 149.604774 200.818201 
L 150.959467 212.722446 
L 153.668855 248.935947 
L 156.378242 277.616857 
L 157.732936 289.037351 
L 159.08763 296.32848 
L 160.442323 300.654375 
L 161.797017 303.457169 
L 163.151711 304.666538 
L 164.506404 305.205307 
L 165.861098 305.423463 
L 168.570486 305.604703 
L 169.925179 305.39673 
L 171.279873 306.028861 
L 172.634567 306.822836 
L 173.98926 307.06577 
L 175.343954 307.130876 
L 176.698648 307.464305 
L 178.053342 308.126484 
L 179.408035 308.505263 
L 180.762729 308.722639 
L 190.245585 309.003967 
L 197.019053 309.106906 
L 274.236595 309.126625 
L 325.714956 309.126598 
L 325.714956 309.126598 
" clip-path="url(#p86e6526052)" style="fill: none; stroke: #2ca02c; stroke-width: 1.5; stroke-linecap: round"/>
   </g>
   <g id="line2d_15">
    <path d="M 56.196616 309.126353 
L 77.860577 309.06232 
L 78.693806 308.619387 
L 80.360265 305.49652 
L 81.193494 305.922992 
L 82.026724 307.655813 
L 82.859953 308.260732 
L 83.693182 307.848139 
L 84.526411 307.823564 
L 85.359641 308.149691 
L 87.026099 307.564701 
L 87.859329 307.775926 
L 88.692558 307.755538 
L 89.525787 307.583781 
L 90.359016 307.580122 
L 92.025475 307.318885 
L 93.691934 307.079118 
L 97.024851 306.38886 
L 98.691309 306.095924 
L 99.524539 305.927048 
L 100.357768 305.621932 
L 101.190997 304.785284 
L 102.024226 303.503462 
L 102.857456 302.464358 
L 103.690685 301.766869 
L 104.523914 300.736694 
L 106.190373 297.131603 
L 107.023602 295.853827 
L 109.52329 293.141706 
L 110.356519 292.402603 
L 111.189749 291.40988 
L 112.856207 288.744884 
L 114.522666 285.593561 
L 117.022353 282.280349 
L 117.855583 280.988648 
L 119.522041 278.799505 
L 120.355271 276.721024 
L 124.521417 261.469478 
L 125.354646 256.35317 
L 127.021105 243.186548 
L 127.854334 239.186716 
L 128.687563 236.204693 
L 129.520793 234.249416 
L 130.354022 233.432907 
L 131.187251 231.229536 
L 132.85371 222.155669 
L 134.520168 217.050324 
L 136.186627 207.815676 
L 137.019856 204.591196 
L 137.853086 200.121773 
L 138.686315 194.799945 
L 139.519544 194.441697 
L 140.352773 197.153841 
L 141.186003 198.053817 
L 142.019232 198.68394 
L 143.685691 201.209415 
L 144.51892 204.725475 
L 145.352149 212.356983 
L 146.185378 222.356661 
L 147.018608 233.866044 
L 149.518296 273.307654 
L 150.351525 283.501271 
L 151.184754 291.229246 
L 152.017983 296.65099 
L 152.851213 299.939228 
L 153.684442 301.600812 
L 154.517671 302.472725 
L 155.350901 303.111299 
L 156.18413 303.527019 
L 157.017359 303.50945 
L 159.517047 302.379292 
L 160.350276 302.460988 
L 162.849964 303.68647 
L 165.349652 304.379778 
L 167.84934 304.649585 
L 169.515798 304.934058 
L 170.349028 305.234785 
L 172.015486 306.1903 
L 173.681945 306.790259 
L 174.515174 306.936483 
L 176.181633 306.781231 
L 179.51455 308.383027 
L 181.181008 308.702568 
L 188.680072 308.965069 
L 197.012365 309.126202 
L 222.009243 309.126583 
L 222.009243 309.126583 
" clip-path="url(#p86e6526052)" style="fill: none; stroke: #ff7f0e; stroke-width: 1.5; stroke-linecap: round"/>
   </g>
   <g id="line2d_16">
    <path d="M 56.896379 309.126087 
L 66.920245 309.126609 
L 77.85537 309.118511 
L 78.766631 308.829146 
L 79.677891 305.895737 
L 80.589152 301.620006 
L 81.500412 305.390814 
L 82.411673 308.519193 
L 84.234194 306.216204 
L 85.145454 307.894065 
L 86.056715 307.47457 
L 86.967975 305.928299 
L 87.879236 307.301181 
L 88.790496 306.607114 
L 89.701757 306.182593 
L 90.613017 306.677645 
L 91.524278 305.766554 
L 92.435538 306.155561 
L 93.346799 305.451157 
L 94.258059 305.40576 
L 95.16932 304.968658 
L 96.08058 305.00006 
L 99.725622 303.971476 
L 100.636883 303.171877 
L 101.548143 299.74121 
L 102.459404 295.279029 
L 103.370664 293.639076 
L 104.281925 292.314325 
L 105.193185 287.415169 
L 106.104446 281.186333 
L 107.015706 278.202901 
L 107.926967 276.366143 
L 108.838227 273.941452 
L 110.660748 270.413449 
L 113.394529 260.019567 
L 114.30579 255.567508 
L 115.21705 251.765634 
L 117.039571 245.477136 
L 117.950832 241.525774 
L 118.862092 238.877125 
L 119.773353 237.688649 
L 120.684613 230.696136 
L 121.595874 220.783551 
L 122.507134 212.693525 
L 124.329655 199.475894 
L 125.240916 188.102558 
L 126.152176 166.455294 
L 127.063437 148.160188 
L 127.974697 142.123539 
L 128.885958 133.565827 
L 129.797218 128.199076 
L 130.708479 128.821837 
L 131.619739 117.152812 
L 132.531 98.580891 
L 133.44226 90.4776 
L 134.353521 84.672169 
L 135.264781 74.93325 
L 136.176042 60.20789 
L 137.087302 54.743604 
L 137.998563 42.99038 
L 138.909823 21.577458 
L 139.821084 28.098202 
L 140.732344 32.876047 
L 141.643605 26.482198 
L 142.554865 30.288612 
L 143.466126 28.931068 
L 144.377386 31.128564 
L 145.288647 53.101532 
L 146.199907 82.145688 
L 147.111168 116.936778 
L 148.933689 202.629037 
L 149.844949 237.261058 
L 150.75621 263.637138 
L 151.66747 282.161538 
L 152.578731 293.050642 
L 153.489991 297.489083 
L 154.401252 300.360459 
L 155.312512 302.400206 
L 156.223772 303.022718 
L 157.135033 302.536788 
L 159.868814 301.703272 
L 160.780075 302.041202 
L 163.513856 304.696392 
L 164.425117 305.124206 
L 166.247638 305.528584 
L 169.89268 305.656698 
L 171.715201 306.81783 
L 172.626461 307.036495 
L 173.537722 307.073369 
L 174.448982 307.373022 
L 176.271503 307.113383 
L 177.182764 307.780039 
L 178.094024 308.202007 
L 180.827806 308.835275 
L 182.650327 308.798909 
L 183.561587 308.754648 
L 186.295369 309.01353 
L 191.762932 309.038751 
L 197.230494 309.124407 
L 238.237217 309.126589 
L 238.237217 309.126589 
" clip-path="url(#p86e6526052)" style="fill: none; stroke: #1f77b4; stroke-width: 1.5; stroke-linecap: round"/>
   </g>
   <g id="patch_3">
    <path d="M 41.3625 309.126625 
L 41.3625 7.2 
" style="fill: none; stroke: #cccccc; stroke-width: 0.8; stroke-linejoin: miter; stroke-linecap: square"/>
   </g>
   <g id="patch_4">
    <path d="M 41.3625 309.126625 
L 340.4836 309.126625 
" style="fill: none; stroke: #cccccc; stroke-width: 0.8; stroke-linejoin: miter; stroke-linecap: square"/>
   </g>
  </g>
  <g id="legend_1">
   <g id="text_15">
    <!-- sample -->
    <g style="fill: #262626" transform="translate(369.055312 148.800031)scale(0.1 -0.1)">
     <defs>
      <path id="ArialMT-6d" d="M 422 0 
L 422 3319 
L 925 3319 
L 925 2853 
Q 1081 3097 1340 3245 
Q 1600 3394 1931 3394 
Q 2300 3394 2536 3241 
Q 2772 3088 2869 2813 
Q 3263 3394 3894 3394 
Q 4388 3394 4653 3120 
Q 4919 2847 4919 2278 
L 4919 0 
L 4359 0 
L 4359 2091 
Q 4359 2428 4304 2576 
Q 4250 2725 4106 2815 
Q 3963 2906 3769 2906 
Q 3419 2906 3187 2673 
Q 2956 2441 2956 1928 
L 2956 0 
L 2394 0 
L 2394 2156 
Q 2394 2531 2256 2718 
Q 2119 2906 1806 2906 
Q 1569 2906 1367 2781 
Q 1166 2656 1075 2415 
Q 984 2175 984 1722 
L 984 0 
L 422 0 
z
" transform="scale(0.015625)"/>
      <path id="ArialMT-6c" d="M 409 0 
L 409 4581 
L 972 4581 
L 972 0 
L 409 0 
z
" transform="scale(0.015625)"/>
     </defs>
     <use xlink:href="#ArialMT-73"/>
     <use xlink:href="#ArialMT-61" x="50"/>
     <use xlink:href="#ArialMT-6d" x="105.615234"/>
     <use xlink:href="#ArialMT-70" x="188.916016"/>
     <use xlink:href="#ArialMT-6c" x="244.53125"/>
     <use xlink:href="#ArialMT-65" x="266.748047"/>
    </g>
   </g>
   <g id="line2d_17">
    <path d="M 356.7225 159.445344 
L 366.7225 159.445344 
L 376.7225 159.445344 
" style="fill: none; stroke: #1f77b4; stroke-width: 1.5; stroke-linecap: round"/>
   </g>
   <g id="text_16">
    <!-- G1S-1 -->
    <g style="fill: #262626" transform="translate(384.7225 162.945344)scale(0.1 -0.1)">
     <defs>
      <path id="ArialMT-47" d="M 2638 1797 
L 2638 2334 
L 4578 2338 
L 4578 638 
Q 4131 281 3656 101 
Q 3181 -78 2681 -78 
Q 2006 -78 1454 211 
Q 903 500 622 1047 
Q 341 1594 341 2269 
Q 341 2938 620 3517 
Q 900 4097 1425 4378 
Q 1950 4659 2634 4659 
Q 3131 4659 3532 4498 
Q 3934 4338 4162 4050 
Q 4391 3763 4509 3300 
L 3963 3150 
Q 3859 3500 3706 3700 
Q 3553 3900 3268 4020 
Q 2984 4141 2638 4141 
Q 2222 4141 1919 4014 
Q 1616 3888 1430 3681 
Q 1244 3475 1141 3228 
Q 966 2803 966 2306 
Q 966 1694 1177 1281 
Q 1388 869 1791 669 
Q 2194 469 2647 469 
Q 3041 469 3416 620 
Q 3791 772 3984 944 
L 3984 1797 
L 2638 1797 
z
" transform="scale(0.015625)"/>
      <path id="ArialMT-53" d="M 288 1472 
L 859 1522 
Q 900 1178 1048 958 
Q 1197 738 1509 602 
Q 1822 466 2213 466 
Q 2559 466 2825 569 
Q 3091 672 3220 851 
Q 3350 1031 3350 1244 
Q 3350 1459 3225 1620 
Q 3100 1781 2813 1891 
Q 2628 1963 1997 2114 
Q 1366 2266 1113 2400 
Q 784 2572 623 2826 
Q 463 3081 463 3397 
Q 463 3744 659 4045 
Q 856 4347 1234 4503 
Q 1613 4659 2075 4659 
Q 2584 4659 2973 4495 
Q 3363 4331 3572 4012 
Q 3781 3694 3797 3291 
L 3216 3247 
Q 3169 3681 2898 3903 
Q 2628 4125 2100 4125 
Q 1550 4125 1298 3923 
Q 1047 3722 1047 3438 
Q 1047 3191 1225 3031 
Q 1400 2872 2139 2705 
Q 2878 2538 3153 2413 
Q 3553 2228 3743 1945 
Q 3934 1663 3934 1294 
Q 3934 928 3725 604 
Q 3516 281 3123 101 
Q 2731 -78 2241 -78 
Q 1619 -78 1198 103 
Q 778 284 539 648 
Q 300 1013 288 1472 
z
" transform="scale(0.015625)"/>
      <path id="ArialMT-2d" d="M 203 1375 
L 203 1941 
L 1931 1941 
L 1931 1375 
L 203 1375 
z
" transform="scale(0.015625)"/>
     </defs>
     <use xlink:href="#ArialMT-47"/>
     <use xlink:href="#ArialMT-31" x="77.783203"/>
     <use xlink:href="#ArialMT-53" x="133.398438"/>
     <use xlink:href="#ArialMT-2d" x="200.097656"/>
     <use xlink:href="#ArialMT-31" x="233.398438"/>
    </g>
   </g>
   <g id="line2d_18">
    <path d="M 356.7225 173.590656 
L 366.7225 173.590656 
L 376.7225 173.590656 
" style="fill: none; stroke: #ff7f0e; stroke-width: 1.5; stroke-linecap: round"/>
   </g>
   <g id="text_17">
    <!-- G1S-2 -->
    <g style="fill: #262626" transform="translate(384.7225 177.090656)scale(0.1 -0.1)">
     <use xlink:href="#ArialMT-47"/>
     <use xlink:href="#ArialMT-31" x="77.783203"/>
     <use xlink:href="#ArialMT-53" x="133.398438"/>
     <use xlink:href="#ArialMT-2d" x="200.097656"/>
     <use xlink:href="#ArialMT-32" x="233.398438"/>
    </g>
   </g>
   <g id="line2d_19">
    <path d="M 356.7225 187.735969 
L 366.7225 187.735969 
L 376.7225 187.735969 
" style="fill: none; stroke: #2ca02c; stroke-width: 1.5; stroke-linecap: round"/>
   </g>
   <g id="text_18">
    <!-- AS-1 -->
    <g style="fill: #262626" transform="translate(384.7225 191.235969)scale(0.1 -0.1)">
     <defs>
      <path id="ArialMT-41" d="M -9 0 
L 1750 4581 
L 2403 4581 
L 4278 0 
L 3588 0 
L 3053 1388 
L 1138 1388 
L 634 0 
L -9 0 
z
M 1313 1881 
L 2866 1881 
L 2388 3150 
Q 2169 3728 2063 4100 
Q 1975 3659 1816 3225 
L 1313 1881 
z
" transform="scale(0.015625)"/>
     </defs>
     <use xlink:href="#ArialMT-41"/>
     <use xlink:href="#ArialMT-53" x="66.699219"/>
     <use xlink:href="#ArialMT-2d" x="133.398438"/>
     <use xlink:href="#ArialMT-31" x="166.699219"/>
    </g>
   </g>
   <g id="line2d_20">
    <path d="M 356.7225 201.881281 
L 366.7225 201.881281 
L 376.7225 201.881281 
" style="fill: none; stroke: #d62728; stroke-width: 1.5; stroke-linecap: round"/>
   </g>
   <g id="text_19">
    <!-- AS-2 -->
    <g style="fill: #262626" transform="translate(384.7225 205.381281)scale(0.1 -0.1)">
     <use xlink:href="#ArialMT-41"/>
     <use xlink:href="#ArialMT-53" x="66.699219"/>
     <use xlink:href="#ArialMT-2d" x="133.398438"/>
     <use xlink:href="#ArialMT-32" x="166.699219"/>
    </g>
   </g>
  </g>
 </g>
 <defs>
  <clipPath id="p86e6526052">
   <rect x="41.3625" y="7.2" width="299.1211" height="301.926625"/>
  </clipPath>
 </defs>
</svg>
