<?xml version="1.0" encoding="utf-8" standalone="no"?>
<!DOCTYPE svg PUBLIC "-//W3C//DTD SVG 1.1//EN"
  "http://www.w3.org/Graphics/SVG/1.1/DTD/svg11.dtd">
<svg height="349.011pt" version="1.1" viewBox="0 0 422.725312 349.011" width="422.725312pt" xmlns="http://www.w3.org/2000/svg" xmlns:xlink="http://www.w3.org/1999/xlink">
 <metadata>
  <rdf:RDF xmlns:cc="http://creativecommons.org/ns#" xmlns:dc="http://purl.org/dc/elements/1.1/" xmlns:rdf="http://www.w3.org/1999/02/22-rdf-syntax-ns#">
   <cc:Work>
    <dc:type rdf:resource="http://purl.org/dc/dcmitype/StillImage"/>
    <dc:date>2021-06-08T14:15:21.728898</dc:date>
    <dc:format>image/svg+xml</dc:format>
    <dc:creator>
     <cc:Agent>
      <dc:title>Matplotlib v3.4.1, https://matplotlib.org/</dc:title>
     </cc:Agent>
    </dc:creator>
   </cc:Work>
  </rdf:RDF>
 </metadata>
 <defs>
  <style type="text/css">*{stroke-linecap:butt;stroke-linejoin:round;}</style>
 </defs>
 <g id="figure_1">
  <g id="patch_1">
   <path d="M 0 349.011 
L 422.725313 349.011 
L 422.725313 0 
L 0 0 
z
" style="fill:#ffffff;"/>
  </g>
  <g id="axes_1">
   <g id="patch_2">
    <path d="M 47.045313 309.126625 
L 340.586412 309.126625 
L 340.586412 7.2 
L 47.045313 7.2 
z
" style="fill:#ffffff;"/>
   </g>
   <g id="matplotlib.axis_1">
    <g id="xtick_1">
     <g id="line2d_1">
      <path clip-path="url(#pab2a7d4d21)" d="M 89.049908 309.126625 
L 89.049908 7.2 
" style="fill:none;stroke:#cccccc;stroke-linecap:round;stroke-width:0.8;"/>
     </g>
     <g id="text_1">
      <!-- $\mathdefault{10^{1}}$ -->
      <g style="fill:#262626;" transform="translate(81.199908 326.439125)scale(0.1 -0.1)">
       <defs>
        <path d="M 2384 0 
L 1822 0 
L 1822 3584 
Q 1619 3391 1289 3197 
Q 959 3003 697 2906 
L 697 3450 
Q 1169 3672 1522 3987 
Q 1875 4303 2022 4600 
L 2384 4600 
L 2384 0 
z
" id="ArialMT-31" transform="scale(0.015625)"/>
        <path d="M 266 2259 
Q 266 3072 433 3567 
Q 600 4063 929 4331 
Q 1259 4600 1759 4600 
Q 2128 4600 2406 4451 
Q 2684 4303 2865 4023 
Q 3047 3744 3150 3342 
Q 3253 2941 3253 2259 
Q 3253 1453 3087 958 
Q 2922 463 2592 192 
Q 2263 -78 1759 -78 
Q 1097 -78 719 397 
Q 266 969 266 2259 
z
M 844 2259 
Q 844 1131 1108 757 
Q 1372 384 1759 384 
Q 2147 384 2411 759 
Q 2675 1134 2675 2259 
Q 2675 3391 2411 3762 
Q 2147 4134 1753 4134 
Q 1366 4134 1134 3806 
Q 844 3388 844 2259 
z
" id="ArialMT-30" transform="scale(0.015625)"/>
       </defs>
       <use transform="translate(0 0.99375)" xlink:href="#ArialMT-31"/>
       <use transform="translate(55.615234 0.99375)" xlink:href="#ArialMT-30"/>
       <use transform="translate(112.972813 70.6875)scale(0.7)" xlink:href="#ArialMT-31"/>
      </g>
     </g>
    </g>
    <g id="xtick_2">
     <g id="line2d_2">
      <path clip-path="url(#pab2a7d4d21)" d="M 159.205178 309.126625 
L 159.205178 7.2 
" style="fill:none;stroke:#cccccc;stroke-linecap:round;stroke-width:0.8;"/>
     </g>
     <g id="text_2">
      <!-- $\mathdefault{10^{3}}$ -->
      <g style="fill:#262626;" transform="translate(151.355178 326.439125)scale(0.1 -0.1)">
       <defs>
        <path d="M 269 1209 
L 831 1284 
Q 928 806 1161 595 
Q 1394 384 1728 384 
Q 2125 384 2398 659 
Q 2672 934 2672 1341 
Q 2672 1728 2419 1979 
Q 2166 2231 1775 2231 
Q 1616 2231 1378 2169 
L 1441 2663 
Q 1497 2656 1531 2656 
Q 1891 2656 2178 2843 
Q 2466 3031 2466 3422 
Q 2466 3731 2256 3934 
Q 2047 4138 1716 4138 
Q 1388 4138 1169 3931 
Q 950 3725 888 3313 
L 325 3413 
Q 428 3978 793 4289 
Q 1159 4600 1703 4600 
Q 2078 4600 2393 4439 
Q 2709 4278 2876 4000 
Q 3044 3722 3044 3409 
Q 3044 3113 2884 2869 
Q 2725 2625 2413 2481 
Q 2819 2388 3044 2092 
Q 3269 1797 3269 1353 
Q 3269 753 2831 336 
Q 2394 -81 1725 -81 
Q 1122 -81 723 278 
Q 325 638 269 1209 
z
" id="ArialMT-33" transform="scale(0.015625)"/>
       </defs>
       <use transform="translate(0 0.99375)" xlink:href="#ArialMT-31"/>
       <use transform="translate(55.615234 0.99375)" xlink:href="#ArialMT-30"/>
       <use transform="translate(112.972813 70.6875)scale(0.7)" xlink:href="#ArialMT-33"/>
      </g>
     </g>
    </g>
    <g id="xtick_3">
     <g id="line2d_3">
      <path clip-path="url(#pab2a7d4d21)" d="M 229.360448 309.126625 
L 229.360448 7.2 
" style="fill:none;stroke:#cccccc;stroke-linecap:round;stroke-width:0.8;"/>
     </g>
     <g id="text_3">
      <!-- $\mathdefault{10^{5}}$ -->
      <g style="fill:#262626;" transform="translate(221.510448 326.339125)scale(0.1 -0.1)">
       <defs>
        <path d="M 266 1200 
L 856 1250 
Q 922 819 1161 601 
Q 1400 384 1738 384 
Q 2144 384 2425 690 
Q 2706 997 2706 1503 
Q 2706 1984 2436 2262 
Q 2166 2541 1728 2541 
Q 1456 2541 1237 2417 
Q 1019 2294 894 2097 
L 366 2166 
L 809 4519 
L 3088 4519 
L 3088 3981 
L 1259 3981 
L 1013 2750 
Q 1425 3038 1878 3038 
Q 2478 3038 2890 2622 
Q 3303 2206 3303 1553 
Q 3303 931 2941 478 
Q 2500 -78 1738 -78 
Q 1113 -78 717 272 
Q 322 622 266 1200 
z
" id="ArialMT-35" transform="scale(0.015625)"/>
       </defs>
       <use transform="translate(0 0.879688)" xlink:href="#ArialMT-31"/>
       <use transform="translate(55.615234 0.879688)" xlink:href="#ArialMT-30"/>
       <use transform="translate(112.972813 70.573438)scale(0.7)" xlink:href="#ArialMT-35"/>
      </g>
     </g>
    </g>
    <g id="xtick_4">
     <g id="line2d_4">
      <path clip-path="url(#pab2a7d4d21)" d="M 299.515718 309.126625 
L 299.515718 7.2 
" style="fill:none;stroke:#cccccc;stroke-linecap:round;stroke-width:0.8;"/>
     </g>
     <g id="text_4">
      <!-- $\mathdefault{10^{7}}$ -->
      <g style="fill:#262626;" transform="translate(291.665718 326.339125)scale(0.1 -0.1)">
       <defs>
        <path d="M 303 3981 
L 303 4522 
L 3269 4522 
L 3269 4084 
Q 2831 3619 2401 2847 
Q 1972 2075 1738 1259 
Q 1569 684 1522 0 
L 944 0 
Q 953 541 1156 1306 
Q 1359 2072 1739 2783 
Q 2119 3494 2547 3981 
L 303 3981 
z
" id="ArialMT-37" transform="scale(0.015625)"/>
       </defs>
       <use transform="translate(0 0.846875)" xlink:href="#ArialMT-31"/>
       <use transform="translate(55.615234 0.846875)" xlink:href="#ArialMT-30"/>
       <use transform="translate(112.972813 70.540625)scale(0.7)" xlink:href="#ArialMT-37"/>
      </g>
     </g>
    </g>
    <g id="text_5">
     <!-- Ditag Length (bp) -->
     <g style="fill:#262626;" transform="translate(155.183831 339.706312)scale(0.1 -0.1)">
      <defs>
       <path d="M 494 0 
L 494 4581 
L 2072 4581 
Q 2606 4581 2888 4516 
Q 3281 4425 3559 4188 
Q 3922 3881 4101 3404 
Q 4281 2928 4281 2316 
Q 4281 1794 4159 1391 
Q 4038 988 3847 723 
Q 3656 459 3429 307 
Q 3203 156 2883 78 
Q 2563 0 2147 0 
L 494 0 
z
M 1100 541 
L 2078 541 
Q 2531 541 2789 625 
Q 3047 709 3200 863 
Q 3416 1078 3536 1442 
Q 3656 1806 3656 2325 
Q 3656 3044 3420 3430 
Q 3184 3816 2847 3947 
Q 2603 4041 2063 4041 
L 1100 4041 
L 1100 541 
z
" id="ArialMT-44" transform="scale(0.015625)"/>
       <path d="M 425 3934 
L 425 4581 
L 988 4581 
L 988 3934 
L 425 3934 
z
M 425 0 
L 425 3319 
L 988 3319 
L 988 0 
L 425 0 
z
" id="ArialMT-69" transform="scale(0.015625)"/>
       <path d="M 1650 503 
L 1731 6 
Q 1494 -44 1306 -44 
Q 1000 -44 831 53 
Q 663 150 594 308 
Q 525 466 525 972 
L 525 2881 
L 113 2881 
L 113 3319 
L 525 3319 
L 525 4141 
L 1084 4478 
L 1084 3319 
L 1650 3319 
L 1650 2881 
L 1084 2881 
L 1084 941 
Q 1084 700 1114 631 
Q 1144 563 1211 522 
Q 1278 481 1403 481 
Q 1497 481 1650 503 
z
" id="ArialMT-74" transform="scale(0.015625)"/>
       <path d="M 2588 409 
Q 2275 144 1986 34 
Q 1697 -75 1366 -75 
Q 819 -75 525 192 
Q 231 459 231 875 
Q 231 1119 342 1320 
Q 453 1522 633 1644 
Q 813 1766 1038 1828 
Q 1203 1872 1538 1913 
Q 2219 1994 2541 2106 
Q 2544 2222 2544 2253 
Q 2544 2597 2384 2738 
Q 2169 2928 1744 2928 
Q 1347 2928 1158 2789 
Q 969 2650 878 2297 
L 328 2372 
Q 403 2725 575 2942 
Q 747 3159 1072 3276 
Q 1397 3394 1825 3394 
Q 2250 3394 2515 3294 
Q 2781 3194 2906 3042 
Q 3031 2891 3081 2659 
Q 3109 2516 3109 2141 
L 3109 1391 
Q 3109 606 3145 398 
Q 3181 191 3288 0 
L 2700 0 
Q 2613 175 2588 409 
z
M 2541 1666 
Q 2234 1541 1622 1453 
Q 1275 1403 1131 1340 
Q 988 1278 909 1158 
Q 831 1038 831 891 
Q 831 666 1001 516 
Q 1172 366 1500 366 
Q 1825 366 2078 508 
Q 2331 650 2450 897 
Q 2541 1088 2541 1459 
L 2541 1666 
z
" id="ArialMT-61" transform="scale(0.015625)"/>
       <path d="M 319 -275 
L 866 -356 
Q 900 -609 1056 -725 
Q 1266 -881 1628 -881 
Q 2019 -881 2231 -725 
Q 2444 -569 2519 -288 
Q 2563 -116 2559 434 
Q 2191 0 1641 0 
Q 956 0 581 494 
Q 206 988 206 1678 
Q 206 2153 378 2554 
Q 550 2956 876 3175 
Q 1203 3394 1644 3394 
Q 2231 3394 2613 2919 
L 2613 3319 
L 3131 3319 
L 3131 450 
Q 3131 -325 2973 -648 
Q 2816 -972 2473 -1159 
Q 2131 -1347 1631 -1347 
Q 1038 -1347 672 -1080 
Q 306 -813 319 -275 
z
M 784 1719 
Q 784 1066 1043 766 
Q 1303 466 1694 466 
Q 2081 466 2343 764 
Q 2606 1063 2606 1700 
Q 2606 2309 2336 2618 
Q 2066 2928 1684 2928 
Q 1309 2928 1046 2623 
Q 784 2319 784 1719 
z
" id="ArialMT-67" transform="scale(0.015625)"/>
       <path id="ArialMT-20" transform="scale(0.015625)"/>
       <path d="M 469 0 
L 469 4581 
L 1075 4581 
L 1075 541 
L 3331 541 
L 3331 0 
L 469 0 
z
" id="ArialMT-4c" transform="scale(0.015625)"/>
       <path d="M 2694 1069 
L 3275 997 
Q 3138 488 2766 206 
Q 2394 -75 1816 -75 
Q 1088 -75 661 373 
Q 234 822 234 1631 
Q 234 2469 665 2931 
Q 1097 3394 1784 3394 
Q 2450 3394 2872 2941 
Q 3294 2488 3294 1666 
Q 3294 1616 3291 1516 
L 816 1516 
Q 847 969 1125 678 
Q 1403 388 1819 388 
Q 2128 388 2347 550 
Q 2566 713 2694 1069 
z
M 847 1978 
L 2700 1978 
Q 2663 2397 2488 2606 
Q 2219 2931 1791 2931 
Q 1403 2931 1139 2672 
Q 875 2413 847 1978 
z
" id="ArialMT-65" transform="scale(0.015625)"/>
       <path d="M 422 0 
L 422 3319 
L 928 3319 
L 928 2847 
Q 1294 3394 1984 3394 
Q 2284 3394 2536 3286 
Q 2788 3178 2913 3003 
Q 3038 2828 3088 2588 
Q 3119 2431 3119 2041 
L 3119 0 
L 2556 0 
L 2556 2019 
Q 2556 2363 2490 2533 
Q 2425 2703 2258 2804 
Q 2091 2906 1866 2906 
Q 1506 2906 1245 2678 
Q 984 2450 984 1813 
L 984 0 
L 422 0 
z
" id="ArialMT-6e" transform="scale(0.015625)"/>
       <path d="M 422 0 
L 422 4581 
L 984 4581 
L 984 2938 
Q 1378 3394 1978 3394 
Q 2347 3394 2619 3248 
Q 2891 3103 3008 2847 
Q 3125 2591 3125 2103 
L 3125 0 
L 2563 0 
L 2563 2103 
Q 2563 2525 2380 2717 
Q 2197 2909 1863 2909 
Q 1613 2909 1392 2779 
Q 1172 2650 1078 2428 
Q 984 2206 984 1816 
L 984 0 
L 422 0 
z
" id="ArialMT-68" transform="scale(0.015625)"/>
       <path d="M 1497 -1347 
Q 1031 -759 709 28 
Q 388 816 388 1659 
Q 388 2403 628 3084 
Q 909 3875 1497 4659 
L 1900 4659 
Q 1522 4009 1400 3731 
Q 1209 3300 1100 2831 
Q 966 2247 966 1656 
Q 966 153 1900 -1347 
L 1497 -1347 
z
" id="ArialMT-28" transform="scale(0.015625)"/>
       <path d="M 941 0 
L 419 0 
L 419 4581 
L 981 4581 
L 981 2947 
Q 1338 3394 1891 3394 
Q 2197 3394 2470 3270 
Q 2744 3147 2920 2923 
Q 3097 2700 3197 2384 
Q 3297 2069 3297 1709 
Q 3297 856 2875 390 
Q 2453 -75 1863 -75 
Q 1275 -75 941 416 
L 941 0 
z
M 934 1684 
Q 934 1088 1097 822 
Q 1363 388 1816 388 
Q 2184 388 2453 708 
Q 2722 1028 2722 1663 
Q 2722 2313 2464 2622 
Q 2206 2931 1841 2931 
Q 1472 2931 1203 2611 
Q 934 2291 934 1684 
z
" id="ArialMT-62" transform="scale(0.015625)"/>
       <path d="M 422 -1272 
L 422 3319 
L 934 3319 
L 934 2888 
Q 1116 3141 1344 3267 
Q 1572 3394 1897 3394 
Q 2322 3394 2647 3175 
Q 2972 2956 3137 2557 
Q 3303 2159 3303 1684 
Q 3303 1175 3120 767 
Q 2938 359 2589 142 
Q 2241 -75 1856 -75 
Q 1575 -75 1351 44 
Q 1128 163 984 344 
L 984 -1272 
L 422 -1272 
z
M 931 1641 
Q 931 1000 1190 694 
Q 1450 388 1819 388 
Q 2194 388 2461 705 
Q 2728 1022 2728 1688 
Q 2728 2322 2467 2637 
Q 2206 2953 1844 2953 
Q 1484 2953 1207 2617 
Q 931 2281 931 1641 
z
" id="ArialMT-70" transform="scale(0.015625)"/>
       <path d="M 791 -1347 
L 388 -1347 
Q 1322 153 1322 1656 
Q 1322 2244 1188 2822 
Q 1081 3291 891 3722 
Q 769 4003 388 4659 
L 791 4659 
Q 1378 3875 1659 3084 
Q 1900 2403 1900 1659 
Q 1900 816 1576 28 
Q 1253 -759 791 -1347 
z
" id="ArialMT-29" transform="scale(0.015625)"/>
      </defs>
      <use xlink:href="#ArialMT-44"/>
      <use x="72.216797" xlink:href="#ArialMT-69"/>
      <use x="94.433594" xlink:href="#ArialMT-74"/>
      <use x="122.216797" xlink:href="#ArialMT-61"/>
      <use x="177.832031" xlink:href="#ArialMT-67"/>
      <use x="233.447266" xlink:href="#ArialMT-20"/>
      <use x="261.230469" xlink:href="#ArialMT-4c"/>
      <use x="316.845703" xlink:href="#ArialMT-65"/>
      <use x="372.460938" xlink:href="#ArialMT-6e"/>
      <use x="428.076172" xlink:href="#ArialMT-67"/>
      <use x="483.691406" xlink:href="#ArialMT-74"/>
      <use x="511.474609" xlink:href="#ArialMT-68"/>
      <use x="567.089844" xlink:href="#ArialMT-20"/>
      <use x="594.873047" xlink:href="#ArialMT-28"/>
      <use x="628.173828" xlink:href="#ArialMT-62"/>
      <use x="683.789062" xlink:href="#ArialMT-70"/>
      <use x="739.404297" xlink:href="#ArialMT-29"/>
     </g>
    </g>
   </g>
   <g id="matplotlib.axis_2">
    <g id="ytick_1">
     <g id="line2d_5">
      <path clip-path="url(#pab2a7d4d21)" d="M 47.045313 309.126625 
L 340.586412 309.126625 
" style="fill:none;stroke:#cccccc;stroke-linecap:round;stroke-width:0.8;"/>
     </g>
     <g id="text_6">
      <!-- 0.00 -->
      <g style="fill:#262626;" transform="translate(20.584375 312.705531)scale(0.1 -0.1)">
       <defs>
        <path d="M 581 0 
L 581 641 
L 1222 641 
L 1222 0 
L 581 0 
z
" id="ArialMT-2e" transform="scale(0.015625)"/>
       </defs>
       <use xlink:href="#ArialMT-30"/>
       <use x="55.615234" xlink:href="#ArialMT-2e"/>
       <use x="83.398438" xlink:href="#ArialMT-30"/>
       <use x="139.013672" xlink:href="#ArialMT-30"/>
      </g>
     </g>
    </g>
    <g id="ytick_2">
     <g id="line2d_6">
      <path clip-path="url(#pab2a7d4d21)" d="M 47.045313 269.992117 
L 340.586412 269.992117 
" style="fill:none;stroke:#cccccc;stroke-linecap:round;stroke-width:0.8;"/>
     </g>
     <g id="text_7">
      <!-- 0.05 -->
      <g style="fill:#262626;" transform="translate(20.584375 273.571023)scale(0.1 -0.1)">
       <use xlink:href="#ArialMT-30"/>
       <use x="55.615234" xlink:href="#ArialMT-2e"/>
       <use x="83.398438" xlink:href="#ArialMT-30"/>
       <use x="139.013672" xlink:href="#ArialMT-35"/>
      </g>
     </g>
    </g>
    <g id="ytick_3">
     <g id="line2d_7">
      <path clip-path="url(#pab2a7d4d21)" d="M 47.045313 230.857609 
L 340.586412 230.857609 
" style="fill:none;stroke:#cccccc;stroke-linecap:round;stroke-width:0.8;"/>
     </g>
     <g id="text_8">
      <!-- 0.10 -->
      <g style="fill:#262626;" transform="translate(20.584375 234.436515)scale(0.1 -0.1)">
       <use xlink:href="#ArialMT-30"/>
       <use x="55.615234" xlink:href="#ArialMT-2e"/>
       <use x="83.398438" xlink:href="#ArialMT-31"/>
       <use x="139.013672" xlink:href="#ArialMT-30"/>
      </g>
     </g>
    </g>
    <g id="ytick_4">
     <g id="line2d_8">
      <path clip-path="url(#pab2a7d4d21)" d="M 47.045313 191.723101 
L 340.586412 191.723101 
" style="fill:none;stroke:#cccccc;stroke-linecap:round;stroke-width:0.8;"/>
     </g>
     <g id="text_9">
      <!-- 0.15 -->
      <g style="fill:#262626;" transform="translate(20.584375 195.302007)scale(0.1 -0.1)">
       <use xlink:href="#ArialMT-30"/>
       <use x="55.615234" xlink:href="#ArialMT-2e"/>
       <use x="83.398438" xlink:href="#ArialMT-31"/>
       <use x="139.013672" xlink:href="#ArialMT-35"/>
      </g>
     </g>
    </g>
    <g id="ytick_5">
     <g id="line2d_9">
      <path clip-path="url(#pab2a7d4d21)" d="M 47.045313 152.588593 
L 340.586412 152.588593 
" style="fill:none;stroke:#cccccc;stroke-linecap:round;stroke-width:0.8;"/>
     </g>
     <g id="text_10">
      <!-- 0.20 -->
      <g style="fill:#262626;" transform="translate(20.584375 156.167499)scale(0.1 -0.1)">
       <defs>
        <path d="M 3222 541 
L 3222 0 
L 194 0 
Q 188 203 259 391 
Q 375 700 629 1000 
Q 884 1300 1366 1694 
Q 2113 2306 2375 2664 
Q 2638 3022 2638 3341 
Q 2638 3675 2398 3904 
Q 2159 4134 1775 4134 
Q 1369 4134 1125 3890 
Q 881 3647 878 3216 
L 300 3275 
Q 359 3922 746 4261 
Q 1134 4600 1788 4600 
Q 2447 4600 2831 4234 
Q 3216 3869 3216 3328 
Q 3216 3053 3103 2787 
Q 2991 2522 2730 2228 
Q 2469 1934 1863 1422 
Q 1356 997 1212 845 
Q 1069 694 975 541 
L 3222 541 
z
" id="ArialMT-32" transform="scale(0.015625)"/>
       </defs>
       <use xlink:href="#ArialMT-30"/>
       <use x="55.615234" xlink:href="#ArialMT-2e"/>
       <use x="83.398438" xlink:href="#ArialMT-32"/>
       <use x="139.013672" xlink:href="#ArialMT-30"/>
      </g>
     </g>
    </g>
    <g id="ytick_6">
     <g id="line2d_10">
      <path clip-path="url(#pab2a7d4d21)" d="M 47.045313 113.454085 
L 340.586412 113.454085 
" style="fill:none;stroke:#cccccc;stroke-linecap:round;stroke-width:0.8;"/>
     </g>
     <g id="text_11">
      <!-- 0.25 -->
      <g style="fill:#262626;" transform="translate(20.584375 117.032992)scale(0.1 -0.1)">
       <use xlink:href="#ArialMT-30"/>
       <use x="55.615234" xlink:href="#ArialMT-2e"/>
       <use x="83.398438" xlink:href="#ArialMT-32"/>
       <use x="139.013672" xlink:href="#ArialMT-35"/>
      </g>
     </g>
    </g>
    <g id="ytick_7">
     <g id="line2d_11">
      <path clip-path="url(#pab2a7d4d21)" d="M 47.045313 74.319577 
L 340.586412 74.319577 
" style="fill:none;stroke:#cccccc;stroke-linecap:round;stroke-width:0.8;"/>
     </g>
     <g id="text_12">
      <!-- 0.30 -->
      <g style="fill:#262626;" transform="translate(20.584375 77.898484)scale(0.1 -0.1)">
       <use xlink:href="#ArialMT-30"/>
       <use x="55.615234" xlink:href="#ArialMT-2e"/>
       <use x="83.398438" xlink:href="#ArialMT-33"/>
       <use x="139.013672" xlink:href="#ArialMT-30"/>
      </g>
     </g>
    </g>
    <g id="ytick_8">
     <g id="line2d_12">
      <path clip-path="url(#pab2a7d4d21)" d="M 47.045313 35.185069 
L 340.586412 35.185069 
" style="fill:none;stroke:#cccccc;stroke-linecap:round;stroke-width:0.8;"/>
     </g>
     <g id="text_13">
      <!-- 0.35 -->
      <g style="fill:#262626;" transform="translate(20.584375 38.763976)scale(0.1 -0.1)">
       <use xlink:href="#ArialMT-30"/>
       <use x="55.615234" xlink:href="#ArialMT-2e"/>
       <use x="83.398438" xlink:href="#ArialMT-33"/>
       <use x="139.013672" xlink:href="#ArialMT-35"/>
      </g>
     </g>
    </g>
    <g id="text_14">
     <!-- Density (a.u.) -->
     <g style="fill:#262626;" transform="translate(14.479687 187.893)rotate(-90)scale(0.1 -0.1)">
      <defs>
       <path d="M 197 991 
L 753 1078 
Q 800 744 1014 566 
Q 1228 388 1613 388 
Q 2000 388 2187 545 
Q 2375 703 2375 916 
Q 2375 1106 2209 1216 
Q 2094 1291 1634 1406 
Q 1016 1563 777 1677 
Q 538 1791 414 1992 
Q 291 2194 291 2438 
Q 291 2659 392 2848 
Q 494 3038 669 3163 
Q 800 3259 1026 3326 
Q 1253 3394 1513 3394 
Q 1903 3394 2198 3281 
Q 2494 3169 2634 2976 
Q 2775 2784 2828 2463 
L 2278 2388 
Q 2241 2644 2061 2787 
Q 1881 2931 1553 2931 
Q 1166 2931 1000 2803 
Q 834 2675 834 2503 
Q 834 2394 903 2306 
Q 972 2216 1119 2156 
Q 1203 2125 1616 2013 
Q 2213 1853 2448 1751 
Q 2684 1650 2818 1456 
Q 2953 1263 2953 975 
Q 2953 694 2789 445 
Q 2625 197 2315 61 
Q 2006 -75 1616 -75 
Q 969 -75 630 194 
Q 291 463 197 991 
z
" id="ArialMT-73" transform="scale(0.015625)"/>
       <path d="M 397 -1278 
L 334 -750 
Q 519 -800 656 -800 
Q 844 -800 956 -737 
Q 1069 -675 1141 -563 
Q 1194 -478 1313 -144 
Q 1328 -97 1363 -6 
L 103 3319 
L 709 3319 
L 1400 1397 
Q 1534 1031 1641 628 
Q 1738 1016 1872 1384 
L 2581 3319 
L 3144 3319 
L 1881 -56 
Q 1678 -603 1566 -809 
Q 1416 -1088 1222 -1217 
Q 1028 -1347 759 -1347 
Q 597 -1347 397 -1278 
z
" id="ArialMT-79" transform="scale(0.015625)"/>
       <path d="M 2597 0 
L 2597 488 
Q 2209 -75 1544 -75 
Q 1250 -75 995 37 
Q 741 150 617 320 
Q 494 491 444 738 
Q 409 903 409 1263 
L 409 3319 
L 972 3319 
L 972 1478 
Q 972 1038 1006 884 
Q 1059 663 1231 536 
Q 1403 409 1656 409 
Q 1909 409 2131 539 
Q 2353 669 2445 892 
Q 2538 1116 2538 1541 
L 2538 3319 
L 3100 3319 
L 3100 0 
L 2597 0 
z
" id="ArialMT-75" transform="scale(0.015625)"/>
      </defs>
      <use xlink:href="#ArialMT-44"/>
      <use x="72.216797" xlink:href="#ArialMT-65"/>
      <use x="127.832031" xlink:href="#ArialMT-6e"/>
      <use x="183.447266" xlink:href="#ArialMT-73"/>
      <use x="233.447266" xlink:href="#ArialMT-69"/>
      <use x="255.664062" xlink:href="#ArialMT-74"/>
      <use x="283.447266" xlink:href="#ArialMT-79"/>
      <use x="333.447266" xlink:href="#ArialMT-20"/>
      <use x="361.230469" xlink:href="#ArialMT-28"/>
      <use x="394.53125" xlink:href="#ArialMT-61"/>
      <use x="450.146484" xlink:href="#ArialMT-2e"/>
      <use x="477.929688" xlink:href="#ArialMT-75"/>
      <use x="533.544922" xlink:href="#ArialMT-2e"/>
      <use x="561.328125" xlink:href="#ArialMT-29"/>
     </g>
    </g>
   </g>
   <g id="line2d_13">
    <path clip-path="url(#pab2a7d4d21)" d="M 61.329033 309.125853 
L 82.688634 308.930144 
L 83.451477 308.065014 
L 84.214319 305.55055 
L 84.977162 301.88077 
L 85.740005 300.295538 
L 86.502848 302.530418 
L 87.265691 305.587577 
L 88.028534 306.527906 
L 88.791377 306.109642 
L 89.55422 306.166906 
L 90.317063 306.509055 
L 91.079906 306.124049 
L 91.842748 305.598371 
L 93.368434 305.758381 
L 94.131277 305.490536 
L 95.656963 305.16055 
L 98.708334 303.942802 
L 100.23402 303.094743 
L 102.522549 301.95837 
L 104.811078 300.697075 
L 105.57392 299.294795 
L 107.099606 294.736872 
L 108.625292 290.759947 
L 109.388135 287.419492 
L 110.913821 279.418058 
L 111.676664 276.722479 
L 115.490878 266.019502 
L 117.016564 259.943596 
L 118.54225 252.995079 
L 119.305093 250.296293 
L 120.830778 245.923194 
L 123.88215 234.16916 
L 124.644993 229.469846 
L 127.696364 202.803741 
L 128.459207 195.133383 
L 129.22205 184.968227 
L 131.510579 145.923006 
L 132.273422 137.534212 
L 133.036265 131.27998 
L 133.799108 127.277053 
L 134.56195 124.185871 
L 135.324793 118.435303 
L 136.850479 99.812057 
L 138.376165 85.621118 
L 142.190379 38.388604 
L 142.953222 31.942117 
L 143.716065 33.936718 
L 144.478908 38.716275 
L 145.241751 41.58882 
L 146.767437 46.493695 
L 147.53028 50.105948 
L 148.293123 59.221461 
L 149.055965 76.296583 
L 149.818808 99.022778 
L 151.344494 155.451831 
L 152.87018 214.564068 
L 153.633023 238.651228 
L 154.395866 258.081276 
L 155.158709 272.960307 
L 155.921552 283.421268 
L 156.684394 289.755087 
L 157.447237 293.10207 
L 158.21008 295.063969 
L 158.972923 296.55416 
L 159.735766 297.549942 
L 160.498609 297.790274 
L 161.261452 297.333393 
L 162.787138 295.789738 
L 163.54998 295.520539 
L 164.312823 295.81865 
L 166.601352 297.895681 
L 167.364195 298.625034 
L 168.127038 299.188712 
L 168.889881 299.364271 
L 169.652724 299.25622 
L 170.415567 299.290345 
L 171.941252 300.121767 
L 172.704095 300.634733 
L 174.229781 302.092451 
L 175.755467 303.547837 
L 176.51831 304.045108 
L 177.281153 304.294412 
L 178.043995 304.198424 
L 178.806838 303.96239 
L 179.569681 304.197507 
L 180.332524 305.063786 
L 181.85821 306.969122 
L 182.621053 307.56552 
L 183.383896 307.895326 
L 184.909582 308.110135 
L 186.435267 308.296501 
L 188.723796 308.73112 
L 191.012325 308.744966 
L 192.53801 308.817836 
L 194.826539 309.03213 
L 206.269183 309.126597 
L 213.134769 309.126515 
L 213.134769 309.126515 
" style="fill:none;stroke:#d62728;stroke-linecap:round;stroke-width:1.5;"/>
   </g>
   <g id="line2d_14">
    <path clip-path="url(#pab2a7d4d21)" d="M 61.624295 309.126382 
L 82.989409 308.992486 
L 83.678606 308.416188 
L 84.367804 306.784815 
L 85.057001 304.464977 
L 85.746198 303.524017 
L 86.435395 305.011932 
L 87.124593 307.019176 
L 87.81379 307.579149 
L 88.502987 306.966014 
L 89.192184 306.649329 
L 89.881381 307.131871 
L 90.570579 307.421135 
L 91.948973 306.646922 
L 92.63817 306.815841 
L 93.327368 306.75729 
L 94.016565 306.383674 
L 97.462551 306.014352 
L 98.840945 305.497938 
L 101.597734 304.295401 
L 102.286932 304.035417 
L 104.354523 303.646999 
L 105.04372 302.859909 
L 105.732918 301.097552 
L 107.111312 295.809704 
L 107.800509 294.002248 
L 108.489707 292.5597 
L 109.178904 290.2742 
L 111.246495 279.380582 
L 112.62489 275.888962 
L 114.003284 272.449791 
L 114.692482 271.15216 
L 115.381679 269.469619 
L 116.070876 266.947399 
L 117.449271 260.736901 
L 118.827665 254.228804 
L 120.206059 248.974583 
L 122.273651 241.861173 
L 123.652046 236.790333 
L 124.341243 233.168092 
L 125.03044 227.305552 
L 126.408834 213.402794 
L 128.476426 195.350645 
L 129.165623 186.027162 
L 131.233215 146.679383 
L 131.922412 139.435189 
L 133.300807 129.169534 
L 134.679201 123.410599 
L 135.368398 116.572011 
L 136.746793 93.639545 
L 137.43599 85.388698 
L 138.814385 73.631856 
L 141.571173 41.858063 
L 142.260371 29.640501 
L 142.949568 21.577458 
L 143.638765 22.964694 
L 144.327962 27.375244 
L 145.01716 28.640172 
L 145.706357 28.820456 
L 146.395554 29.536505 
L 147.084751 29.218614 
L 147.773948 30.398932 
L 148.463146 38.742863 
L 149.152343 55.644541 
L 149.84154 78.050803 
L 151.219935 135.105826 
L 152.598329 198.403681 
L 153.976724 249.133354 
L 154.665921 267.466702 
L 155.355118 281.024427 
L 156.044315 290.118083 
L 156.733512 295.460913 
L 157.42271 298.489928 
L 158.111907 300.488404 
L 158.801104 301.853256 
L 159.490301 302.568103 
L 160.179499 302.734203 
L 161.557893 302.46407 
L 162.936287 302.17163 
L 163.625485 302.207788 
L 164.314682 302.491712 
L 167.071471 304.712444 
L 168.449865 305.277019 
L 169.82826 305.555788 
L 172.585049 305.579985 
L 173.274246 305.820509 
L 174.65264 306.677827 
L 175.341838 306.918228 
L 179.477021 307.407515 
L 181.544613 308.322658 
L 183.612204 308.765774 
L 184.990599 308.831221 
L 187.05819 308.780878 
L 189.125782 309.043732 
L 192.571768 309.019614 
L 198.774543 309.125983 
L 198.774543 309.125983 
" style="fill:none;stroke:#2ca02c;stroke-linecap:round;stroke-width:1.5;"/>
   </g>
   <g id="line2d_15">
    <path clip-path="url(#pab2a7d4d21)" d="M 60.38809 309.126028 
L 80.502829 309.037947 
L 81.843812 308.086736 
L 83.184795 300.124543 
L 84.525777 277.381119 
L 85.86676 265.18284 
L 87.207743 284.027357 
L 88.548725 300.147678 
L 89.889708 303.602052 
L 91.230691 303.315064 
L 92.571673 302.542311 
L 95.253638 301.269598 
L 96.594621 300.48343 
L 97.935604 299.36832 
L 100.617569 296.804547 
L 103.299534 294.565957 
L 104.640517 293.252199 
L 105.9815 291.543958 
L 108.663465 287.562754 
L 110.004447 284.713709 
L 111.34543 281.194858 
L 112.686413 278.139353 
L 114.027395 275.783259 
L 115.368378 272.998136 
L 118.050343 265.137113 
L 120.732309 257.49346 
L 123.414274 250.363609 
L 124.755257 245.196858 
L 126.096239 237.53858 
L 127.437222 228.49069 
L 128.778204 216.889587 
L 131.46017 180.872299 
L 132.801152 168.275999 
L 135.483118 151.44676 
L 136.8241 142.042985 
L 139.506066 124.199547 
L 142.188031 106.397385 
L 143.529013 101.359619 
L 144.869996 100.427984 
L 147.551961 99.771522 
L 148.892944 100.487279 
L 150.233927 105.17025 
L 151.574909 114.953432 
L 152.915892 129.310419 
L 154.256875 148.291778 
L 159.620805 241.371142 
L 160.961788 259.794995 
L 162.30277 274.070755 
L 163.643753 283.624621 
L 164.984736 289.173758 
L 166.325718 292.02918 
L 167.666701 293.812233 
L 169.007684 295.300966 
L 170.348666 296.456474 
L 173.030632 298.237654 
L 175.712597 301.238925 
L 177.053579 301.93831 
L 178.394562 302.249645 
L 179.735545 303.189508 
L 182.41751 306.399541 
L 183.758493 307.401041 
L 185.099475 307.834742 
L 186.440458 307.989181 
L 189.122423 308.501095 
L 191.804389 308.503656 
L 195.827336 308.948844 
L 198.509302 309.098451 
L 222.646989 309.121943 
L 265.558434 309.126625 
L 327.243635 309.126284 
L 327.243635 309.126284 
" style="fill:none;stroke:#ff7f0e;stroke-linecap:round;stroke-width:1.5;"/>
   </g>
   <g id="line2d_16">
    <path clip-path="url(#pab2a7d4d21)" d="M 61.054817 309.126523 
L 81.069027 309.080533 
L 82.403308 308.613773 
L 83.737589 302.762631 
L 85.071869 287.19598 
L 86.40615 288.882772 
L 87.740431 303.066581 
L 89.074712 306.454705 
L 90.408992 306.863143 
L 91.743273 306.330397 
L 93.077554 306.241753 
L 95.746115 305.553959 
L 99.748957 304.018588 
L 101.083238 303.546089 
L 102.417519 303.220559 
L 103.751799 302.578464 
L 105.08608 301.339121 
L 106.420361 299.356382 
L 107.754641 297.062432 
L 109.088922 294.08759 
L 110.423203 289.36167 
L 111.757483 283.712545 
L 113.091764 279.44713 
L 114.426045 278.769327 
L 115.760326 276.938828 
L 118.428887 269.670111 
L 119.763168 266.919644 
L 121.097448 263.645667 
L 123.76601 255.17981 
L 125.10029 249.3746 
L 127.768852 233.471714 
L 129.103133 219.628602 
L 130.437413 194.896966 
L 131.771694 174.421111 
L 133.105975 163.745708 
L 134.440255 157.454444 
L 135.774536 148.879811 
L 141.111659 100.654609 
L 142.44594 86.778158 
L 143.78022 81.425638 
L 145.114501 81.649813 
L 146.448782 80.872107 
L 149.117343 68.326342 
L 150.451624 70.004851 
L 151.785904 81.193158 
L 153.120185 98.48144 
L 154.454466 122.375744 
L 157.123027 190.98138 
L 159.791589 246.599155 
L 161.125869 269.168365 
L 162.46015 284.184237 
L 163.794431 292.813981 
L 165.128711 298.02384 
L 166.462992 300.835355 
L 167.797273 302.002368 
L 169.131554 302.400581 
L 170.465834 302.519181 
L 173.134396 302.49201 
L 174.468676 303.444389 
L 175.802957 304.674255 
L 177.137238 305.199249 
L 178.471518 305.436351 
L 179.805799 306.11525 
L 181.14008 307.237857 
L 182.474361 307.973202 
L 183.808641 308.310745 
L 186.477203 308.549132 
L 189.145764 308.858041 
L 193.148606 308.887121 
L 201.15429 309.096172 
L 211.828536 309.126625 
L 326.576676 309.126523 
L 326.576676 309.126523 
" style="fill:none;stroke:#1f77b4;stroke-linecap:round;stroke-width:1.5;"/>
   </g>
   <g id="patch_3">
    <path d="M 47.045313 309.126625 
L 47.045313 7.2 
" style="fill:none;stroke:#cccccc;stroke-linecap:square;stroke-linejoin:miter;stroke-width:0.8;"/>
   </g>
   <g id="patch_4">
    <path d="M 47.045313 309.126625 
L 340.586412 309.126625 
" style="fill:none;stroke:#cccccc;stroke-linecap:square;stroke-linejoin:miter;stroke-width:0.8;"/>
   </g>
  </g>
  <g id="legend_1">
   <g id="text_15">
    <!-- sample -->
    <g style="fill:#262626;" transform="translate(369.158125 148.800031)scale(0.1 -0.1)">
     <defs>
      <path d="M 422 0 
L 422 3319 
L 925 3319 
L 925 2853 
Q 1081 3097 1340 3245 
Q 1600 3394 1931 3394 
Q 2300 3394 2536 3241 
Q 2772 3088 2869 2813 
Q 3263 3394 3894 3394 
Q 4388 3394 4653 3120 
Q 4919 2847 4919 2278 
L 4919 0 
L 4359 0 
L 4359 2091 
Q 4359 2428 4304 2576 
Q 4250 2725 4106 2815 
Q 3963 2906 3769 2906 
Q 3419 2906 3187 2673 
Q 2956 2441 2956 1928 
L 2956 0 
L 2394 0 
L 2394 2156 
Q 2394 2531 2256 2718 
Q 2119 2906 1806 2906 
Q 1569 2906 1367 2781 
Q 1166 2656 1075 2415 
Q 984 2175 984 1722 
L 984 0 
L 422 0 
z
" id="ArialMT-6d" transform="scale(0.015625)"/>
      <path d="M 409 0 
L 409 4581 
L 972 4581 
L 972 0 
L 409 0 
z
" id="ArialMT-6c" transform="scale(0.015625)"/>
     </defs>
     <use xlink:href="#ArialMT-73"/>
     <use x="50" xlink:href="#ArialMT-61"/>
     <use x="105.615234" xlink:href="#ArialMT-6d"/>
     <use x="188.916016" xlink:href="#ArialMT-70"/>
     <use x="244.53125" xlink:href="#ArialMT-6c"/>
     <use x="266.748047" xlink:href="#ArialMT-65"/>
    </g>
   </g>
   <g id="line2d_17">
    <path d="M 356.825312 159.445344 
L 376.825312 159.445344 
" style="fill:none;stroke:#1f77b4;stroke-linecap:round;stroke-width:1.5;"/>
   </g>
   <g id="line2d_18"/>
   <g id="text_16">
    <!-- AS-1 -->
    <g style="fill:#262626;" transform="translate(384.825312 162.945344)scale(0.1 -0.1)">
     <defs>
      <path d="M -9 0 
L 1750 4581 
L 2403 4581 
L 4278 0 
L 3588 0 
L 3053 1388 
L 1138 1388 
L 634 0 
L -9 0 
z
M 1313 1881 
L 2866 1881 
L 2388 3150 
Q 2169 3728 2063 4100 
Q 1975 3659 1816 3225 
L 1313 1881 
z
" id="ArialMT-41" transform="scale(0.015625)"/>
      <path d="M 288 1472 
L 859 1522 
Q 900 1178 1048 958 
Q 1197 738 1509 602 
Q 1822 466 2213 466 
Q 2559 466 2825 569 
Q 3091 672 3220 851 
Q 3350 1031 3350 1244 
Q 3350 1459 3225 1620 
Q 3100 1781 2813 1891 
Q 2628 1963 1997 2114 
Q 1366 2266 1113 2400 
Q 784 2572 623 2826 
Q 463 3081 463 3397 
Q 463 3744 659 4045 
Q 856 4347 1234 4503 
Q 1613 4659 2075 4659 
Q 2584 4659 2973 4495 
Q 3363 4331 3572 4012 
Q 3781 3694 3797 3291 
L 3216 3247 
Q 3169 3681 2898 3903 
Q 2628 4125 2100 4125 
Q 1550 4125 1298 3923 
Q 1047 3722 1047 3438 
Q 1047 3191 1225 3031 
Q 1400 2872 2139 2705 
Q 2878 2538 3153 2413 
Q 3553 2228 3743 1945 
Q 3934 1663 3934 1294 
Q 3934 928 3725 604 
Q 3516 281 3123 101 
Q 2731 -78 2241 -78 
Q 1619 -78 1198 103 
Q 778 284 539 648 
Q 300 1013 288 1472 
z
" id="ArialMT-53" transform="scale(0.015625)"/>
      <path d="M 203 1375 
L 203 1941 
L 1931 1941 
L 1931 1375 
L 203 1375 
z
" id="ArialMT-2d" transform="scale(0.015625)"/>
     </defs>
     <use xlink:href="#ArialMT-41"/>
     <use x="66.699219" xlink:href="#ArialMT-53"/>
     <use x="133.398438" xlink:href="#ArialMT-2d"/>
     <use x="166.699219" xlink:href="#ArialMT-31"/>
    </g>
   </g>
   <g id="line2d_19">
    <path d="M 356.825312 173.590656 
L 376.825312 173.590656 
" style="fill:none;stroke:#ff7f0e;stroke-linecap:round;stroke-width:1.5;"/>
   </g>
   <g id="line2d_20"/>
   <g id="text_17">
    <!-- AS-2 -->
    <g style="fill:#262626;" transform="translate(384.825312 177.090656)scale(0.1 -0.1)">
     <use xlink:href="#ArialMT-41"/>
     <use x="66.699219" xlink:href="#ArialMT-53"/>
     <use x="133.398438" xlink:href="#ArialMT-2d"/>
     <use x="166.699219" xlink:href="#ArialMT-32"/>
    </g>
   </g>
   <g id="line2d_21">
    <path d="M 356.825312 187.735969 
L 376.825312 187.735969 
" style="fill:none;stroke:#2ca02c;stroke-linecap:round;stroke-width:1.5;"/>
   </g>
   <g id="line2d_22"/>
   <g id="text_18">
    <!-- G1S-1 -->
    <g style="fill:#262626;" transform="translate(384.825312 191.235969)scale(0.1 -0.1)">
     <defs>
      <path d="M 2638 1797 
L 2638 2334 
L 4578 2338 
L 4578 638 
Q 4131 281 3656 101 
Q 3181 -78 2681 -78 
Q 2006 -78 1454 211 
Q 903 500 622 1047 
Q 341 1594 341 2269 
Q 341 2938 620 3517 
Q 900 4097 1425 4378 
Q 1950 4659 2634 4659 
Q 3131 4659 3532 4498 
Q 3934 4338 4162 4050 
Q 4391 3763 4509 3300 
L 3963 3150 
Q 3859 3500 3706 3700 
Q 3553 3900 3268 4020 
Q 2984 4141 2638 4141 
Q 2222 4141 1919 4014 
Q 1616 3888 1430 3681 
Q 1244 3475 1141 3228 
Q 966 2803 966 2306 
Q 966 1694 1177 1281 
Q 1388 869 1791 669 
Q 2194 469 2647 469 
Q 3041 469 3416 620 
Q 3791 772 3984 944 
L 3984 1797 
L 2638 1797 
z
" id="ArialMT-47" transform="scale(0.015625)"/>
     </defs>
     <use xlink:href="#ArialMT-47"/>
     <use x="77.783203" xlink:href="#ArialMT-31"/>
     <use x="133.398438" xlink:href="#ArialMT-53"/>
     <use x="200.097656" xlink:href="#ArialMT-2d"/>
     <use x="233.398438" xlink:href="#ArialMT-31"/>
    </g>
   </g>
   <g id="line2d_23">
    <path d="M 356.825312 201.881281 
L 376.825312 201.881281 
" style="fill:none;stroke:#d62728;stroke-linecap:round;stroke-width:1.5;"/>
   </g>
   <g id="line2d_24"/>
   <g id="text_19">
    <!-- G1S-2 -->
    <g style="fill:#262626;" transform="translate(384.825312 205.381281)scale(0.1 -0.1)">
     <use xlink:href="#ArialMT-47"/>
     <use x="77.783203" xlink:href="#ArialMT-31"/>
     <use x="133.398438" xlink:href="#ArialMT-53"/>
     <use x="200.097656" xlink:href="#ArialMT-2d"/>
     <use x="233.398438" xlink:href="#ArialMT-32"/>
    </g>
   </g>
  </g>
 </g>
 <defs>
  <clipPath id="pab2a7d4d21">
   <rect height="301.926625" width="293.5411" x="47.045313" y="7.2"/>
  </clipPath>
 </defs>
</svg>
