<?xml version="1.0" encoding="utf-8" standalone="no"?>
<!DOCTYPE svg PUBLIC "-//W3C//DTD SVG 1.1//EN"
  "http://www.w3.org/Graphics/SVG/1.1/DTD/svg11.dtd">
<svg height="708.370687pt" version="1.1" viewBox="0 0 816.72625 708.370687" width="816.72625pt" xmlns="http://www.w3.org/2000/svg" xmlns:xlink="http://www.w3.org/1999/xlink">
 <metadata>
  <rdf:RDF xmlns:cc="http://creativecommons.org/ns#" xmlns:dc="http://purl.org/dc/elements/1.1/" xmlns:rdf="http://www.w3.org/1999/02/22-rdf-syntax-ns#">
   <cc:Work>
    <dc:type rdf:resource="http://purl.org/dc/dcmitype/StillImage"/>
    <dc:date>2021-06-08T14:15:17.522154</dc:date>
    <dc:format>image/svg+xml</dc:format>
    <dc:creator>
     <cc:Agent>
      <dc:title>Matplotlib v3.4.1, https://matplotlib.org/</dc:title>
     </cc:Agent>
    </dc:creator>
   </cc:Work>
  </rdf:RDF>
 </metadata>
 <defs>
  <style type="text/css">*{stroke-linecap:butt;stroke-linejoin:round;}</style>
 </defs>
 <g id="figure_1">
  <g id="patch_1">
   <path d="M 0 708.370687 
L 816.72625 708.370687 
L 816.72625 0 
L 0 0 
z
" style="fill:#ffffff;"/>
  </g>
  <g id="axes_1">
   <g id="patch_2">
    <path d="M 52.60625 329.063 
L 369.2167 329.063 
L 369.2167 20.479687 
L 52.60625 20.479687 
z
" style="fill:#ffffff;"/>
   </g>
   <g id="matplotlib.axis_1">
    <g id="xtick_1">
     <g id="line2d_1">
      <path clip-path="url(#p85af1b2e4a)" d="M 95.276874 329.063 
L 95.276874 20.479687 
" style="fill:none;stroke:#cccccc;stroke-linecap:round;stroke-width:0.8;"/>
     </g>
    </g>
    <g id="xtick_2">
     <g id="line2d_2">
      <path clip-path="url(#p85af1b2e4a)" d="M 171.079151 329.063 
L 171.079151 20.479687 
" style="fill:none;stroke:#cccccc;stroke-linecap:round;stroke-width:0.8;"/>
     </g>
    </g>
    <g id="xtick_3">
     <g id="line2d_3">
      <path clip-path="url(#p85af1b2e4a)" d="M 246.881428 329.063 
L 246.881428 20.479687 
" style="fill:none;stroke:#cccccc;stroke-linecap:round;stroke-width:0.8;"/>
     </g>
    </g>
    <g id="xtick_4">
     <g id="line2d_4">
      <path clip-path="url(#p85af1b2e4a)" d="M 322.683706 329.063 
L 322.683706 20.479687 
" style="fill:none;stroke:#cccccc;stroke-linecap:round;stroke-width:0.8;"/>
     </g>
    </g>
   </g>
   <g id="matplotlib.axis_2">
    <g id="ytick_1">
     <g id="line2d_5">
      <path clip-path="url(#p85af1b2e4a)" d="M 52.60625 329.063 
L 369.2167 329.063 
" style="fill:none;stroke:#cccccc;stroke-linecap:round;stroke-width:0.8;"/>
     </g>
     <g id="text_1">
      <!-- 0.000 -->
      <g style="fill:#262626;" transform="translate(20.584375 332.641906)scale(0.1 -0.1)">
       <defs>
        <path d="M 266 2259 
Q 266 3072 433 3567 
Q 600 4063 929 4331 
Q 1259 4600 1759 4600 
Q 2128 4600 2406 4451 
Q 2684 4303 2865 4023 
Q 3047 3744 3150 3342 
Q 3253 2941 3253 2259 
Q 3253 1453 3087 958 
Q 2922 463 2592 192 
Q 2263 -78 1759 -78 
Q 1097 -78 719 397 
Q 266 969 266 2259 
z
M 844 2259 
Q 844 1131 1108 757 
Q 1372 384 1759 384 
Q 2147 384 2411 759 
Q 2675 1134 2675 2259 
Q 2675 3391 2411 3762 
Q 2147 4134 1753 4134 
Q 1366 4134 1134 3806 
Q 844 3388 844 2259 
z
" id="ArialMT-30" transform="scale(0.015625)"/>
        <path d="M 581 0 
L 581 641 
L 1222 641 
L 1222 0 
L 581 0 
z
" id="ArialMT-2e" transform="scale(0.015625)"/>
       </defs>
       <use xlink:href="#ArialMT-30"/>
       <use x="55.615234" xlink:href="#ArialMT-2e"/>
       <use x="83.398438" xlink:href="#ArialMT-30"/>
       <use x="139.013672" xlink:href="#ArialMT-30"/>
       <use x="194.628906" xlink:href="#ArialMT-30"/>
      </g>
     </g>
    </g>
    <g id="ytick_2">
     <g id="line2d_6">
      <path clip-path="url(#p85af1b2e4a)" d="M 52.60625 284.458185 
L 369.2167 284.458185 
" style="fill:none;stroke:#cccccc;stroke-linecap:round;stroke-width:0.8;"/>
     </g>
     <g id="text_2">
      <!-- 0.005 -->
      <g style="fill:#262626;" transform="translate(20.584375 288.037091)scale(0.1 -0.1)">
       <defs>
        <path d="M 266 1200 
L 856 1250 
Q 922 819 1161 601 
Q 1400 384 1738 384 
Q 2144 384 2425 690 
Q 2706 997 2706 1503 
Q 2706 1984 2436 2262 
Q 2166 2541 1728 2541 
Q 1456 2541 1237 2417 
Q 1019 2294 894 2097 
L 366 2166 
L 809 4519 
L 3088 4519 
L 3088 3981 
L 1259 3981 
L 1013 2750 
Q 1425 3038 1878 3038 
Q 2478 3038 2890 2622 
Q 3303 2206 3303 1553 
Q 3303 931 2941 478 
Q 2500 -78 1738 -78 
Q 1113 -78 717 272 
Q 322 622 266 1200 
z
" id="ArialMT-35" transform="scale(0.015625)"/>
       </defs>
       <use xlink:href="#ArialMT-30"/>
       <use x="55.615234" xlink:href="#ArialMT-2e"/>
       <use x="83.398438" xlink:href="#ArialMT-30"/>
       <use x="139.013672" xlink:href="#ArialMT-30"/>
       <use x="194.628906" xlink:href="#ArialMT-35"/>
      </g>
     </g>
    </g>
    <g id="ytick_3">
     <g id="line2d_7">
      <path clip-path="url(#p85af1b2e4a)" d="M 52.60625 239.853369 
L 369.2167 239.853369 
" style="fill:none;stroke:#cccccc;stroke-linecap:round;stroke-width:0.8;"/>
     </g>
     <g id="text_3">
      <!-- 0.010 -->
      <g style="fill:#262626;" transform="translate(20.584375 243.432275)scale(0.1 -0.1)">
       <defs>
        <path d="M 2384 0 
L 1822 0 
L 1822 3584 
Q 1619 3391 1289 3197 
Q 959 3003 697 2906 
L 697 3450 
Q 1169 3672 1522 3987 
Q 1875 4303 2022 4600 
L 2384 4600 
L 2384 0 
z
" id="ArialMT-31" transform="scale(0.015625)"/>
       </defs>
       <use xlink:href="#ArialMT-30"/>
       <use x="55.615234" xlink:href="#ArialMT-2e"/>
       <use x="83.398438" xlink:href="#ArialMT-30"/>
       <use x="139.013672" xlink:href="#ArialMT-31"/>
       <use x="194.628906" xlink:href="#ArialMT-30"/>
      </g>
     </g>
    </g>
    <g id="ytick_4">
     <g id="line2d_8">
      <path clip-path="url(#p85af1b2e4a)" d="M 52.60625 195.248554 
L 369.2167 195.248554 
" style="fill:none;stroke:#cccccc;stroke-linecap:round;stroke-width:0.8;"/>
     </g>
     <g id="text_4">
      <!-- 0.015 -->
      <g style="fill:#262626;" transform="translate(20.584375 198.82746)scale(0.1 -0.1)">
       <use xlink:href="#ArialMT-30"/>
       <use x="55.615234" xlink:href="#ArialMT-2e"/>
       <use x="83.398438" xlink:href="#ArialMT-30"/>
       <use x="139.013672" xlink:href="#ArialMT-31"/>
       <use x="194.628906" xlink:href="#ArialMT-35"/>
      </g>
     </g>
    </g>
    <g id="ytick_5">
     <g id="line2d_9">
      <path clip-path="url(#p85af1b2e4a)" d="M 52.60625 150.643738 
L 369.2167 150.643738 
" style="fill:none;stroke:#cccccc;stroke-linecap:round;stroke-width:0.8;"/>
     </g>
     <g id="text_5">
      <!-- 0.020 -->
      <g style="fill:#262626;" transform="translate(20.584375 154.222644)scale(0.1 -0.1)">
       <defs>
        <path d="M 3222 541 
L 3222 0 
L 194 0 
Q 188 203 259 391 
Q 375 700 629 1000 
Q 884 1300 1366 1694 
Q 2113 2306 2375 2664 
Q 2638 3022 2638 3341 
Q 2638 3675 2398 3904 
Q 2159 4134 1775 4134 
Q 1369 4134 1125 3890 
Q 881 3647 878 3216 
L 300 3275 
Q 359 3922 746 4261 
Q 1134 4600 1788 4600 
Q 2447 4600 2831 4234 
Q 3216 3869 3216 3328 
Q 3216 3053 3103 2787 
Q 2991 2522 2730 2228 
Q 2469 1934 1863 1422 
Q 1356 997 1212 845 
Q 1069 694 975 541 
L 3222 541 
z
" id="ArialMT-32" transform="scale(0.015625)"/>
       </defs>
       <use xlink:href="#ArialMT-30"/>
       <use x="55.615234" xlink:href="#ArialMT-2e"/>
       <use x="83.398438" xlink:href="#ArialMT-30"/>
       <use x="139.013672" xlink:href="#ArialMT-32"/>
       <use x="194.628906" xlink:href="#ArialMT-30"/>
      </g>
     </g>
    </g>
    <g id="ytick_6">
     <g id="line2d_10">
      <path clip-path="url(#p85af1b2e4a)" d="M 52.60625 106.038923 
L 369.2167 106.038923 
" style="fill:none;stroke:#cccccc;stroke-linecap:round;stroke-width:0.8;"/>
     </g>
     <g id="text_6">
      <!-- 0.025 -->
      <g style="fill:#262626;" transform="translate(20.584375 109.617829)scale(0.1 -0.1)">
       <use xlink:href="#ArialMT-30"/>
       <use x="55.615234" xlink:href="#ArialMT-2e"/>
       <use x="83.398438" xlink:href="#ArialMT-30"/>
       <use x="139.013672" xlink:href="#ArialMT-32"/>
       <use x="194.628906" xlink:href="#ArialMT-35"/>
      </g>
     </g>
    </g>
    <g id="ytick_7">
     <g id="line2d_11">
      <path clip-path="url(#p85af1b2e4a)" d="M 52.60625 61.434107 
L 369.2167 61.434107 
" style="fill:none;stroke:#cccccc;stroke-linecap:round;stroke-width:0.8;"/>
     </g>
     <g id="text_7">
      <!-- 0.030 -->
      <g style="fill:#262626;" transform="translate(20.584375 65.013013)scale(0.1 -0.1)">
       <defs>
        <path d="M 269 1209 
L 831 1284 
Q 928 806 1161 595 
Q 1394 384 1728 384 
Q 2125 384 2398 659 
Q 2672 934 2672 1341 
Q 2672 1728 2419 1979 
Q 2166 2231 1775 2231 
Q 1616 2231 1378 2169 
L 1441 2663 
Q 1497 2656 1531 2656 
Q 1891 2656 2178 2843 
Q 2466 3031 2466 3422 
Q 2466 3731 2256 3934 
Q 2047 4138 1716 4138 
Q 1388 4138 1169 3931 
Q 950 3725 888 3313 
L 325 3413 
Q 428 3978 793 4289 
Q 1159 4600 1703 4600 
Q 2078 4600 2393 4439 
Q 2709 4278 2876 4000 
Q 3044 3722 3044 3409 
Q 3044 3113 2884 2869 
Q 2725 2625 2413 2481 
Q 2819 2388 3044 2092 
Q 3269 1797 3269 1353 
Q 3269 753 2831 336 
Q 2394 -81 1725 -81 
Q 1122 -81 723 278 
Q 325 638 269 1209 
z
" id="ArialMT-33" transform="scale(0.015625)"/>
       </defs>
       <use xlink:href="#ArialMT-30"/>
       <use x="55.615234" xlink:href="#ArialMT-2e"/>
       <use x="83.398438" xlink:href="#ArialMT-30"/>
       <use x="139.013672" xlink:href="#ArialMT-33"/>
       <use x="194.628906" xlink:href="#ArialMT-30"/>
      </g>
     </g>
    </g>
    <g id="text_8">
     <!-- Density (a.u.) -->
     <g style="fill:#262626;" transform="translate(14.479687 204.501031)rotate(-90)scale(0.1 -0.1)">
      <defs>
       <path d="M 494 0 
L 494 4581 
L 2072 4581 
Q 2606 4581 2888 4516 
Q 3281 4425 3559 4188 
Q 3922 3881 4101 3404 
Q 4281 2928 4281 2316 
Q 4281 1794 4159 1391 
Q 4038 988 3847 723 
Q 3656 459 3429 307 
Q 3203 156 2883 78 
Q 2563 0 2147 0 
L 494 0 
z
M 1100 541 
L 2078 541 
Q 2531 541 2789 625 
Q 3047 709 3200 863 
Q 3416 1078 3536 1442 
Q 3656 1806 3656 2325 
Q 3656 3044 3420 3430 
Q 3184 3816 2847 3947 
Q 2603 4041 2063 4041 
L 1100 4041 
L 1100 541 
z
" id="ArialMT-44" transform="scale(0.015625)"/>
       <path d="M 2694 1069 
L 3275 997 
Q 3138 488 2766 206 
Q 2394 -75 1816 -75 
Q 1088 -75 661 373 
Q 234 822 234 1631 
Q 234 2469 665 2931 
Q 1097 3394 1784 3394 
Q 2450 3394 2872 2941 
Q 3294 2488 3294 1666 
Q 3294 1616 3291 1516 
L 816 1516 
Q 847 969 1125 678 
Q 1403 388 1819 388 
Q 2128 388 2347 550 
Q 2566 713 2694 1069 
z
M 847 1978 
L 2700 1978 
Q 2663 2397 2488 2606 
Q 2219 2931 1791 2931 
Q 1403 2931 1139 2672 
Q 875 2413 847 1978 
z
" id="ArialMT-65" transform="scale(0.015625)"/>
       <path d="M 422 0 
L 422 3319 
L 928 3319 
L 928 2847 
Q 1294 3394 1984 3394 
Q 2284 3394 2536 3286 
Q 2788 3178 2913 3003 
Q 3038 2828 3088 2588 
Q 3119 2431 3119 2041 
L 3119 0 
L 2556 0 
L 2556 2019 
Q 2556 2363 2490 2533 
Q 2425 2703 2258 2804 
Q 2091 2906 1866 2906 
Q 1506 2906 1245 2678 
Q 984 2450 984 1813 
L 984 0 
L 422 0 
z
" id="ArialMT-6e" transform="scale(0.015625)"/>
       <path d="M 197 991 
L 753 1078 
Q 800 744 1014 566 
Q 1228 388 1613 388 
Q 2000 388 2187 545 
Q 2375 703 2375 916 
Q 2375 1106 2209 1216 
Q 2094 1291 1634 1406 
Q 1016 1563 777 1677 
Q 538 1791 414 1992 
Q 291 2194 291 2438 
Q 291 2659 392 2848 
Q 494 3038 669 3163 
Q 800 3259 1026 3326 
Q 1253 3394 1513 3394 
Q 1903 3394 2198 3281 
Q 2494 3169 2634 2976 
Q 2775 2784 2828 2463 
L 2278 2388 
Q 2241 2644 2061 2787 
Q 1881 2931 1553 2931 
Q 1166 2931 1000 2803 
Q 834 2675 834 2503 
Q 834 2394 903 2306 
Q 972 2216 1119 2156 
Q 1203 2125 1616 2013 
Q 2213 1853 2448 1751 
Q 2684 1650 2818 1456 
Q 2953 1263 2953 975 
Q 2953 694 2789 445 
Q 2625 197 2315 61 
Q 2006 -75 1616 -75 
Q 969 -75 630 194 
Q 291 463 197 991 
z
" id="ArialMT-73" transform="scale(0.015625)"/>
       <path d="M 425 3934 
L 425 4581 
L 988 4581 
L 988 3934 
L 425 3934 
z
M 425 0 
L 425 3319 
L 988 3319 
L 988 0 
L 425 0 
z
" id="ArialMT-69" transform="scale(0.015625)"/>
       <path d="M 1650 503 
L 1731 6 
Q 1494 -44 1306 -44 
Q 1000 -44 831 53 
Q 663 150 594 308 
Q 525 466 525 972 
L 525 2881 
L 113 2881 
L 113 3319 
L 525 3319 
L 525 4141 
L 1084 4478 
L 1084 3319 
L 1650 3319 
L 1650 2881 
L 1084 2881 
L 1084 941 
Q 1084 700 1114 631 
Q 1144 563 1211 522 
Q 1278 481 1403 481 
Q 1497 481 1650 503 
z
" id="ArialMT-74" transform="scale(0.015625)"/>
       <path d="M 397 -1278 
L 334 -750 
Q 519 -800 656 -800 
Q 844 -800 956 -737 
Q 1069 -675 1141 -563 
Q 1194 -478 1313 -144 
Q 1328 -97 1363 -6 
L 103 3319 
L 709 3319 
L 1400 1397 
Q 1534 1031 1641 628 
Q 1738 1016 1872 1384 
L 2581 3319 
L 3144 3319 
L 1881 -56 
Q 1678 -603 1566 -809 
Q 1416 -1088 1222 -1217 
Q 1028 -1347 759 -1347 
Q 597 -1347 397 -1278 
z
" id="ArialMT-79" transform="scale(0.015625)"/>
       <path id="ArialMT-20" transform="scale(0.015625)"/>
       <path d="M 1497 -1347 
Q 1031 -759 709 28 
Q 388 816 388 1659 
Q 388 2403 628 3084 
Q 909 3875 1497 4659 
L 1900 4659 
Q 1522 4009 1400 3731 
Q 1209 3300 1100 2831 
Q 966 2247 966 1656 
Q 966 153 1900 -1347 
L 1497 -1347 
z
" id="ArialMT-28" transform="scale(0.015625)"/>
       <path d="M 2588 409 
Q 2275 144 1986 34 
Q 1697 -75 1366 -75 
Q 819 -75 525 192 
Q 231 459 231 875 
Q 231 1119 342 1320 
Q 453 1522 633 1644 
Q 813 1766 1038 1828 
Q 1203 1872 1538 1913 
Q 2219 1994 2541 2106 
Q 2544 2222 2544 2253 
Q 2544 2597 2384 2738 
Q 2169 2928 1744 2928 
Q 1347 2928 1158 2789 
Q 969 2650 878 2297 
L 328 2372 
Q 403 2725 575 2942 
Q 747 3159 1072 3276 
Q 1397 3394 1825 3394 
Q 2250 3394 2515 3294 
Q 2781 3194 2906 3042 
Q 3031 2891 3081 2659 
Q 3109 2516 3109 2141 
L 3109 1391 
Q 3109 606 3145 398 
Q 3181 191 3288 0 
L 2700 0 
Q 2613 175 2588 409 
z
M 2541 1666 
Q 2234 1541 1622 1453 
Q 1275 1403 1131 1340 
Q 988 1278 909 1158 
Q 831 1038 831 891 
Q 831 666 1001 516 
Q 1172 366 1500 366 
Q 1825 366 2078 508 
Q 2331 650 2450 897 
Q 2541 1088 2541 1459 
L 2541 1666 
z
" id="ArialMT-61" transform="scale(0.015625)"/>
       <path d="M 2597 0 
L 2597 488 
Q 2209 -75 1544 -75 
Q 1250 -75 995 37 
Q 741 150 617 320 
Q 494 491 444 738 
Q 409 903 409 1263 
L 409 3319 
L 972 3319 
L 972 1478 
Q 972 1038 1006 884 
Q 1059 663 1231 536 
Q 1403 409 1656 409 
Q 1909 409 2131 539 
Q 2353 669 2445 892 
Q 2538 1116 2538 1541 
L 2538 3319 
L 3100 3319 
L 3100 0 
L 2597 0 
z
" id="ArialMT-75" transform="scale(0.015625)"/>
       <path d="M 791 -1347 
L 388 -1347 
Q 1322 153 1322 1656 
Q 1322 2244 1188 2822 
Q 1081 3291 891 3722 
Q 769 4003 388 4659 
L 791 4659 
Q 1378 3875 1659 3084 
Q 1900 2403 1900 1659 
Q 1900 816 1576 28 
Q 1253 -759 791 -1347 
z
" id="ArialMT-29" transform="scale(0.015625)"/>
      </defs>
      <use xlink:href="#ArialMT-44"/>
      <use x="72.216797" xlink:href="#ArialMT-65"/>
      <use x="127.832031" xlink:href="#ArialMT-6e"/>
      <use x="183.447266" xlink:href="#ArialMT-73"/>
      <use x="233.447266" xlink:href="#ArialMT-69"/>
      <use x="255.664062" xlink:href="#ArialMT-74"/>
      <use x="283.447266" xlink:href="#ArialMT-79"/>
      <use x="333.447266" xlink:href="#ArialMT-20"/>
      <use x="361.230469" xlink:href="#ArialMT-28"/>
      <use x="394.53125" xlink:href="#ArialMT-61"/>
      <use x="450.146484" xlink:href="#ArialMT-2e"/>
      <use x="477.929688" xlink:href="#ArialMT-75"/>
      <use x="533.544922" xlink:href="#ArialMT-2e"/>
      <use x="561.328125" xlink:href="#ArialMT-29"/>
     </g>
    </g>
   </g>
   <g id="line2d_12">
    <path clip-path="url(#p85af1b2e4a)" d="M 70.390008 329.054502 
L 74.623178 328.884099 
L 80.267406 328.298192 
L 83.08952 328.546265 
L 85.911634 328.897367 
L 88.733748 329.037812 
L 98.611146 329.059323 
L 131.065455 328.858782 
L 133.887569 328.670152 
L 135.298626 328.362031 
L 136.709683 327.718994 
L 138.12074 326.544884 
L 139.531797 324.690303 
L 140.942854 322.140067 
L 142.353911 319.024238 
L 145.176024 311.720755 
L 146.587081 307.591841 
L 147.998138 303.039262 
L 149.409195 298.0109 
L 152.231309 286.708339 
L 155.053423 274.317379 
L 159.286594 254.636586 
L 163.519764 234.829174 
L 169.163992 210.498473 
L 170.575049 203.105824 
L 171.986106 194.720126 
L 174.80822 176.135351 
L 179.04139 146.751498 
L 181.863504 127.093032 
L 184.685618 109.264632 
L 187.507732 92.904919 
L 188.918789 85.720416 
L 190.329846 79.706707 
L 191.740903 74.794357 
L 197.38513 57.410637 
L 198.796187 53.82746 
L 200.207244 51.221698 
L 201.618301 49.457762 
L 203.029358 48.175869 
L 204.440415 47.177427 
L 205.851472 46.649331 
L 207.262529 47.019776 
L 208.673586 48.561362 
L 210.084643 51.068817 
L 211.495699 53.884259 
L 212.906756 56.273756 
L 214.317813 57.857131 
L 215.72887 58.737947 
L 217.139927 59.300517 
L 218.550984 59.988182 
L 219.962041 61.291231 
L 221.373098 63.800261 
L 222.784155 68.074456 
L 224.195212 74.343648 
L 225.606269 82.302496 
L 229.839439 108.709205 
L 234.07261 133.125624 
L 238.305781 158.558137 
L 239.716838 165.727373 
L 241.127895 172.082826 
L 245.361066 189.144167 
L 248.183179 200.737986 
L 251.005293 213.030742 
L 253.827407 226.039595 
L 256.649521 240.061997 
L 258.060578 247.860925 
L 260.882692 265.309002 
L 263.704805 282.843696 
L 266.526919 298.080647 
L 267.937976 304.835774 
L 269.349033 310.920901 
L 270.76009 316.075003 
L 272.171147 320.047069 
L 273.582204 322.76242 
L 274.993261 324.379146 
L 276.404318 325.218325 
L 277.815375 325.627472 
L 280.637488 326.024226 
L 282.048545 326.114659 
L 283.459602 326.082194 
L 286.281716 325.65307 
L 289.10383 325.235272 
L 291.925944 325.152738 
L 296.159115 325.098935 
L 298.981228 324.771492 
L 304.625456 323.580854 
L 307.44757 323.460455 
L 314.502854 323.460203 
L 317.324968 323.262585 
L 320.147082 322.825481 
L 325.79131 321.564557 
L 328.613424 321.367899 
L 330.024481 321.465003 
L 331.435537 321.772102 
L 332.846594 322.337992 
L 334.257651 323.157133 
L 339.901879 327.211746 
L 341.312936 327.927005 
L 342.723993 328.428765 
L 344.13505 328.742997 
L 346.957164 329.004664 
L 351.190334 329.061298 
L 351.190334 329.061298 
" style="fill:none;stroke:#d62728;stroke-linecap:round;stroke-width:1.5;"/>
   </g>
   <g id="line2d_13">
    <path clip-path="url(#p85af1b2e4a)" d="M 69.915983 329.038219 
L 72.744311 328.853114 
L 74.158475 328.589729 
L 75.572639 328.162482 
L 78.400966 327.099101 
L 79.81513 326.804888 
L 81.229294 326.85367 
L 82.643458 327.204725 
L 85.471786 328.1328 
L 86.88595 328.446713 
L 89.714277 328.753109 
L 93.956769 328.880228 
L 98.199261 328.697171 
L 102.441752 328.475566 
L 105.27008 328.597472 
L 110.926735 328.977777 
L 119.411719 329.021495 
L 126.482538 328.918973 
L 130.72503 328.65898 
L 132.139193 328.436424 
L 133.553357 328.006353 
L 134.967521 327.231149 
L 136.381685 326.00297 
L 137.795849 324.307503 
L 139.210013 322.231658 
L 142.03834 317.377928 
L 143.452504 314.659176 
L 144.866668 311.656719 
L 146.280832 308.244666 
L 147.694996 304.288183 
L 149.10916 299.694152 
L 150.523324 294.467191 
L 153.351651 282.643997 
L 157.594143 264.335215 
L 160.422471 253.53673 
L 163.250798 242.908656 
L 164.664962 236.895158 
L 166.079126 230.232586 
L 168.907454 215.419888 
L 171.735782 199.604148 
L 174.564109 182.689919 
L 180.220765 147.725766 
L 184.463256 123.74865 
L 187.291584 109.286379 
L 188.705748 103.025474 
L 194.362403 80.558482 
L 200.019059 55.018276 
L 201.433223 50.943224 
L 202.847387 48.948245 
L 204.261551 49.001182 
L 205.675714 50.653116 
L 209.918206 58.186466 
L 211.33237 59.54634 
L 212.746534 60.072384 
L 214.160698 60.190054 
L 215.574861 60.435254 
L 216.989025 61.151212 
L 218.403189 62.439631 
L 219.817353 64.39526 
L 221.231517 67.31902 
L 222.645681 71.625559 
L 224.059845 77.516188 
L 225.474009 84.733224 
L 228.302336 100.42329 
L 231.130664 114.60808 
L 233.958992 128.868605 
L 238.201483 152.019877 
L 241.029811 165.460476 
L 243.858139 178.948765 
L 249.514794 207.260594 
L 252.343122 219.649285 
L 255.17145 231.717592 
L 256.585614 238.888424 
L 257.999777 247.047534 
L 262.242269 273.323802 
L 263.656433 281.196871 
L 265.070597 288.34378 
L 267.898925 300.884892 
L 269.313088 306.42432 
L 270.727252 311.368766 
L 272.141416 315.52199 
L 273.55558 318.718011 
L 274.969744 320.918329 
L 276.383908 322.243116 
L 277.798072 322.927997 
L 279.212235 323.23831 
L 282.040563 323.486094 
L 284.868891 323.581166 
L 293.353874 323.235236 
L 294.768038 323.070338 
L 296.182202 322.727271 
L 297.596366 322.192194 
L 301.838857 320.235572 
L 303.253021 319.843596 
L 304.667185 319.672628 
L 307.495513 319.734092 
L 313.152168 320.026429 
L 317.39466 320.658502 
L 320.222988 320.788867 
L 323.051315 320.614633 
L 325.879643 320.07375 
L 327.293807 319.798694 
L 328.707971 319.724116 
L 330.122135 319.995652 
L 331.536299 320.658732 
L 332.950462 321.644563 
L 338.607118 326.349209 
L 340.021282 327.248677 
L 341.435446 327.936814 
L 342.849609 328.418901 
L 344.263773 328.7268 
L 347.092101 328.996564 
L 351.334593 329.060793 
L 351.334593 329.060793 
" style="fill:none;stroke:#2ca02c;stroke-linecap:round;stroke-width:1.5;"/>
   </g>
   <g id="line2d_14">
    <path clip-path="url(#p85af1b2e4a)" d="M 99.217541 329.062283 
L 118.14959 328.956865 
L 121.936 328.750714 
L 128.246683 328.134388 
L 130.770956 327.722012 
L 133.295229 326.983657 
L 134.557366 326.430928 
L 137.081639 324.983318 
L 140.868049 322.528316 
L 142.130185 321.551853 
L 143.392322 320.289086 
L 144.654458 318.589821 
L 145.916595 316.36403 
L 147.178731 313.639103 
L 150.965141 304.707543 
L 152.227278 302.288362 
L 154.751551 297.883289 
L 156.013688 295.171412 
L 157.275824 291.743171 
L 158.537961 287.558113 
L 161.062234 277.49045 
L 164.848644 260.516094 
L 167.372917 248.227761 
L 169.89719 234.32975 
L 172.421463 218.42067 
L 174.945736 200.183235 
L 177.470009 179.670017 
L 183.780692 126.028492 
L 185.042829 116.627448 
L 186.304966 108.07316 
L 188.829239 93.112803 
L 192.615648 73.430058 
L 195.139922 60.548564 
L 196.402058 54.696185 
L 197.664195 49.876564 
L 198.926331 46.418442 
L 200.188468 44.307125 
L 201.450605 43.199472 
L 205.237014 41.38055 
L 206.499151 40.640158 
L 207.761288 40.124092 
L 209.023424 40.155191 
L 210.285561 40.901142 
L 211.547697 42.276013 
L 214.07197 45.671416 
L 215.334107 47.066967 
L 216.596244 48.111141 
L 217.85838 48.999757 
L 219.120517 50.163379 
L 220.382653 52.168479 
L 221.64479 55.55791 
L 222.906927 60.657201 
L 224.169063 67.394456 
L 227.955473 90.804032 
L 229.217609 97.345041 
L 231.741883 109.019208 
L 233.004019 115.598994 
L 234.266156 123.21155 
L 236.790429 139.709695 
L 238.052566 147.065201 
L 239.314702 153.30231 
L 244.363248 175.123756 
L 249.411795 199.131566 
L 251.936068 209.540723 
L 254.460341 219.42036 
L 255.722478 225.133101 
L 256.984614 231.936397 
L 258.246751 239.948222 
L 263.295297 275.043708 
L 265.81957 289.083444 
L 268.343844 301.592539 
L 269.60598 307.270743 
L 270.868117 312.276218 
L 272.130253 316.400725 
L 273.39239 319.548647 
L 274.654526 321.761018 
L 275.916663 323.194138 
L 277.1788 324.064292 
L 278.440936 324.578133 
L 279.703073 324.880243 
L 280.965209 325.040713 
L 282.227346 325.077711 
L 283.489483 324.991068 
L 286.013756 324.496879 
L 288.538029 323.872964 
L 291.062302 323.567062 
L 294.848712 323.471249 
L 296.110848 323.256569 
L 297.372985 322.888281 
L 301.159395 321.410635 
L 302.421531 321.087736 
L 303.683668 320.947227 
L 306.207941 321.06294 
L 316.305034 321.900326 
L 317.56717 321.775292 
L 318.829307 321.489286 
L 323.877853 319.846526 
L 326.402126 319.44108 
L 327.664263 319.394865 
L 328.9264 319.48294 
L 330.188536 319.750433 
L 331.450673 320.239531 
L 332.712809 320.967789 
L 333.974946 321.915118 
L 339.023492 326.367278 
L 340.285629 327.222415 
L 341.547765 327.886304 
L 342.809902 328.365564 
L 344.072039 328.684313 
L 346.596312 328.981207 
L 350.382722 329.059716 
L 350.382722 329.059716 
" style="fill:none;stroke:#ff7f0e;stroke-linecap:round;stroke-width:1.5;"/>
   </g>
   <g id="line2d_15">
    <path clip-path="url(#p85af1b2e4a)" d="M 69.100539 329.052985 
L 73.35811 328.899664 
L 77.61568 328.352354 
L 80.45406 328.142663 
L 83.292441 328.358859 
L 87.550011 328.771036 
L 93.226772 328.884226 
L 104.580293 328.787009 
L 110.257053 328.814669 
L 115.933814 328.868725 
L 120.191384 328.681312 
L 125.868145 328.068781 
L 128.706525 327.659878 
L 130.125715 327.311551 
L 131.544905 326.721841 
L 132.964095 325.72209 
L 134.383286 324.113994 
L 135.802476 321.713223 
L 137.221666 318.403945 
L 138.640856 314.155219 
L 140.060046 308.945313 
L 141.479236 302.599282 
L 142.898426 294.633116 
L 144.317617 284.22654 
L 145.736807 270.378416 
L 147.155997 252.196748 
L 148.575187 229.229553 
L 149.994377 201.76964 
L 154.251948 110.910849 
L 155.671138 89.043429 
L 157.090328 78.033499 
L 158.509518 80.547659 
L 159.928708 96.882512 
L 161.347898 124.548298 
L 165.605469 225.168504 
L 167.024659 248.516891 
L 168.443849 262.128166 
L 169.863039 265.478302 
L 171.282229 259.318322 
L 172.701419 245.618247 
L 176.95899 189.548499 
L 178.37818 174.259816 
L 179.79737 162.079532 
L 181.21656 152.299991 
L 186.893321 119.025597 
L 188.312511 110.954743 
L 189.731701 103.876649 
L 191.150891 98.234015 
L 192.570081 94.070633 
L 193.989272 91.063005 
L 195.408462 88.727201 
L 202.504412 78.444597 
L 203.923603 76.688297 
L 205.342793 75.370478 
L 206.761983 74.739337 
L 208.181173 74.996923 
L 209.600363 76.210933 
L 211.019553 78.286798 
L 212.438743 81.012863 
L 215.277124 87.455391 
L 220.953884 101.074377 
L 222.373074 105.01857 
L 223.792265 109.539979 
L 225.211455 114.666589 
L 230.888215 137.14878 
L 233.726596 149.122497 
L 236.564976 163.083776 
L 239.403356 177.079524 
L 242.241736 189.224112 
L 245.080117 201.114909 
L 252.176067 233.110642 
L 255.014448 244.246477 
L 256.433638 250.445901 
L 257.852828 257.395258 
L 263.529588 287.212046 
L 266.367969 299.740159 
L 269.206349 310.639629 
L 270.625539 315.249705 
L 272.044729 319.039001 
L 273.463919 321.889407 
L 274.88311 323.817861 
L 276.3023 324.96574 
L 277.72149 325.544644 
L 279.14068 325.768264 
L 281.97906 325.724447 
L 284.817441 325.385677 
L 290.494201 324.601042 
L 296.170962 323.929481 
L 300.428532 323.111499 
L 303.266912 322.623869 
L 306.105293 322.452684 
L 308.943673 322.561442 
L 314.620434 322.956452 
L 317.458814 322.90414 
L 324.554765 322.383811 
L 327.393145 322.429242 
L 330.231525 322.710322 
L 331.650715 323.01901 
L 333.069905 323.495758 
L 334.489096 324.155792 
L 340.165856 327.460515 
L 341.585046 328.051924 
L 343.004236 328.475268 
L 344.423427 328.750344 
L 347.261807 328.997307 
L 351.519377 329.060322 
L 351.519377 329.060322 
" style="fill:none;stroke:#1f77b4;stroke-linecap:round;stroke-width:1.5;"/>
   </g>
   <g id="patch_3">
    <path d="M 52.60625 329.063 
L 52.60625 20.479687 
" style="fill:none;stroke:#cccccc;stroke-linecap:square;stroke-linejoin:miter;stroke-width:0.8;"/>
   </g>
   <g id="patch_4">
    <path d="M 52.60625 329.063 
L 369.2167 329.063 
" style="fill:none;stroke:#cccccc;stroke-linecap:square;stroke-linejoin:miter;stroke-width:0.8;"/>
   </g>
   <g id="text_9">
    <!-- group = AS | rep = 1 -->
    <g style="fill:#262626;" transform="translate(166.248975 14.479687)scale(0.1 -0.1)">
     <defs>
      <path d="M 319 -275 
L 866 -356 
Q 900 -609 1056 -725 
Q 1266 -881 1628 -881 
Q 2019 -881 2231 -725 
Q 2444 -569 2519 -288 
Q 2563 -116 2559 434 
Q 2191 0 1641 0 
Q 956 0 581 494 
Q 206 988 206 1678 
Q 206 2153 378 2554 
Q 550 2956 876 3175 
Q 1203 3394 1644 3394 
Q 2231 3394 2613 2919 
L 2613 3319 
L 3131 3319 
L 3131 450 
Q 3131 -325 2973 -648 
Q 2816 -972 2473 -1159 
Q 2131 -1347 1631 -1347 
Q 1038 -1347 672 -1080 
Q 306 -813 319 -275 
z
M 784 1719 
Q 784 1066 1043 766 
Q 1303 466 1694 466 
Q 2081 466 2343 764 
Q 2606 1063 2606 1700 
Q 2606 2309 2336 2618 
Q 2066 2928 1684 2928 
Q 1309 2928 1046 2623 
Q 784 2319 784 1719 
z
" id="ArialMT-67" transform="scale(0.015625)"/>
      <path d="M 416 0 
L 416 3319 
L 922 3319 
L 922 2816 
Q 1116 3169 1280 3281 
Q 1444 3394 1641 3394 
Q 1925 3394 2219 3213 
L 2025 2691 
Q 1819 2813 1613 2813 
Q 1428 2813 1281 2702 
Q 1134 2591 1072 2394 
Q 978 2094 978 1738 
L 978 0 
L 416 0 
z
" id="ArialMT-72" transform="scale(0.015625)"/>
      <path d="M 213 1659 
Q 213 2581 725 3025 
Q 1153 3394 1769 3394 
Q 2453 3394 2887 2945 
Q 3322 2497 3322 1706 
Q 3322 1066 3130 698 
Q 2938 331 2570 128 
Q 2203 -75 1769 -75 
Q 1072 -75 642 372 
Q 213 819 213 1659 
z
M 791 1659 
Q 791 1022 1069 705 
Q 1347 388 1769 388 
Q 2188 388 2466 706 
Q 2744 1025 2744 1678 
Q 2744 2294 2464 2611 
Q 2184 2928 1769 2928 
Q 1347 2928 1069 2612 
Q 791 2297 791 1659 
z
" id="ArialMT-6f" transform="scale(0.015625)"/>
      <path d="M 422 -1272 
L 422 3319 
L 934 3319 
L 934 2888 
Q 1116 3141 1344 3267 
Q 1572 3394 1897 3394 
Q 2322 3394 2647 3175 
Q 2972 2956 3137 2557 
Q 3303 2159 3303 1684 
Q 3303 1175 3120 767 
Q 2938 359 2589 142 
Q 2241 -75 1856 -75 
Q 1575 -75 1351 44 
Q 1128 163 984 344 
L 984 -1272 
L 422 -1272 
z
M 931 1641 
Q 931 1000 1190 694 
Q 1450 388 1819 388 
Q 2194 388 2461 705 
Q 2728 1022 2728 1688 
Q 2728 2322 2467 2637 
Q 2206 2953 1844 2953 
Q 1484 2953 1207 2617 
Q 931 2281 931 1641 
z
" id="ArialMT-70" transform="scale(0.015625)"/>
      <path d="M 3381 2694 
L 356 2694 
L 356 3219 
L 3381 3219 
L 3381 2694 
z
M 3381 1303 
L 356 1303 
L 356 1828 
L 3381 1828 
L 3381 1303 
z
" id="ArialMT-3d" transform="scale(0.015625)"/>
      <path d="M -9 0 
L 1750 4581 
L 2403 4581 
L 4278 0 
L 3588 0 
L 3053 1388 
L 1138 1388 
L 634 0 
L -9 0 
z
M 1313 1881 
L 2866 1881 
L 2388 3150 
Q 2169 3728 2063 4100 
Q 1975 3659 1816 3225 
L 1313 1881 
z
" id="ArialMT-41" transform="scale(0.015625)"/>
      <path d="M 288 1472 
L 859 1522 
Q 900 1178 1048 958 
Q 1197 738 1509 602 
Q 1822 466 2213 466 
Q 2559 466 2825 569 
Q 3091 672 3220 851 
Q 3350 1031 3350 1244 
Q 3350 1459 3225 1620 
Q 3100 1781 2813 1891 
Q 2628 1963 1997 2114 
Q 1366 2266 1113 2400 
Q 784 2572 623 2826 
Q 463 3081 463 3397 
Q 463 3744 659 4045 
Q 856 4347 1234 4503 
Q 1613 4659 2075 4659 
Q 2584 4659 2973 4495 
Q 3363 4331 3572 4012 
Q 3781 3694 3797 3291 
L 3216 3247 
Q 3169 3681 2898 3903 
Q 2628 4125 2100 4125 
Q 1550 4125 1298 3923 
Q 1047 3722 1047 3438 
Q 1047 3191 1225 3031 
Q 1400 2872 2139 2705 
Q 2878 2538 3153 2413 
Q 3553 2228 3743 1945 
Q 3934 1663 3934 1294 
Q 3934 928 3725 604 
Q 3516 281 3123 101 
Q 2731 -78 2241 -78 
Q 1619 -78 1198 103 
Q 778 284 539 648 
Q 300 1013 288 1472 
z
" id="ArialMT-53" transform="scale(0.015625)"/>
      <path d="M 588 -1347 
L 588 4659 
L 1078 4659 
L 1078 -1347 
L 588 -1347 
z
" id="ArialMT-7c" transform="scale(0.015625)"/>
     </defs>
     <use xlink:href="#ArialMT-67"/>
     <use x="55.615234" xlink:href="#ArialMT-72"/>
     <use x="88.916016" xlink:href="#ArialMT-6f"/>
     <use x="144.53125" xlink:href="#ArialMT-75"/>
     <use x="200.146484" xlink:href="#ArialMT-70"/>
     <use x="255.761719" xlink:href="#ArialMT-20"/>
     <use x="283.544922" xlink:href="#ArialMT-3d"/>
     <use x="341.943359" xlink:href="#ArialMT-20"/>
     <use x="364.226562" xlink:href="#ArialMT-41"/>
     <use x="430.925781" xlink:href="#ArialMT-53"/>
     <use x="497.625" xlink:href="#ArialMT-20"/>
     <use x="525.408203" xlink:href="#ArialMT-7c"/>
     <use x="551.384766" xlink:href="#ArialMT-20"/>
     <use x="579.167969" xlink:href="#ArialMT-72"/>
     <use x="612.46875" xlink:href="#ArialMT-65"/>
     <use x="668.083984" xlink:href="#ArialMT-70"/>
     <use x="723.699219" xlink:href="#ArialMT-20"/>
     <use x="751.482422" xlink:href="#ArialMT-3d"/>
     <use x="809.880859" xlink:href="#ArialMT-20"/>
     <use x="837.664062" xlink:href="#ArialMT-31"/>
    </g>
   </g>
  </g>
  <g id="axes_2">
   <g id="patch_5">
    <path d="M 380.0167 329.063 
L 696.62715 329.063 
L 696.62715 20.479687 
L 380.0167 20.479687 
z
" style="fill:#ffffff;"/>
   </g>
   <g id="matplotlib.axis_3">
    <g id="xtick_5">
     <g id="line2d_16">
      <path clip-path="url(#p42dcdea51d)" d="M 422.687324 329.063 
L 422.687324 20.479687 
" style="fill:none;stroke:#cccccc;stroke-linecap:round;stroke-width:0.8;"/>
     </g>
    </g>
    <g id="xtick_6">
     <g id="line2d_17">
      <path clip-path="url(#p42dcdea51d)" d="M 498.489601 329.063 
L 498.489601 20.479687 
" style="fill:none;stroke:#cccccc;stroke-linecap:round;stroke-width:0.8;"/>
     </g>
    </g>
    <g id="xtick_7">
     <g id="line2d_18">
      <path clip-path="url(#p42dcdea51d)" d="M 574.291878 329.063 
L 574.291878 20.479687 
" style="fill:none;stroke:#cccccc;stroke-linecap:round;stroke-width:0.8;"/>
     </g>
    </g>
    <g id="xtick_8">
     <g id="line2d_19">
      <path clip-path="url(#p42dcdea51d)" d="M 650.094156 329.063 
L 650.094156 20.479687 
" style="fill:none;stroke:#cccccc;stroke-linecap:round;stroke-width:0.8;"/>
     </g>
    </g>
   </g>
   <g id="matplotlib.axis_4">
    <g id="ytick_8">
     <g id="line2d_20">
      <path clip-path="url(#p42dcdea51d)" d="M 380.0167 329.063 
L 696.62715 329.063 
" style="fill:none;stroke:#cccccc;stroke-linecap:round;stroke-width:0.8;"/>
     </g>
    </g>
    <g id="ytick_9">
     <g id="line2d_21">
      <path clip-path="url(#p42dcdea51d)" d="M 380.0167 284.458185 
L 696.62715 284.458185 
" style="fill:none;stroke:#cccccc;stroke-linecap:round;stroke-width:0.8;"/>
     </g>
    </g>
    <g id="ytick_10">
     <g id="line2d_22">
      <path clip-path="url(#p42dcdea51d)" d="M 380.0167 239.853369 
L 696.62715 239.853369 
" style="fill:none;stroke:#cccccc;stroke-linecap:round;stroke-width:0.8;"/>
     </g>
    </g>
    <g id="ytick_11">
     <g id="line2d_23">
      <path clip-path="url(#p42dcdea51d)" d="M 380.0167 195.248554 
L 696.62715 195.248554 
" style="fill:none;stroke:#cccccc;stroke-linecap:round;stroke-width:0.8;"/>
     </g>
    </g>
    <g id="ytick_12">
     <g id="line2d_24">
      <path clip-path="url(#p42dcdea51d)" d="M 380.0167 150.643738 
L 696.62715 150.643738 
" style="fill:none;stroke:#cccccc;stroke-linecap:round;stroke-width:0.8;"/>
     </g>
    </g>
    <g id="ytick_13">
     <g id="line2d_25">
      <path clip-path="url(#p42dcdea51d)" d="M 380.0167 106.038923 
L 696.62715 106.038923 
" style="fill:none;stroke:#cccccc;stroke-linecap:round;stroke-width:0.8;"/>
     </g>
    </g>
    <g id="ytick_14">
     <g id="line2d_26">
      <path clip-path="url(#p42dcdea51d)" d="M 380.0167 61.434107 
L 696.62715 61.434107 
" style="fill:none;stroke:#cccccc;stroke-linecap:round;stroke-width:0.8;"/>
     </g>
    </g>
   </g>
   <g id="line2d_27">
    <path clip-path="url(#p42dcdea51d)" d="M 396.502792 329.057997 
L 402.19625 328.908208 
L 407.889709 328.613943 
L 412.159803 328.851828 
L 416.429897 329.036687 
L 424.970085 329.039513 
L 443.473826 328.954345 
L 453.437379 328.928215 
L 459.130837 328.622311 
L 460.554202 328.462889 
L 461.977567 328.182332 
L 463.400932 327.676788 
L 464.824296 326.811816 
L 466.247661 325.45324 
L 467.671026 323.51344 
L 469.09439 320.98927 
L 470.517755 317.9637 
L 473.364484 310.880141 
L 476.211214 302.744212 
L 479.057943 293.449882 
L 481.904672 283.204713 
L 486.174766 266.561636 
L 494.714954 232.458604 
L 497.561684 218.452832 
L 500.408413 202.862952 
L 508.948601 153.781829 
L 514.64206 121.452437 
L 516.065425 114.363384 
L 517.488789 108.15243 
L 518.912154 102.809048 
L 520.335519 98.141864 
L 521.758883 93.935866 
L 523.182248 90.106586 
L 524.605613 86.718779 
L 526.028977 83.865785 
L 527.452342 81.54869 
L 528.875707 79.690264 
L 530.299071 78.26006 
L 531.722436 77.354459 
L 533.145801 77.123979 
L 534.569165 77.610032 
L 535.99253 78.651064 
L 538.839259 81.199037 
L 540.262624 82.239507 
L 541.685989 83.004444 
L 543.109353 83.491676 
L 545.956083 83.996284 
L 547.379447 84.621505 
L 548.802812 86.216458 
L 550.226177 89.329449 
L 551.649541 94.211984 
L 553.072906 100.672586 
L 563.036459 153.596734 
L 565.883188 169.0852 
L 567.306553 176.245184 
L 568.729918 182.801152 
L 571.576647 194.448286 
L 580.116835 227.401844 
L 581.5402 233.474639 
L 582.963564 240.141056 
L 585.810294 255.194986 
L 588.657023 270.563516 
L 591.503752 284.161644 
L 594.350482 296.339915 
L 597.197211 307.434981 
L 598.620576 312.067852 
L 600.043941 315.7302 
L 601.467305 318.319749 
L 602.89067 319.939189 
L 604.314035 320.843034 
L 605.737399 321.324501 
L 608.584129 321.796018 
L 610.007493 321.895736 
L 611.430858 321.873557 
L 612.854223 321.711869 
L 615.700952 321.061535 
L 619.971046 319.95334 
L 622.817775 319.321667 
L 624.24114 318.879937 
L 627.087869 317.591685 
L 628.511234 316.907506 
L 629.934599 316.360571 
L 631.357963 316.01322 
L 634.204693 315.763656 
L 638.474787 315.511429 
L 641.321516 315.173696 
L 644.168246 314.626622 
L 651.285069 312.907057 
L 652.708434 312.861651 
L 654.131798 312.997557 
L 655.555163 313.327562 
L 656.978528 313.875418 
L 658.401892 314.682723 
L 659.825257 315.802866 
L 661.248622 317.275719 
L 662.671986 319.083556 
L 666.94208 325.024116 
L 668.365445 326.519408 
L 669.78881 327.594982 
L 671.212174 328.288274 
L 672.635539 328.690085 
L 675.482268 328.998428 
L 679.752362 329.060927 
L 679.752362 329.060927 
" style="fill:none;stroke:#d62728;stroke-linecap:round;stroke-width:1.5;"/>
   </g>
   <g id="line2d_28">
    <path clip-path="url(#p42dcdea51d)" d="M 395.889342 329.03841 
L 398.746512 328.893393 
L 400.175098 328.698077 
L 401.603683 328.375148 
L 407.318024 326.69179 
L 408.746609 326.687468 
L 410.175194 326.918763 
L 413.032365 327.621222 
L 414.46095 327.867712 
L 417.318121 328.011884 
L 424.461047 327.753701 
L 428.746802 327.519125 
L 431.603973 327.593968 
L 434.461143 327.963746 
L 438.746899 328.578417 
L 441.60407 328.766752 
L 445.889825 328.764603 
L 454.461337 328.393805 
L 457.318507 327.971393 
L 458.747092 327.55025 
L 460.175678 326.889526 
L 461.604263 325.918459 
L 463.032848 324.619788 
L 465.890019 321.397227 
L 470.175774 316.512414 
L 471.60436 314.567661 
L 473.032945 312.115269 
L 474.46153 309.04147 
L 475.890115 305.361779 
L 477.318701 301.181475 
L 480.175871 291.844795 
L 488.747383 261.96255 
L 491.604553 250.727858 
L 494.461723 237.791246 
L 501.60465 202.922444 
L 504.46182 187.527127 
L 507.318991 170.430446 
L 510.176161 153.133078 
L 511.604746 145.129564 
L 513.033332 137.779799 
L 515.890502 124.733245 
L 518.747673 112.741748 
L 521.604843 101.722302 
L 523.033428 96.965224 
L 524.462014 92.851713 
L 525.890599 89.377043 
L 527.319184 86.49569 
L 528.747769 84.181543 
L 530.176355 82.454359 
L 531.60494 81.349553 
L 533.033525 80.848444 
L 534.46211 80.827899 
L 537.319281 81.438098 
L 540.176451 82.199891 
L 543.033622 83.283011 
L 544.462207 83.965376 
L 545.890792 84.803469 
L 547.319377 86.069923 
L 548.747963 88.257631 
L 550.176548 91.919046 
L 551.605133 97.388258 
L 553.033718 104.549453 
L 557.319474 129.447373 
L 558.748059 136.751442 
L 561.60523 149.477966 
L 568.748156 179.132346 
L 583.034008 236.282332 
L 584.462594 242.98313 
L 587.319764 258.319134 
L 590.176935 274.188735 
L 591.60552 281.452292 
L 593.034105 288.024255 
L 594.46269 293.864718 
L 595.891276 298.983097 
L 597.319861 303.398778 
L 598.748446 307.128295 
L 600.177031 310.186844 
L 601.605617 312.595535 
L 603.034202 314.392703 
L 604.462787 315.644506 
L 605.891372 316.445522 
L 607.319958 316.904903 
L 608.748543 317.124053 
L 610.177128 317.177894 
L 613.034298 316.950014 
L 617.320054 316.382564 
L 621.60581 316.306205 
L 623.034395 315.992363 
L 624.46298 315.328223 
L 625.891566 314.337376 
L 628.748736 312.012563 
L 630.177321 311.058241 
L 631.605907 310.398198 
L 633.034492 310.044346 
L 634.463077 309.962182 
L 635.891662 310.1165 
L 637.320248 310.488662 
L 638.748833 311.05436 
L 641.606003 312.44112 
L 643.034589 312.995629 
L 644.463174 313.303044 
L 645.891759 313.3331 
L 647.320344 313.127139 
L 653.034685 311.629044 
L 654.46327 311.526451 
L 655.891856 311.698603 
L 657.320441 312.211256 
L 658.749026 313.112401 
L 660.177611 314.422887 
L 661.606197 316.120691 
L 664.463367 320.297056 
L 667.320538 324.408017 
L 668.749123 326.023451 
L 670.177708 327.234218 
L 671.606293 328.054825 
L 673.034879 328.556277 
L 674.463464 328.831823 
L 677.320634 329.027569 
L 680.177805 329.059469 
L 680.177805 329.059469 
" style="fill:none;stroke:#2ca02c;stroke-linecap:round;stroke-width:1.5;"/>
   </g>
   <g id="line2d_29">
    <path clip-path="url(#p42dcdea51d)" d="M 422.72952 329.060128 
L 427.902156 328.975664 
L 431.781634 328.668403 
L 438.247429 328.003456 
L 443.420066 327.598039 
L 446.006384 327.190459 
L 448.592702 326.435651 
L 449.885861 325.871919 
L 451.17902 325.163826 
L 452.47218 324.301409 
L 453.765339 323.273741 
L 455.058498 322.064472 
L 456.351657 320.650626 
L 457.644816 319.010231 
L 460.231134 315.116989 
L 461.524293 313.084251 
L 462.817453 311.305946 
L 464.110612 310.092075 
L 465.403771 309.696212 
L 466.69693 310.18972 
L 467.990089 311.384315 
L 469.283248 312.859804 
L 470.576407 314.099283 
L 471.869566 314.668498 
L 473.162726 314.349478 
L 474.455885 313.17105 
L 475.749044 311.340851 
L 478.335362 306.751444 
L 480.92168 301.791373 
L 482.214839 299.074099 
L 483.507999 296.029809 
L 484.801158 292.558201 
L 486.094317 288.613127 
L 487.387476 284.190458 
L 488.680635 279.2989 
L 489.973794 273.938677 
L 492.560112 261.809445 
L 495.146431 248.073344 
L 499.025908 225.773302 
L 506.784863 179.536141 
L 513.250658 138.967077 
L 517.130136 117.393344 
L 519.716454 103.463166 
L 521.009613 97.112963 
L 522.302772 91.590942 
L 523.595931 87.111866 
L 524.889091 83.720065 
L 526.18225 81.291159 
L 527.475409 79.597688 
L 528.768568 78.407799 
L 530.061727 77.567743 
L 531.354886 77.021805 
L 532.648045 76.760159 
L 533.941204 76.738809 
L 536.527523 76.91782 
L 539.113841 76.74388 
L 540.407 76.652687 
L 541.700159 76.756681 
L 542.993318 77.151956 
L 544.286477 77.867306 
L 545.579637 78.931464 
L 546.872796 80.455399 
L 548.165955 82.652748 
L 549.459114 85.768636 
L 550.752273 89.953472 
L 552.045432 95.153914 
L 558.511228 124.454833 
L 561.097546 135.402998 
L 562.390705 141.570206 
L 564.977023 155.342063 
L 568.856501 176.304913 
L 571.442819 188.932663 
L 575.322296 206.264094 
L 579.201774 222.528741 
L 583.081251 238.260294 
L 584.37441 244.100321 
L 586.960729 257.256583 
L 590.840206 277.975571 
L 593.426524 290.036245 
L 596.012842 300.380659 
L 597.306002 304.947402 
L 598.599161 309.024781 
L 599.89232 312.501082 
L 601.185479 315.283286 
L 602.478638 317.340968 
L 603.771797 318.725082 
L 605.064956 319.555506 
L 606.358115 319.985442 
L 607.651275 320.160676 
L 610.237593 320.145982 
L 614.11707 319.803069 
L 617.996548 319.21398 
L 620.582866 318.522082 
L 623.169184 317.399108 
L 628.341821 314.610074 
L 629.63498 314.163843 
L 630.928139 313.887703 
L 633.514457 313.717623 
L 637.393934 313.847596 
L 642.566571 314.203167 
L 643.85973 314.105755 
L 645.152889 313.850201 
L 647.739207 312.923871 
L 650.325526 311.902242 
L 651.618685 311.594093 
L 652.911844 311.52771 
L 654.205003 311.740944 
L 655.498162 312.235469 
L 656.791321 312.991006 
L 658.08448 313.985132 
L 659.37764 315.205093 
L 660.670799 316.642421 
L 663.257117 320.041129 
L 665.843435 323.581537 
L 667.136594 325.125509 
L 668.429753 326.402309 
L 669.722913 327.379389 
L 671.016072 328.06975 
L 672.309231 328.518999 
L 673.60239 328.787519 
L 676.188708 329.008005 
L 680.068186 329.060504 
L 680.068186 329.060504 
" style="fill:none;stroke:#ff7f0e;stroke-linecap:round;stroke-width:1.5;"/>
   </g>
   <g id="line2d_30">
    <path clip-path="url(#p42dcdea51d)" d="M 394.408084 329.052105 
L 398.747195 328.933487 
L 401.639935 328.66925 
L 405.979046 328.126521 
L 408.871787 328.072173 
L 413.210897 328.505777 
L 416.103638 328.727954 
L 420.442749 328.771239 
L 426.22823 328.578142 
L 432.013711 328.391247 
L 437.799192 328.283534 
L 440.691932 328.032491 
L 443.584673 327.596006 
L 446.477413 326.966178 
L 449.370154 326.052255 
L 450.816524 325.433614 
L 452.262895 324.662745 
L 453.709265 323.683865 
L 455.155635 322.401925 
L 456.602005 320.654177 
L 458.048376 318.174808 
L 459.494746 314.56362 
L 460.941116 309.281588 
L 462.387486 301.699582 
L 463.833857 291.207894 
L 465.280227 277.356352 
L 466.726597 259.965725 
L 468.172967 239.163098 
L 469.619338 215.3462 
L 472.512078 161.334414 
L 475.404819 105.436863 
L 476.851189 80.174108 
L 478.297559 58.912855 
L 479.743929 43.383692 
L 481.1903 35.174124 
L 482.63667 35.497123 
L 484.08304 44.912033 
L 485.52941 63.058587 
L 486.975781 88.51632 
L 489.868521 151.208947 
L 491.314892 182.36388 
L 492.761262 209.700519 
L 494.207632 231.307357 
L 495.654002 246.130575 
L 497.100373 253.929584 
L 498.546743 255.185973 
L 499.993113 250.99842 
L 501.439483 242.912057 
L 504.332224 221.6932 
L 505.778594 211.152485 
L 507.224964 201.536462 
L 508.671335 192.936097 
L 510.117705 185.217222 
L 511.564075 178.200783 
L 514.456816 165.776356 
L 517.349556 154.966827 
L 520.242297 145.288871 
L 521.688667 140.894316 
L 523.135037 136.938355 
L 524.581408 133.569507 
L 526.027778 130.904579 
L 527.474148 128.981997 
L 528.920518 127.748662 
L 530.366889 127.087121 
L 531.813259 126.868204 
L 533.259629 126.998396 
L 534.705999 127.433726 
L 536.15237 128.15556 
L 537.59874 129.132879 
L 540.49148 131.616803 
L 541.937851 133.052961 
L 543.384221 134.699212 
L 544.830591 136.729655 
L 546.276961 139.351216 
L 547.723332 142.716042 
L 549.169702 146.845186 
L 552.062442 156.714547 
L 554.955183 166.855451 
L 557.847924 175.952044 
L 560.740664 184.749133 
L 563.633405 194.389328 
L 575.204367 235.059707 
L 579.543477 249.637141 
L 583.882588 264.125988 
L 586.775329 275.026423 
L 591.11444 291.834943 
L 592.56081 296.879927 
L 594.00718 301.521057 
L 595.45355 305.765 
L 596.899921 309.611892 
L 598.346291 313.026667 
L 599.792661 315.944822 
L 601.239031 318.30352 
L 602.685402 320.076365 
L 604.131772 321.292466 
L 605.578142 322.032499 
L 607.024512 322.407062 
L 608.470883 322.529008 
L 611.363623 322.354545 
L 615.702734 321.643913 
L 620.041845 320.922493 
L 624.380955 320.219307 
L 631.612807 318.582885 
L 635.951918 318.103051 
L 648.96925 316.686548 
L 651.86199 316.157009 
L 653.308361 316.016533 
L 654.754731 316.043126 
L 656.201101 316.285002 
L 657.647471 316.775509 
L 659.093842 317.533963 
L 660.540212 318.56163 
L 661.986582 319.83185 
L 667.772063 325.648959 
L 669.218434 326.765725 
L 670.664804 327.619409 
L 672.111174 328.219207 
L 673.557544 328.605886 
L 676.450285 328.95752 
L 680.789396 329.056822 
L 682.235766 329.060991 
L 682.235766 329.060991 
" style="fill:none;stroke:#1f77b4;stroke-linecap:round;stroke-width:1.5;"/>
   </g>
   <g id="patch_6">
    <path d="M 380.0167 329.063 
L 380.0167 20.479687 
" style="fill:none;stroke:#cccccc;stroke-linecap:square;stroke-linejoin:miter;stroke-width:0.8;"/>
   </g>
   <g id="patch_7">
    <path d="M 380.0167 329.063 
L 696.62715 329.063 
" style="fill:none;stroke:#cccccc;stroke-linecap:square;stroke-linejoin:miter;stroke-width:0.8;"/>
   </g>
   <g id="text_10">
    <!-- group = AS | rep = 2 -->
    <g style="fill:#262626;" transform="translate(493.659425 14.479687)scale(0.1 -0.1)">
     <use xlink:href="#ArialMT-67"/>
     <use x="55.615234" xlink:href="#ArialMT-72"/>
     <use x="88.916016" xlink:href="#ArialMT-6f"/>
     <use x="144.53125" xlink:href="#ArialMT-75"/>
     <use x="200.146484" xlink:href="#ArialMT-70"/>
     <use x="255.761719" xlink:href="#ArialMT-20"/>
     <use x="283.544922" xlink:href="#ArialMT-3d"/>
     <use x="341.943359" xlink:href="#ArialMT-20"/>
     <use x="364.226562" xlink:href="#ArialMT-41"/>
     <use x="430.925781" xlink:href="#ArialMT-53"/>
     <use x="497.625" xlink:href="#ArialMT-20"/>
     <use x="525.408203" xlink:href="#ArialMT-7c"/>
     <use x="551.384766" xlink:href="#ArialMT-20"/>
     <use x="579.167969" xlink:href="#ArialMT-72"/>
     <use x="612.46875" xlink:href="#ArialMT-65"/>
     <use x="668.083984" xlink:href="#ArialMT-70"/>
     <use x="723.699219" xlink:href="#ArialMT-20"/>
     <use x="751.482422" xlink:href="#ArialMT-3d"/>
     <use x="809.880859" xlink:href="#ArialMT-20"/>
     <use x="837.664062" xlink:href="#ArialMT-32"/>
    </g>
   </g>
  </g>
  <g id="axes_3">
   <g id="patch_8">
    <path d="M 52.60625 668.486312 
L 369.2167 668.486312 
L 369.2167 359.903 
L 52.60625 359.903 
z
" style="fill:#ffffff;"/>
   </g>
   <g id="matplotlib.axis_5">
    <g id="xtick_9">
     <g id="line2d_31">
      <path clip-path="url(#p1744953d02)" d="M 95.276874 668.486312 
L 95.276874 359.903 
" style="fill:none;stroke:#cccccc;stroke-linecap:round;stroke-width:0.8;"/>
     </g>
     <g id="text_11">
      <!-- $\mathdefault{10^{1}}$ -->
      <g style="fill:#262626;" transform="translate(87.426874 685.798812)scale(0.1 -0.1)">
       <use transform="translate(0 0.99375)" xlink:href="#ArialMT-31"/>
       <use transform="translate(55.615234 0.99375)" xlink:href="#ArialMT-30"/>
       <use transform="translate(112.972813 70.6875)scale(0.7)" xlink:href="#ArialMT-31"/>
      </g>
     </g>
    </g>
    <g id="xtick_10">
     <g id="line2d_32">
      <path clip-path="url(#p1744953d02)" d="M 171.079151 668.486312 
L 171.079151 359.903 
" style="fill:none;stroke:#cccccc;stroke-linecap:round;stroke-width:0.8;"/>
     </g>
     <g id="text_12">
      <!-- $\mathdefault{10^{3}}$ -->
      <g style="fill:#262626;" transform="translate(163.229151 685.798812)scale(0.1 -0.1)">
       <use transform="translate(0 0.99375)" xlink:href="#ArialMT-31"/>
       <use transform="translate(55.615234 0.99375)" xlink:href="#ArialMT-30"/>
       <use transform="translate(112.972813 70.6875)scale(0.7)" xlink:href="#ArialMT-33"/>
      </g>
     </g>
    </g>
    <g id="xtick_11">
     <g id="line2d_33">
      <path clip-path="url(#p1744953d02)" d="M 246.881428 668.486312 
L 246.881428 359.903 
" style="fill:none;stroke:#cccccc;stroke-linecap:round;stroke-width:0.8;"/>
     </g>
     <g id="text_13">
      <!-- $\mathdefault{10^{5}}$ -->
      <g style="fill:#262626;" transform="translate(239.031428 685.698812)scale(0.1 -0.1)">
       <use transform="translate(0 0.879688)" xlink:href="#ArialMT-31"/>
       <use transform="translate(55.615234 0.879688)" xlink:href="#ArialMT-30"/>
       <use transform="translate(112.972813 70.573438)scale(0.7)" xlink:href="#ArialMT-35"/>
      </g>
     </g>
    </g>
    <g id="xtick_12">
     <g id="line2d_34">
      <path clip-path="url(#p1744953d02)" d="M 322.683706 668.486312 
L 322.683706 359.903 
" style="fill:none;stroke:#cccccc;stroke-linecap:round;stroke-width:0.8;"/>
     </g>
     <g id="text_14">
      <!-- $\mathdefault{10^{7}}$ -->
      <g style="fill:#262626;" transform="translate(314.833706 685.698812)scale(0.1 -0.1)">
       <defs>
        <path d="M 303 3981 
L 303 4522 
L 3269 4522 
L 3269 4084 
Q 2831 3619 2401 2847 
Q 1972 2075 1738 1259 
Q 1569 684 1522 0 
L 944 0 
Q 953 541 1156 1306 
Q 1359 2072 1739 2783 
Q 2119 3494 2547 3981 
L 303 3981 
z
" id="ArialMT-37" transform="scale(0.015625)"/>
       </defs>
       <use transform="translate(0 0.846875)" xlink:href="#ArialMT-31"/>
       <use transform="translate(55.615234 0.846875)" xlink:href="#ArialMT-30"/>
       <use transform="translate(112.972813 70.540625)scale(0.7)" xlink:href="#ArialMT-37"/>
      </g>
     </g>
    </g>
    <g id="text_15">
     <!-- Insert Size (bp) -->
     <g style="fill:#262626;" transform="translate(177.012256 699.066)scale(0.1 -0.1)">
      <defs>
       <path d="M 597 0 
L 597 4581 
L 1203 4581 
L 1203 0 
L 597 0 
z
" id="ArialMT-49" transform="scale(0.015625)"/>
       <path d="M 125 0 
L 125 456 
L 2238 2881 
Q 1878 2863 1603 2863 
L 250 2863 
L 250 3319 
L 2963 3319 
L 2963 2947 
L 1166 841 
L 819 456 
Q 1197 484 1528 484 
L 3063 484 
L 3063 0 
L 125 0 
z
" id="ArialMT-7a" transform="scale(0.015625)"/>
       <path d="M 941 0 
L 419 0 
L 419 4581 
L 981 4581 
L 981 2947 
Q 1338 3394 1891 3394 
Q 2197 3394 2470 3270 
Q 2744 3147 2920 2923 
Q 3097 2700 3197 2384 
Q 3297 2069 3297 1709 
Q 3297 856 2875 390 
Q 2453 -75 1863 -75 
Q 1275 -75 941 416 
L 941 0 
z
M 934 1684 
Q 934 1088 1097 822 
Q 1363 388 1816 388 
Q 2184 388 2453 708 
Q 2722 1028 2722 1663 
Q 2722 2313 2464 2622 
Q 2206 2931 1841 2931 
Q 1472 2931 1203 2611 
Q 934 2291 934 1684 
z
" id="ArialMT-62" transform="scale(0.015625)"/>
      </defs>
      <use xlink:href="#ArialMT-49"/>
      <use x="27.783203" xlink:href="#ArialMT-6e"/>
      <use x="83.398438" xlink:href="#ArialMT-73"/>
      <use x="133.398438" xlink:href="#ArialMT-65"/>
      <use x="189.013672" xlink:href="#ArialMT-72"/>
      <use x="222.314453" xlink:href="#ArialMT-74"/>
      <use x="250.097656" xlink:href="#ArialMT-20"/>
      <use x="277.880859" xlink:href="#ArialMT-53"/>
      <use x="344.580078" xlink:href="#ArialMT-69"/>
      <use x="366.796875" xlink:href="#ArialMT-7a"/>
      <use x="416.796875" xlink:href="#ArialMT-65"/>
      <use x="472.412109" xlink:href="#ArialMT-20"/>
      <use x="500.195312" xlink:href="#ArialMT-28"/>
      <use x="533.496094" xlink:href="#ArialMT-62"/>
      <use x="589.111328" xlink:href="#ArialMT-70"/>
      <use x="644.726562" xlink:href="#ArialMT-29"/>
     </g>
    </g>
   </g>
   <g id="matplotlib.axis_6">
    <g id="ytick_15">
     <g id="line2d_35">
      <path clip-path="url(#p1744953d02)" d="M 52.60625 668.486312 
L 369.2167 668.486312 
" style="fill:none;stroke:#cccccc;stroke-linecap:round;stroke-width:0.8;"/>
     </g>
     <g id="text_16">
      <!-- 0.00 -->
      <g style="fill:#262626;" transform="translate(26.145313 672.065219)scale(0.1 -0.1)">
       <use xlink:href="#ArialMT-30"/>
       <use x="55.615234" xlink:href="#ArialMT-2e"/>
       <use x="83.398438" xlink:href="#ArialMT-30"/>
       <use x="139.013672" xlink:href="#ArialMT-30"/>
      </g>
     </g>
    </g>
    <g id="ytick_16">
     <g id="line2d_36">
      <path clip-path="url(#p1744953d02)" d="M 52.60625 618.539718 
L 369.2167 618.539718 
" style="fill:none;stroke:#cccccc;stroke-linecap:round;stroke-width:0.8;"/>
     </g>
     <g id="text_17">
      <!-- 0.01 -->
      <g style="fill:#262626;" transform="translate(26.145313 622.118624)scale(0.1 -0.1)">
       <use xlink:href="#ArialMT-30"/>
       <use x="55.615234" xlink:href="#ArialMT-2e"/>
       <use x="83.398438" xlink:href="#ArialMT-30"/>
       <use x="139.013672" xlink:href="#ArialMT-31"/>
      </g>
     </g>
    </g>
    <g id="ytick_17">
     <g id="line2d_37">
      <path clip-path="url(#p1744953d02)" d="M 52.60625 568.593123 
L 369.2167 568.593123 
" style="fill:none;stroke:#cccccc;stroke-linecap:round;stroke-width:0.8;"/>
     </g>
     <g id="text_18">
      <!-- 0.02 -->
      <g style="fill:#262626;" transform="translate(26.145313 572.172029)scale(0.1 -0.1)">
       <use xlink:href="#ArialMT-30"/>
       <use x="55.615234" xlink:href="#ArialMT-2e"/>
       <use x="83.398438" xlink:href="#ArialMT-30"/>
       <use x="139.013672" xlink:href="#ArialMT-32"/>
      </g>
     </g>
    </g>
    <g id="ytick_18">
     <g id="line2d_38">
      <path clip-path="url(#p1744953d02)" d="M 52.60625 518.646528 
L 369.2167 518.646528 
" style="fill:none;stroke:#cccccc;stroke-linecap:round;stroke-width:0.8;"/>
     </g>
     <g id="text_19">
      <!-- 0.03 -->
      <g style="fill:#262626;" transform="translate(26.145313 522.225434)scale(0.1 -0.1)">
       <use xlink:href="#ArialMT-30"/>
       <use x="55.615234" xlink:href="#ArialMT-2e"/>
       <use x="83.398438" xlink:href="#ArialMT-30"/>
       <use x="139.013672" xlink:href="#ArialMT-33"/>
      </g>
     </g>
    </g>
    <g id="ytick_19">
     <g id="line2d_39">
      <path clip-path="url(#p1744953d02)" d="M 52.60625 468.699933 
L 369.2167 468.699933 
" style="fill:none;stroke:#cccccc;stroke-linecap:round;stroke-width:0.8;"/>
     </g>
     <g id="text_20">
      <!-- 0.04 -->
      <g style="fill:#262626;" transform="translate(26.145313 472.278839)scale(0.1 -0.1)">
       <defs>
        <path d="M 2069 0 
L 2069 1097 
L 81 1097 
L 81 1613 
L 2172 4581 
L 2631 4581 
L 2631 1613 
L 3250 1613 
L 3250 1097 
L 2631 1097 
L 2631 0 
L 2069 0 
z
M 2069 1613 
L 2069 3678 
L 634 1613 
L 2069 1613 
z
" id="ArialMT-34" transform="scale(0.015625)"/>
       </defs>
       <use xlink:href="#ArialMT-30"/>
       <use x="55.615234" xlink:href="#ArialMT-2e"/>
       <use x="83.398438" xlink:href="#ArialMT-30"/>
       <use x="139.013672" xlink:href="#ArialMT-34"/>
      </g>
     </g>
    </g>
    <g id="ytick_20">
     <g id="line2d_40">
      <path clip-path="url(#p1744953d02)" d="M 52.60625 418.753338 
L 369.2167 418.753338 
" style="fill:none;stroke:#cccccc;stroke-linecap:round;stroke-width:0.8;"/>
     </g>
     <g id="text_21">
      <!-- 0.05 -->
      <g style="fill:#262626;" transform="translate(26.145313 422.332244)scale(0.1 -0.1)">
       <use xlink:href="#ArialMT-30"/>
       <use x="55.615234" xlink:href="#ArialMT-2e"/>
       <use x="83.398438" xlink:href="#ArialMT-30"/>
       <use x="139.013672" xlink:href="#ArialMT-35"/>
      </g>
     </g>
    </g>
    <g id="ytick_21">
     <g id="line2d_41">
      <path clip-path="url(#p1744953d02)" d="M 52.60625 368.806743 
L 369.2167 368.806743 
" style="fill:none;stroke:#cccccc;stroke-linecap:round;stroke-width:0.8;"/>
     </g>
     <g id="text_22">
      <!-- 0.06 -->
      <g style="fill:#262626;" transform="translate(26.145313 372.38565)scale(0.1 -0.1)">
       <defs>
        <path d="M 3184 3459 
L 2625 3416 
Q 2550 3747 2413 3897 
Q 2184 4138 1850 4138 
Q 1581 4138 1378 3988 
Q 1113 3794 959 3422 
Q 806 3050 800 2363 
Q 1003 2672 1297 2822 
Q 1591 2972 1913 2972 
Q 2475 2972 2870 2558 
Q 3266 2144 3266 1488 
Q 3266 1056 3080 686 
Q 2894 316 2569 119 
Q 2244 -78 1831 -78 
Q 1128 -78 684 439 
Q 241 956 241 2144 
Q 241 3472 731 4075 
Q 1159 4600 1884 4600 
Q 2425 4600 2770 4297 
Q 3116 3994 3184 3459 
z
M 888 1484 
Q 888 1194 1011 928 
Q 1134 663 1356 523 
Q 1578 384 1822 384 
Q 2178 384 2434 671 
Q 2691 959 2691 1453 
Q 2691 1928 2437 2201 
Q 2184 2475 1800 2475 
Q 1419 2475 1153 2201 
Q 888 1928 888 1484 
z
" id="ArialMT-36" transform="scale(0.015625)"/>
       </defs>
       <use xlink:href="#ArialMT-30"/>
       <use x="55.615234" xlink:href="#ArialMT-2e"/>
       <use x="83.398438" xlink:href="#ArialMT-30"/>
       <use x="139.013672" xlink:href="#ArialMT-36"/>
      </g>
     </g>
    </g>
    <g id="text_23">
     <!-- Density (a.u.) -->
     <g style="fill:#262626;" transform="translate(20.040625 543.924344)rotate(-90)scale(0.1 -0.1)">
      <use xlink:href="#ArialMT-44"/>
      <use x="72.216797" xlink:href="#ArialMT-65"/>
      <use x="127.832031" xlink:href="#ArialMT-6e"/>
      <use x="183.447266" xlink:href="#ArialMT-73"/>
      <use x="233.447266" xlink:href="#ArialMT-69"/>
      <use x="255.664062" xlink:href="#ArialMT-74"/>
      <use x="283.447266" xlink:href="#ArialMT-79"/>
      <use x="333.447266" xlink:href="#ArialMT-20"/>
      <use x="361.230469" xlink:href="#ArialMT-28"/>
      <use x="394.53125" xlink:href="#ArialMT-61"/>
      <use x="450.146484" xlink:href="#ArialMT-2e"/>
      <use x="477.929688" xlink:href="#ArialMT-75"/>
      <use x="533.544922" xlink:href="#ArialMT-2e"/>
      <use x="561.328125" xlink:href="#ArialMT-29"/>
     </g>
    </g>
   </g>
   <g id="line2d_42">
    <path clip-path="url(#p1744953d02)" d="M 71.157385 668.485452 
L 133.936761 668.360278 
L 135.331859 668.13593 
L 136.726956 667.593266 
L 138.122053 666.495406 
L 139.51715 664.603743 
L 140.912248 661.780235 
L 142.307345 658.040229 
L 143.702442 653.513292 
L 146.492637 642.832659 
L 149.282831 631.771162 
L 150.677928 627.045834 
L 152.073026 623.307509 
L 153.468123 620.600339 
L 157.653415 614.543837 
L 159.048512 611.420243 
L 160.443609 607.246636 
L 161.838707 602.084588 
L 167.419096 578.84033 
L 170.20929 569.480095 
L 172.999485 560.323188 
L 175.789679 550.371734 
L 182.765165 523.452038 
L 185.55536 514.38234 
L 186.950457 510.45819 
L 188.345554 507.284738 
L 189.740652 504.910371 
L 196.716138 495.800261 
L 198.111235 495.112992 
L 199.506333 495.226409 
L 200.90143 495.665327 
L 202.296527 495.982488 
L 203.691624 496.140271 
L 205.086722 496.486399 
L 206.481819 497.390951 
L 207.876916 498.904487 
L 212.062208 504.633213 
L 213.457305 506.887041 
L 214.852402 509.676552 
L 216.2475 513.049356 
L 219.037694 520.837625 
L 221.827889 529.373649 
L 223.222986 534.448373 
L 224.618083 540.415588 
L 228.803375 560.142308 
L 230.198472 565.576062 
L 232.988667 575.544925 
L 234.383764 581.257186 
L 237.173959 593.80183 
L 238.569056 599.411418 
L 239.964153 604.221165 
L 242.754348 612.541288 
L 245.544542 620.133457 
L 246.939639 623.4599 
L 248.334737 626.392349 
L 251.124931 631.426567 
L 253.915126 635.979136 
L 256.70532 640.318541 
L 258.100417 642.674073 
L 260.890612 648.039565 
L 263.680806 653.381607 
L 266.471001 658.126766 
L 269.261195 662.572106 
L 270.656293 664.447382 
L 272.05139 665.887865 
L 273.446487 666.853444 
L 274.841584 667.413708 
L 276.236682 667.695594 
L 279.026876 667.874581 
L 283.212168 667.833505 
L 288.792557 667.78349 
L 292.977849 667.684019 
L 308.323919 667.09882 
L 313.904308 667.073658 
L 318.0896 667.199256 
L 320.879794 667.037604 
L 327.85528 666.34577 
L 330.645475 666.334242 
L 332.040572 666.502337 
L 334.830767 667.150987 
L 337.620961 667.8028 
L 340.411156 668.219525 
L 343.20135 668.418857 
L 348.781739 668.485667 
L 348.781739 668.485667 
" style="fill:none;stroke:#d62728;stroke-linecap:round;stroke-width:1.5;"/>
   </g>
   <g id="line2d_43">
    <path clip-path="url(#p1744953d02)" d="M 71.011715 668.484329 
L 76.622336 668.392838 
L 82.232958 668.265863 
L 100.467477 668.334956 
L 106.078099 668.296811 
L 114.494031 668.47978 
L 131.325895 668.327769 
L 132.72855 668.145303 
L 134.131206 667.730684 
L 135.533861 666.940691 
L 136.936516 665.683614 
L 138.339172 663.987392 
L 139.741827 661.964937 
L 141.144482 659.67884 
L 142.547138 657.042861 
L 143.949793 653.85848 
L 145.352448 649.93442 
L 146.755104 645.214781 
L 150.96307 629.686522 
L 152.365725 625.943648 
L 153.76838 623.285373 
L 156.573691 619.187885 
L 157.976347 616.631848 
L 159.379002 613.361585 
L 160.781657 609.337649 
L 162.184313 604.640111 
L 164.989623 594.057091 
L 172.0029 566.273577 
L 176.210866 551.523586 
L 180.418832 535.776717 
L 184.626798 522.14396 
L 187.432109 513.337219 
L 188.834764 509.248698 
L 190.23742 505.602729 
L 191.640075 502.65718 
L 193.04273 500.537559 
L 194.445386 499.058641 
L 197.250696 496.744637 
L 198.653352 495.757378 
L 200.056007 495.035315 
L 201.458662 494.612161 
L 202.861318 494.465133 
L 204.263973 494.659535 
L 205.666628 495.374199 
L 207.069284 496.771651 
L 208.471939 498.836303 
L 211.27725 503.790015 
L 212.679905 505.983522 
L 215.485216 510.052554 
L 216.887871 512.744068 
L 218.290527 516.123194 
L 221.095837 523.976097 
L 222.498493 528.308228 
L 223.901148 533.409808 
L 225.303803 539.670725 
L 229.511769 561.612276 
L 230.914425 567.798501 
L 237.927701 594.744742 
L 240.733012 604.842005 
L 243.538323 613.789637 
L 244.940978 617.807479 
L 246.343634 621.420842 
L 247.746289 624.598359 
L 249.148944 627.353739 
L 250.5516 629.726198 
L 251.954255 631.784284 
L 256.162221 637.413645 
L 257.564876 639.761721 
L 258.967532 642.587791 
L 263.175498 652.193717 
L 264.578153 654.986187 
L 267.383464 659.7633 
L 268.786119 661.832291 
L 270.188774 663.627063 
L 271.59143 665.063794 
L 272.994085 666.101086 
L 274.396741 666.765186 
L 275.799396 667.138588 
L 278.604707 667.415813 
L 282.812673 667.434949 
L 288.423294 667.083199 
L 292.63126 666.889754 
L 305.255158 666.700594 
L 309.463124 666.334218 
L 312.268435 666.398781 
L 317.879056 666.847033 
L 320.684367 666.780657 
L 327.697644 666.23123 
L 330.502954 666.326859 
L 333.308265 666.719656 
L 340.321542 668.115142 
L 343.126853 668.382526 
L 347.334819 668.480577 
L 350.140129 668.485915 
L 350.140129 668.485915 
" style="fill:none;stroke:#2ca02c;stroke-linecap:round;stroke-width:1.5;"/>
   </g>
   <g id="line2d_44">
    <path clip-path="url(#p1744953d02)" d="M 101.784093 668.486009 
L 120.431466 668.387532 
L 132.863047 668.05335 
L 135.349364 667.763077 
L 137.83568 667.245728 
L 140.321996 666.475379 
L 141.565154 665.911535 
L 142.808313 665.13918 
L 144.051471 664.120078 
L 145.294629 662.872344 
L 147.780945 659.931543 
L 150.267262 656.69639 
L 151.51042 654.932355 
L 152.753578 652.92662 
L 153.996736 650.52177 
L 155.239894 647.62473 
L 157.726211 640.648681 
L 160.212527 632.677662 
L 161.455685 628.071309 
L 163.942001 617.3629 
L 170.157792 588.869875 
L 172.644109 575.841151 
L 177.616741 548.919184 
L 178.859899 543.224553 
L 186.318848 512.559816 
L 187.562007 508.216111 
L 190.048323 500.645389 
L 192.534639 494.102442 
L 193.777797 491.313291 
L 195.020956 488.859185 
L 196.264114 486.780754 
L 197.507272 485.268201 
L 198.75043 484.576286 
L 199.993588 484.748141 
L 202.479905 486.059461 
L 203.723063 486.247433 
L 206.209379 485.822553 
L 207.452537 485.827054 
L 208.695695 486.121567 
L 209.938854 486.70485 
L 211.182012 487.753436 
L 212.42517 489.610984 
L 213.668328 492.518423 
L 214.911486 496.349526 
L 217.397803 504.768814 
L 219.884119 511.929075 
L 221.127277 515.359477 
L 222.370435 519.195815 
L 223.613593 523.733063 
L 224.856752 529.049465 
L 228.586226 546.430228 
L 229.829384 551.270677 
L 232.315701 560.140183 
L 233.558859 565.40773 
L 236.045175 578.331349 
L 237.288333 584.786943 
L 238.531491 590.372272 
L 239.774649 594.971991 
L 245.99044 614.572823 
L 247.233598 618.290076 
L 248.476757 621.646189 
L 249.719915 624.582118 
L 250.963073 627.071588 
L 252.206231 629.156048 
L 255.935706 634.757166 
L 257.178864 637.008 
L 259.66518 642.303296 
L 262.151496 647.844498 
L 264.637813 652.856595 
L 268.367287 659.818942 
L 269.610445 661.888238 
L 270.853604 663.674732 
L 272.096762 665.101683 
L 273.33992 666.140697 
L 274.583078 666.818235 
L 275.826236 667.203356 
L 277.069394 667.38232 
L 279.555711 667.42568 
L 284.528343 667.408779 
L 288.257818 667.396247 
L 291.987292 667.177612 
L 296.959925 666.87824 
L 300.6894 667.026219 
L 303.175716 667.107692 
L 305.662032 666.959875 
L 309.391507 666.626555 
L 311.877823 666.670543 
L 318.093614 667.051426 
L 321.823088 666.822415 
L 329.282037 666.16672 
L 331.768354 666.426664 
L 340.470461 668.093824 
L 344.199935 668.41432 
L 349.172568 668.485388 
L 349.172568 668.485388 
" style="fill:none;stroke:#ff7f0e;stroke-linecap:round;stroke-width:1.5;"/>
   </g>
   <g id="line2d_45">
    <path clip-path="url(#p1744953d02)" d="M 70.576438 668.484965 
L 129.465505 668.240501 
L 130.867625 668.147429 
L 132.269746 667.940983 
L 133.671867 667.509375 
L 135.073987 666.702101 
L 136.476108 665.384353 
L 137.878229 663.48214 
L 139.280349 660.897161 
L 140.68247 657.239668 
L 142.08459 651.546454 
L 143.486711 642.301763 
L 144.888832 627.983044 
L 146.290952 608.079381 
L 149.095194 560.492076 
L 150.497314 542.831804 
L 151.899435 536.455393 
L 153.301556 543.461251 
L 154.703676 561.647853 
L 157.507917 609.212856 
L 158.910038 628.19583 
L 160.312159 640.956093 
L 161.714279 648.145607 
L 163.1164 651.444442 
L 164.518521 652.451354 
L 165.920641 651.992617 
L 167.322762 649.815415 
L 168.724883 644.683247 
L 170.127003 635.05689 
L 171.529124 620.292777 
L 175.735486 564.307499 
L 177.137606 550.55979 
L 178.539727 540.70954 
L 179.941848 533.676619 
L 181.343968 528.168736 
L 185.55033 513.578239 
L 186.952451 509.131352 
L 188.354571 505.322856 
L 189.756692 502.275581 
L 191.158813 499.899316 
L 192.560933 497.998576 
L 193.963054 496.405633 
L 195.365175 495.070598 
L 196.767295 494.085123 
L 198.169416 493.59811 
L 199.571537 493.649755 
L 200.973657 494.089147 
L 203.777899 495.370913 
L 205.180019 496.160162 
L 207.98426 498.138861 
L 209.386381 499.266544 
L 210.788502 500.649039 
L 212.190622 502.557571 
L 213.592743 505.161329 
L 214.994864 508.427313 
L 217.799105 516.248202 
L 220.603346 524.702665 
L 222.005467 529.185407 
L 223.407587 534.213456 
L 224.809708 540.07918 
L 227.613949 553.970567 
L 230.418191 567.901421 
L 233.222432 580.09837 
L 236.026673 591.166306 
L 238.830914 600.862251 
L 241.635156 609.329863 
L 244.439397 617.218234 
L 247.243638 624.208532 
L 248.645759 627.202579 
L 250.04788 629.754274 
L 251.45 631.830113 
L 255.656362 636.924584 
L 257.058483 639.178726 
L 258.460603 641.961279 
L 262.666965 651.388314 
L 264.069086 654.044519 
L 266.873327 658.507982 
L 269.677568 662.546428 
L 271.079689 664.319807 
L 272.48181 665.751247 
L 273.88393 666.770443 
L 275.286051 667.405509 
L 276.688172 667.751437 
L 279.492413 667.978524 
L 285.100895 667.910693 
L 294.91574 667.591122 
L 301.926343 667.014559 
L 304.730584 666.970098 
L 311.741188 666.621239 
L 321.556032 666.808691 
L 324.360273 666.458706 
L 327.164515 666.078507 
L 328.566635 666.038055 
L 329.968756 666.138491 
L 332.772997 666.661538 
L 338.38148 667.990216 
L 341.185721 668.337365 
L 345.392083 668.474559 
L 349.598445 668.485978 
L 349.598445 668.485978 
" style="fill:none;stroke:#1f77b4;stroke-linecap:round;stroke-width:1.5;"/>
   </g>
   <g id="patch_9">
    <path d="M 52.60625 668.486312 
L 52.60625 359.903 
" style="fill:none;stroke:#cccccc;stroke-linecap:square;stroke-linejoin:miter;stroke-width:0.8;"/>
   </g>
   <g id="patch_10">
    <path d="M 52.60625 668.486312 
L 369.2167 668.486312 
" style="fill:none;stroke:#cccccc;stroke-linecap:square;stroke-linejoin:miter;stroke-width:0.8;"/>
   </g>
   <g id="text_24">
    <!-- group = G1S | rep = 1 -->
    <g style="fill:#262626;" transform="translate(162.6396 353.903)scale(0.1 -0.1)">
     <defs>
      <path d="M 2638 1797 
L 2638 2334 
L 4578 2338 
L 4578 638 
Q 4131 281 3656 101 
Q 3181 -78 2681 -78 
Q 2006 -78 1454 211 
Q 903 500 622 1047 
Q 341 1594 341 2269 
Q 341 2938 620 3517 
Q 900 4097 1425 4378 
Q 1950 4659 2634 4659 
Q 3131 4659 3532 4498 
Q 3934 4338 4162 4050 
Q 4391 3763 4509 3300 
L 3963 3150 
Q 3859 3500 3706 3700 
Q 3553 3900 3268 4020 
Q 2984 4141 2638 4141 
Q 2222 4141 1919 4014 
Q 1616 3888 1430 3681 
Q 1244 3475 1141 3228 
Q 966 2803 966 2306 
Q 966 1694 1177 1281 
Q 1388 869 1791 669 
Q 2194 469 2647 469 
Q 3041 469 3416 620 
Q 3791 772 3984 944 
L 3984 1797 
L 2638 1797 
z
" id="ArialMT-47" transform="scale(0.015625)"/>
     </defs>
     <use xlink:href="#ArialMT-67"/>
     <use x="55.615234" xlink:href="#ArialMT-72"/>
     <use x="88.916016" xlink:href="#ArialMT-6f"/>
     <use x="144.53125" xlink:href="#ArialMT-75"/>
     <use x="200.146484" xlink:href="#ArialMT-70"/>
     <use x="255.761719" xlink:href="#ArialMT-20"/>
     <use x="283.544922" xlink:href="#ArialMT-3d"/>
     <use x="341.943359" xlink:href="#ArialMT-20"/>
     <use x="369.726562" xlink:href="#ArialMT-47"/>
     <use x="447.509766" xlink:href="#ArialMT-31"/>
     <use x="503.125" xlink:href="#ArialMT-53"/>
     <use x="569.824219" xlink:href="#ArialMT-20"/>
     <use x="597.607422" xlink:href="#ArialMT-7c"/>
     <use x="623.583984" xlink:href="#ArialMT-20"/>
     <use x="651.367188" xlink:href="#ArialMT-72"/>
     <use x="684.667969" xlink:href="#ArialMT-65"/>
     <use x="740.283203" xlink:href="#ArialMT-70"/>
     <use x="795.898438" xlink:href="#ArialMT-20"/>
     <use x="823.681641" xlink:href="#ArialMT-3d"/>
     <use x="882.080078" xlink:href="#ArialMT-20"/>
     <use x="909.863281" xlink:href="#ArialMT-31"/>
    </g>
   </g>
  </g>
  <g id="axes_4">
   <g id="patch_11">
    <path d="M 380.0167 668.486312 
L 696.62715 668.486312 
L 696.62715 359.903 
L 380.0167 359.903 
z
" style="fill:#ffffff;"/>
   </g>
   <g id="matplotlib.axis_7">
    <g id="xtick_13">
     <g id="line2d_46">
      <path clip-path="url(#pf0c5b90aa7)" d="M 422.687324 668.486312 
L 422.687324 359.903 
" style="fill:none;stroke:#cccccc;stroke-linecap:round;stroke-width:0.8;"/>
     </g>
     <g id="text_25">
      <!-- $\mathdefault{10^{1}}$ -->
      <g style="fill:#262626;" transform="translate(414.837324 685.798812)scale(0.1 -0.1)">
       <use transform="translate(0 0.99375)" xlink:href="#ArialMT-31"/>
       <use transform="translate(55.615234 0.99375)" xlink:href="#ArialMT-30"/>
       <use transform="translate(112.972813 70.6875)scale(0.7)" xlink:href="#ArialMT-31"/>
      </g>
     </g>
    </g>
    <g id="xtick_14">
     <g id="line2d_47">
      <path clip-path="url(#pf0c5b90aa7)" d="M 498.489601 668.486312 
L 498.489601 359.903 
" style="fill:none;stroke:#cccccc;stroke-linecap:round;stroke-width:0.8;"/>
     </g>
     <g id="text_26">
      <!-- $\mathdefault{10^{3}}$ -->
      <g style="fill:#262626;" transform="translate(490.639601 685.798812)scale(0.1 -0.1)">
       <use transform="translate(0 0.99375)" xlink:href="#ArialMT-31"/>
       <use transform="translate(55.615234 0.99375)" xlink:href="#ArialMT-30"/>
       <use transform="translate(112.972813 70.6875)scale(0.7)" xlink:href="#ArialMT-33"/>
      </g>
     </g>
    </g>
    <g id="xtick_15">
     <g id="line2d_48">
      <path clip-path="url(#pf0c5b90aa7)" d="M 574.291878 668.486312 
L 574.291878 359.903 
" style="fill:none;stroke:#cccccc;stroke-linecap:round;stroke-width:0.8;"/>
     </g>
     <g id="text_27">
      <!-- $\mathdefault{10^{5}}$ -->
      <g style="fill:#262626;" transform="translate(566.441878 685.698812)scale(0.1 -0.1)">
       <use transform="translate(0 0.879688)" xlink:href="#ArialMT-31"/>
       <use transform="translate(55.615234 0.879688)" xlink:href="#ArialMT-30"/>
       <use transform="translate(112.972813 70.573438)scale(0.7)" xlink:href="#ArialMT-35"/>
      </g>
     </g>
    </g>
    <g id="xtick_16">
     <g id="line2d_49">
      <path clip-path="url(#pf0c5b90aa7)" d="M 650.094156 668.486312 
L 650.094156 359.903 
" style="fill:none;stroke:#cccccc;stroke-linecap:round;stroke-width:0.8;"/>
     </g>
     <g id="text_28">
      <!-- $\mathdefault{10^{7}}$ -->
      <g style="fill:#262626;" transform="translate(642.244156 685.698812)scale(0.1 -0.1)">
       <use transform="translate(0 0.846875)" xlink:href="#ArialMT-31"/>
       <use transform="translate(55.615234 0.846875)" xlink:href="#ArialMT-30"/>
       <use transform="translate(112.972813 70.540625)scale(0.7)" xlink:href="#ArialMT-37"/>
      </g>
     </g>
    </g>
    <g id="text_29">
     <!-- Insert Size (bp) -->
     <g style="fill:#262626;" transform="translate(504.422706 699.066)scale(0.1 -0.1)">
      <use xlink:href="#ArialMT-49"/>
      <use x="27.783203" xlink:href="#ArialMT-6e"/>
      <use x="83.398438" xlink:href="#ArialMT-73"/>
      <use x="133.398438" xlink:href="#ArialMT-65"/>
      <use x="189.013672" xlink:href="#ArialMT-72"/>
      <use x="222.314453" xlink:href="#ArialMT-74"/>
      <use x="250.097656" xlink:href="#ArialMT-20"/>
      <use x="277.880859" xlink:href="#ArialMT-53"/>
      <use x="344.580078" xlink:href="#ArialMT-69"/>
      <use x="366.796875" xlink:href="#ArialMT-7a"/>
      <use x="416.796875" xlink:href="#ArialMT-65"/>
      <use x="472.412109" xlink:href="#ArialMT-20"/>
      <use x="500.195312" xlink:href="#ArialMT-28"/>
      <use x="533.496094" xlink:href="#ArialMT-62"/>
      <use x="589.111328" xlink:href="#ArialMT-70"/>
      <use x="644.726562" xlink:href="#ArialMT-29"/>
     </g>
    </g>
   </g>
   <g id="matplotlib.axis_8">
    <g id="ytick_22">
     <g id="line2d_50">
      <path clip-path="url(#pf0c5b90aa7)" d="M 380.0167 668.486312 
L 696.62715 668.486312 
" style="fill:none;stroke:#cccccc;stroke-linecap:round;stroke-width:0.8;"/>
     </g>
    </g>
    <g id="ytick_23">
     <g id="line2d_51">
      <path clip-path="url(#pf0c5b90aa7)" d="M 380.0167 618.539718 
L 696.62715 618.539718 
" style="fill:none;stroke:#cccccc;stroke-linecap:round;stroke-width:0.8;"/>
     </g>
    </g>
    <g id="ytick_24">
     <g id="line2d_52">
      <path clip-path="url(#pf0c5b90aa7)" d="M 380.0167 568.593123 
L 696.62715 568.593123 
" style="fill:none;stroke:#cccccc;stroke-linecap:round;stroke-width:0.8;"/>
     </g>
    </g>
    <g id="ytick_25">
     <g id="line2d_53">
      <path clip-path="url(#pf0c5b90aa7)" d="M 380.0167 518.646528 
L 696.62715 518.646528 
" style="fill:none;stroke:#cccccc;stroke-linecap:round;stroke-width:0.8;"/>
     </g>
    </g>
    <g id="ytick_26">
     <g id="line2d_54">
      <path clip-path="url(#pf0c5b90aa7)" d="M 380.0167 468.699933 
L 696.62715 468.699933 
" style="fill:none;stroke:#cccccc;stroke-linecap:round;stroke-width:0.8;"/>
     </g>
    </g>
    <g id="ytick_27">
     <g id="line2d_55">
      <path clip-path="url(#pf0c5b90aa7)" d="M 380.0167 418.753338 
L 696.62715 418.753338 
" style="fill:none;stroke:#cccccc;stroke-linecap:round;stroke-width:0.8;"/>
     </g>
    </g>
    <g id="ytick_28">
     <g id="line2d_56">
      <path clip-path="url(#pf0c5b90aa7)" d="M 380.0167 368.806743 
L 696.62715 368.806743 
" style="fill:none;stroke:#cccccc;stroke-linecap:round;stroke-width:0.8;"/>
     </g>
    </g>
   </g>
   <g id="line2d_57">
    <path clip-path="url(#pf0c5b90aa7)" d="M 417.552627 668.486038 
L 459.083551 668.368763 
L 461.679234 668.12751 
L 462.977075 667.786286 
L 464.274917 667.101525 
L 465.572758 665.856658 
L 466.8706 663.844974 
L 468.168441 660.962042 
L 469.466282 657.267005 
L 472.061965 648.288327 
L 475.955489 634.195071 
L 477.253331 630.155171 
L 478.551172 626.762062 
L 479.849013 624.031196 
L 483.742537 617.261202 
L 485.040379 614.372876 
L 486.33822 610.853044 
L 487.636062 606.711174 
L 490.231744 597.010915 
L 494.125268 581.891415 
L 496.720951 572.980591 
L 501.912317 556.091585 
L 504.507999 547.800435 
L 507.103682 538.572224 
L 509.699365 528.05406 
L 512.295048 517.391411 
L 513.592889 512.891406 
L 514.890731 509.456708 
L 516.188572 507.207151 
L 517.486413 505.969258 
L 518.784255 505.378328 
L 522.677779 504.259694 
L 523.97562 503.850576 
L 525.273462 503.600183 
L 527.869144 503.575932 
L 531.762668 503.708262 
L 533.06051 503.953876 
L 534.358351 504.454146 
L 535.656193 505.27448 
L 536.954034 506.471406 
L 538.251875 508.080602 
L 539.549717 510.095769 
L 540.847558 512.470217 
L 543.443241 517.987709 
L 547.336765 527.049546 
L 548.634606 530.477651 
L 549.932448 534.446115 
L 551.230289 539.101524 
L 552.52813 544.454338 
L 555.123813 556.667288 
L 557.719496 569.088569 
L 560.315179 580.062472 
L 565.506544 600.363787 
L 568.102227 609.392403 
L 570.69791 617.242974 
L 571.995751 620.603894 
L 573.293593 623.491488 
L 574.591434 625.940713 
L 577.187117 629.9823 
L 579.782799 633.393561 
L 582.378482 636.651119 
L 583.676324 638.576745 
L 584.974165 640.872519 
L 587.569848 646.352304 
L 590.16553 651.779627 
L 592.761213 656.290286 
L 595.356896 660.171534 
L 596.654737 661.912811 
L 597.952579 663.450618 
L 599.25042 664.720444 
L 600.548261 665.684803 
L 601.846103 666.348816 
L 603.143944 666.759862 
L 605.739627 667.11681 
L 609.633151 667.255575 
L 621.313724 667.069805 
L 625.207248 666.779131 
L 629.100772 666.498931 
L 634.292137 666.504178 
L 638.185661 666.06027 
L 640.781344 665.822574 
L 653.759758 665.217893 
L 656.355441 665.313369 
L 658.951124 665.698178 
L 661.546806 666.291679 
L 668.036013 668.122968 
L 670.631696 668.405613 
L 674.52522 668.483206 
L 675.823061 668.485516 
L 675.823061 668.485516 
" style="fill:none;stroke:#d62728;stroke-linecap:round;stroke-width:1.5;"/>
   </g>
   <g id="line2d_58">
    <path clip-path="url(#pf0c5b90aa7)" d="M 397.631607 668.483948 
L 403.260453 668.390001 
L 410.296512 668.182102 
L 418.739781 668.222811 
L 427.183051 668.139672 
L 434.219109 668.240181 
L 441.255168 668.436733 
L 449.698438 668.37731 
L 455.327284 668.207436 
L 458.141707 667.964276 
L 459.548919 667.70189 
L 460.956131 667.206441 
L 462.363342 666.327322 
L 463.770554 664.95278 
L 465.177766 663.082114 
L 466.584977 660.816764 
L 467.992189 658.24835 
L 469.3994 655.340361 
L 470.806612 651.928968 
L 472.213824 647.856483 
L 475.028247 638.028054 
L 476.435459 633.000017 
L 477.84267 628.538077 
L 479.249882 624.941602 
L 480.657094 622.203805 
L 483.471517 618.097698 
L 484.878729 615.974331 
L 486.28594 613.415546 
L 487.693152 610.260551 
L 489.100363 606.448088 
L 490.507575 602.017055 
L 493.321998 591.826554 
L 497.543633 575.534266 
L 500.358057 565.859345 
L 514.430173 522.726684 
L 515.837385 518.864353 
L 517.244596 515.368558 
L 520.05902 509.333572 
L 522.873443 504.169364 
L 524.280654 502.110242 
L 525.687866 500.68602 
L 527.095078 499.980879 
L 528.502289 499.841719 
L 529.909501 499.994438 
L 531.316713 500.286847 
L 532.723924 500.827631 
L 534.131136 501.877156 
L 535.538348 503.585839 
L 536.945559 505.827163 
L 542.574406 515.710927 
L 543.981617 518.74799 
L 545.388829 522.302814 
L 546.796041 526.314368 
L 548.203252 530.712393 
L 549.610464 535.526122 
L 551.017676 540.846073 
L 558.053734 569.570254 
L 560.868157 580.426015 
L 565.089792 597.981189 
L 566.497004 603.041472 
L 567.904215 607.50578 
L 569.311427 611.467703 
L 572.12585 618.323169 
L 576.347485 627.497359 
L 577.754697 630.245544 
L 580.56912 634.97946 
L 583.383543 639.521676 
L 590.419602 651.789319 
L 593.234025 655.945131 
L 596.048448 659.8117 
L 597.45566 661.612777 
L 598.862871 663.19887 
L 600.270083 664.461847 
L 601.677295 665.345063 
L 603.084506 665.867157 
L 604.491718 666.10824 
L 607.306141 666.120582 
L 610.120565 665.802975 
L 615.749411 664.79093 
L 618.563834 664.667973 
L 622.785469 664.805345 
L 625.599893 664.523892 
L 629.821528 663.90199 
L 632.635951 663.749661 
L 635.450374 663.739842 
L 638.264797 663.920448 
L 642.486432 664.545901 
L 645.300856 664.865292 
L 648.115279 664.812174 
L 652.336914 664.47715 
L 655.151337 664.5093 
L 656.558549 664.669841 
L 659.372972 665.327245 
L 666.40903 667.646766 
L 669.223453 668.178798 
L 672.037877 668.412214 
L 677.666723 668.485474 
L 677.666723 668.485474 
" style="fill:none;stroke:#2ca02c;stroke-linecap:round;stroke-width:1.5;"/>
   </g>
   <g id="line2d_59">
    <path clip-path="url(#pf0c5b90aa7)" d="M 427.677098 668.486002 
L 444.044178 668.368044 
L 455.375234 668.115114 
L 457.893246 667.852361 
L 459.152252 667.604456 
L 460.411258 667.219138 
L 461.670265 666.640523 
L 462.929271 665.83254 
L 465.447283 663.693465 
L 470.483308 659.332155 
L 471.742314 657.912378 
L 473.00132 656.216969 
L 475.519333 652.282861 
L 480.555357 643.79286 
L 481.814363 641.380122 
L 483.07337 638.64725 
L 484.332376 635.504876 
L 485.591382 631.924985 
L 486.850388 627.929629 
L 489.3684 618.824252 
L 493.145419 603.284953 
L 498.181444 582.189707 
L 501.958462 564.650327 
L 505.735481 547.295577 
L 508.253493 536.637889 
L 510.771506 526.802234 
L 513.289518 518.320259 
L 515.80753 511.366203 
L 519.584549 502.377422 
L 522.102561 496.615679 
L 523.361567 494.422165 
L 524.620573 493.227707 
L 525.87958 493.158777 
L 527.138586 493.945743 
L 528.397592 495.063914 
L 529.656598 496.01534 
L 530.915604 496.557431 
L 533.433617 496.95136 
L 534.692623 497.420946 
L 535.951629 498.319666 
L 537.210635 499.566311 
L 539.728648 502.482293 
L 540.987654 504.116631 
L 542.24666 506.006662 
L 543.505666 508.212655 
L 544.764672 510.713802 
L 546.023679 513.489267 
L 547.282685 516.605093 
L 548.541691 520.232866 
L 549.800697 524.59787 
L 551.059703 529.877682 
L 552.318709 536.075325 
L 556.095728 556.588988 
L 557.354734 562.513365 
L 559.872746 572.547691 
L 566.167777 596.596462 
L 568.68579 604.617631 
L 573.721814 619.815068 
L 574.980821 623.137409 
L 576.239827 626.02379 
L 577.498833 628.399413 
L 578.757839 630.24638 
L 580.016845 631.648103 
L 582.534858 634.058758 
L 583.793864 635.657158 
L 585.05287 637.769585 
L 586.311876 640.377125 
L 591.347901 652.188607 
L 593.865913 657.057839 
L 595.124919 659.144435 
L 596.383926 661.002284 
L 597.642932 662.602224 
L 598.901938 663.905062 
L 600.160944 664.889439 
L 601.41995 665.571018 
L 602.678957 666.002513 
L 605.196969 666.407604 
L 607.714981 666.559106 
L 610.232994 666.502527 
L 614.010012 665.975491 
L 616.528024 665.7355 
L 619.046037 665.792418 
L 622.823055 666.014823 
L 625.341068 665.907545 
L 636.672123 664.790956 
L 640.449142 664.59603 
L 644.22616 664.75505 
L 648.003179 664.829388 
L 655.557216 664.621843 
L 658.075228 664.824582 
L 660.593241 665.404241 
L 668.147278 667.845624 
L 670.66529 668.253183 
L 673.183302 668.429666 
L 678.219327 668.485568 
L 678.219327 668.485568 
" style="fill:none;stroke:#ff7f0e;stroke-linecap:round;stroke-width:1.5;"/>
   </g>
   <g id="line2d_60">
    <path clip-path="url(#pf0c5b90aa7)" d="M 396.202466 668.483804 
L 403.301788 668.365163 
L 408.981245 668.249957 
L 420.340159 668.400538 
L 435.958665 668.323228 
L 444.477851 668.393734 
L 450.157308 668.244781 
L 454.416901 668.007346 
L 455.836765 667.852038 
L 457.256629 667.560292 
L 458.676493 666.979185 
L 460.096358 665.84041 
L 461.516222 663.720835 
L 462.936086 660.016598 
L 464.35595 653.927833 
L 465.775815 644.433001 
L 467.195679 630.252157 
L 468.615543 609.885772 
L 470.035407 581.916011 
L 471.455272 545.734303 
L 475.714864 414.622349 
L 477.134729 384.945523 
L 478.554593 374.597443 
L 479.974457 386.511047 
L 481.394321 418.090949 
L 485.653914 551.624705 
L 487.073778 584.635302 
L 488.493643 607.238599 
L 489.913507 620.965029 
L 491.333371 628.372603 
L 492.753235 631.813199 
L 494.1731 632.773166 
L 495.592964 631.755625 
L 497.012828 628.574747 
L 498.432692 622.901666 
L 499.852557 614.814671 
L 504.112149 585.319156 
L 505.532014 577.248568 
L 506.951878 570.734187 
L 508.371742 565.467244 
L 509.791606 561.009372 
L 511.211471 557.029927 
L 512.631335 553.395237 
L 514.051199 550.123055 
L 515.471063 547.274804 
L 516.890928 544.867031 
L 518.310792 542.848526 
L 519.730656 541.138902 
L 521.15052 539.691439 
L 522.570385 538.537792 
L 523.990249 537.783569 
L 525.410113 537.546104 
L 526.829977 537.861594 
L 528.249842 538.623978 
L 532.509434 541.536835 
L 535.349163 543.448099 
L 536.769027 544.65544 
L 538.188891 546.064266 
L 539.608756 547.655641 
L 541.02862 549.464463 
L 542.448484 551.585909 
L 543.868348 554.105812 
L 545.288213 557.034595 
L 546.708077 560.3161 
L 548.127941 563.897749 
L 549.547805 567.78407 
L 552.387534 576.581001 
L 556.647127 590.592997 
L 559.486855 598.517329 
L 562.326584 606.094407 
L 568.006041 622.13073 
L 569.425905 625.665362 
L 570.845769 628.86028 
L 572.265633 631.715021 
L 573.685498 634.249057 
L 575.105362 636.489026 
L 576.525226 638.458134 
L 577.94509 640.175006 
L 580.784819 643.005711 
L 583.624547 645.71115 
L 585.044412 647.36078 
L 586.464276 649.298578 
L 592.143733 657.863736 
L 593.563597 659.659092 
L 596.403326 662.723832 
L 597.82319 663.988555 
L 599.243054 665.028574 
L 600.662918 665.815298 
L 602.082783 666.358291 
L 603.502647 666.705964 
L 606.342375 667.063986 
L 609.182104 667.207623 
L 612.021832 667.17002 
L 638.999253 665.617444 
L 648.938303 665.888467 
L 653.197896 665.812845 
L 656.037624 665.940147 
L 658.877353 666.304128 
L 670.236267 668.282452 
L 674.495859 668.464305 
L 678.755452 668.485457 
L 678.755452 668.485457 
" style="fill:none;stroke:#1f77b4;stroke-linecap:round;stroke-width:1.5;"/>
   </g>
   <g id="patch_12">
    <path d="M 380.0167 668.486312 
L 380.0167 359.903 
" style="fill:none;stroke:#cccccc;stroke-linecap:square;stroke-linejoin:miter;stroke-width:0.8;"/>
   </g>
   <g id="patch_13">
    <path d="M 380.0167 668.486312 
L 696.62715 668.486312 
" style="fill:none;stroke:#cccccc;stroke-linecap:square;stroke-linejoin:miter;stroke-width:0.8;"/>
   </g>
   <g id="text_30">
    <!-- group = G1S | rep = 2 -->
    <g style="fill:#262626;" transform="translate(490.05005 353.903)scale(0.1 -0.1)">
     <use xlink:href="#ArialMT-67"/>
     <use x="55.615234" xlink:href="#ArialMT-72"/>
     <use x="88.916016" xlink:href="#ArialMT-6f"/>
     <use x="144.53125" xlink:href="#ArialMT-75"/>
     <use x="200.146484" xlink:href="#ArialMT-70"/>
     <use x="255.761719" xlink:href="#ArialMT-20"/>
     <use x="283.544922" xlink:href="#ArialMT-3d"/>
     <use x="341.943359" xlink:href="#ArialMT-20"/>
     <use x="369.726562" xlink:href="#ArialMT-47"/>
     <use x="447.509766" xlink:href="#ArialMT-31"/>
     <use x="503.125" xlink:href="#ArialMT-53"/>
     <use x="569.824219" xlink:href="#ArialMT-20"/>
     <use x="597.607422" xlink:href="#ArialMT-7c"/>
     <use x="623.583984" xlink:href="#ArialMT-20"/>
     <use x="651.367188" xlink:href="#ArialMT-72"/>
     <use x="684.667969" xlink:href="#ArialMT-65"/>
     <use x="740.283203" xlink:href="#ArialMT-70"/>
     <use x="795.898438" xlink:href="#ArialMT-20"/>
     <use x="823.681641" xlink:href="#ArialMT-3d"/>
     <use x="882.080078" xlink:href="#ArialMT-20"/>
     <use x="909.863281" xlink:href="#ArialMT-32"/>
    </g>
   </g>
  </g>
  <g id="legend_1">
   <g id="text_31">
    <!-- orientation -->
    <g style="fill:#262626;" transform="translate(738.981719 328.479875)scale(0.1 -0.1)">
     <use xlink:href="#ArialMT-6f"/>
     <use x="55.615234" xlink:href="#ArialMT-72"/>
     <use x="88.916016" xlink:href="#ArialMT-69"/>
     <use x="111.132812" xlink:href="#ArialMT-65"/>
     <use x="166.748047" xlink:href="#ArialMT-6e"/>
     <use x="222.363281" xlink:href="#ArialMT-74"/>
     <use x="250.146484" xlink:href="#ArialMT-61"/>
     <use x="305.761719" xlink:href="#ArialMT-74"/>
     <use x="333.544922" xlink:href="#ArialMT-69"/>
     <use x="355.761719" xlink:href="#ArialMT-6f"/>
     <use x="411.376953" xlink:href="#ArialMT-6e"/>
    </g>
   </g>
   <g id="line2d_61">
    <path d="M 716.9325 339.125187 
L 736.9325 339.125187 
" style="fill:none;stroke:#1f77b4;stroke-linecap:round;stroke-width:1.5;"/>
   </g>
   <g id="line2d_62"/>
   <g id="text_32">
    <!-- Inward -->
    <g style="fill:#262626;" transform="translate(744.9325 342.625187)scale(0.1 -0.1)">
     <defs>
      <path d="M 1034 0 
L 19 3319 
L 600 3319 
L 1128 1403 
L 1325 691 
Q 1338 744 1497 1375 
L 2025 3319 
L 2603 3319 
L 3100 1394 
L 3266 759 
L 3456 1400 
L 4025 3319 
L 4572 3319 
L 3534 0 
L 2950 0 
L 2422 1988 
L 2294 2553 
L 1622 0 
L 1034 0 
z
" id="ArialMT-77" transform="scale(0.015625)"/>
      <path d="M 2575 0 
L 2575 419 
Q 2259 -75 1647 -75 
Q 1250 -75 917 144 
Q 584 363 401 755 
Q 219 1147 219 1656 
Q 219 2153 384 2558 
Q 550 2963 881 3178 
Q 1213 3394 1622 3394 
Q 1922 3394 2156 3267 
Q 2391 3141 2538 2938 
L 2538 4581 
L 3097 4581 
L 3097 0 
L 2575 0 
z
M 797 1656 
Q 797 1019 1065 703 
Q 1334 388 1700 388 
Q 2069 388 2326 689 
Q 2584 991 2584 1609 
Q 2584 2291 2321 2609 
Q 2059 2928 1675 2928 
Q 1300 2928 1048 2622 
Q 797 2316 797 1656 
z
" id="ArialMT-64" transform="scale(0.015625)"/>
     </defs>
     <use xlink:href="#ArialMT-49"/>
     <use x="27.783203" xlink:href="#ArialMT-6e"/>
     <use x="83.398438" xlink:href="#ArialMT-77"/>
     <use x="155.615234" xlink:href="#ArialMT-61"/>
     <use x="211.230469" xlink:href="#ArialMT-72"/>
     <use x="244.53125" xlink:href="#ArialMT-64"/>
    </g>
   </g>
   <g id="line2d_63">
    <path d="M 716.9325 353.2705 
L 736.9325 353.2705 
" style="fill:none;stroke:#ff7f0e;stroke-linecap:round;stroke-width:1.5;"/>
   </g>
   <g id="line2d_64"/>
   <g id="text_33">
    <!-- Outward -->
    <g style="fill:#262626;" transform="translate(744.9325 356.7705)scale(0.1 -0.1)">
     <defs>
      <path d="M 309 2231 
Q 309 3372 921 4017 
Q 1534 4663 2503 4663 
Q 3138 4663 3647 4359 
Q 4156 4056 4423 3514 
Q 4691 2972 4691 2284 
Q 4691 1588 4409 1038 
Q 4128 488 3612 205 
Q 3097 -78 2500 -78 
Q 1853 -78 1343 234 
Q 834 547 571 1087 
Q 309 1628 309 2231 
z
M 934 2222 
Q 934 1394 1379 917 
Q 1825 441 2497 441 
Q 3181 441 3623 922 
Q 4066 1403 4066 2288 
Q 4066 2847 3877 3264 
Q 3688 3681 3323 3911 
Q 2959 4141 2506 4141 
Q 1863 4141 1398 3698 
Q 934 3256 934 2222 
z
" id="ArialMT-4f" transform="scale(0.015625)"/>
     </defs>
     <use xlink:href="#ArialMT-4f"/>
     <use x="77.783203" xlink:href="#ArialMT-75"/>
     <use x="133.398438" xlink:href="#ArialMT-74"/>
     <use x="161.181641" xlink:href="#ArialMT-77"/>
     <use x="233.398438" xlink:href="#ArialMT-61"/>
     <use x="289.013672" xlink:href="#ArialMT-72"/>
     <use x="322.314453" xlink:href="#ArialMT-64"/>
    </g>
   </g>
   <g id="line2d_65">
    <path d="M 716.9325 367.415812 
L 736.9325 367.415812 
" style="fill:none;stroke:#2ca02c;stroke-linecap:round;stroke-width:1.5;"/>
   </g>
   <g id="line2d_66"/>
   <g id="text_34">
    <!-- Same-forward -->
    <g style="fill:#262626;" transform="translate(744.9325 370.915812)scale(0.1 -0.1)">
     <defs>
      <path d="M 422 0 
L 422 3319 
L 925 3319 
L 925 2853 
Q 1081 3097 1340 3245 
Q 1600 3394 1931 3394 
Q 2300 3394 2536 3241 
Q 2772 3088 2869 2813 
Q 3263 3394 3894 3394 
Q 4388 3394 4653 3120 
Q 4919 2847 4919 2278 
L 4919 0 
L 4359 0 
L 4359 2091 
Q 4359 2428 4304 2576 
Q 4250 2725 4106 2815 
Q 3963 2906 3769 2906 
Q 3419 2906 3187 2673 
Q 2956 2441 2956 1928 
L 2956 0 
L 2394 0 
L 2394 2156 
Q 2394 2531 2256 2718 
Q 2119 2906 1806 2906 
Q 1569 2906 1367 2781 
Q 1166 2656 1075 2415 
Q 984 2175 984 1722 
L 984 0 
L 422 0 
z
" id="ArialMT-6d" transform="scale(0.015625)"/>
      <path d="M 203 1375 
L 203 1941 
L 1931 1941 
L 1931 1375 
L 203 1375 
z
" id="ArialMT-2d" transform="scale(0.015625)"/>
      <path d="M 556 0 
L 556 2881 
L 59 2881 
L 59 3319 
L 556 3319 
L 556 3672 
Q 556 4006 616 4169 
Q 697 4388 901 4523 
Q 1106 4659 1475 4659 
Q 1713 4659 2000 4603 
L 1916 4113 
Q 1741 4144 1584 4144 
Q 1328 4144 1222 4034 
Q 1116 3925 1116 3625 
L 1116 3319 
L 1763 3319 
L 1763 2881 
L 1116 2881 
L 1116 0 
L 556 0 
z
" id="ArialMT-66" transform="scale(0.015625)"/>
     </defs>
     <use xlink:href="#ArialMT-53"/>
     <use x="66.699219" xlink:href="#ArialMT-61"/>
     <use x="122.314453" xlink:href="#ArialMT-6d"/>
     <use x="205.615234" xlink:href="#ArialMT-65"/>
     <use x="261.230469" xlink:href="#ArialMT-2d"/>
     <use x="294.53125" xlink:href="#ArialMT-66"/>
     <use x="322.314453" xlink:href="#ArialMT-6f"/>
     <use x="377.929688" xlink:href="#ArialMT-72"/>
     <use x="411.230469" xlink:href="#ArialMT-77"/>
     <use x="483.447266" xlink:href="#ArialMT-61"/>
     <use x="539.0625" xlink:href="#ArialMT-72"/>
     <use x="572.363281" xlink:href="#ArialMT-64"/>
    </g>
   </g>
   <g id="line2d_67">
    <path d="M 716.9325 381.561125 
L 736.9325 381.561125 
" style="fill:none;stroke:#d62728;stroke-linecap:round;stroke-width:1.5;"/>
   </g>
   <g id="line2d_68"/>
   <g id="text_35">
    <!-- Same-reverse -->
    <g style="fill:#262626;" transform="translate(744.9325 385.061125)scale(0.1 -0.1)">
     <defs>
      <path d="M 1344 0 
L 81 3319 
L 675 3319 
L 1388 1331 
Q 1503 1009 1600 663 
Q 1675 925 1809 1294 
L 2547 3319 
L 3125 3319 
L 1869 0 
L 1344 0 
z
" id="ArialMT-76" transform="scale(0.015625)"/>
     </defs>
     <use xlink:href="#ArialMT-53"/>
     <use x="66.699219" xlink:href="#ArialMT-61"/>
     <use x="122.314453" xlink:href="#ArialMT-6d"/>
     <use x="205.615234" xlink:href="#ArialMT-65"/>
     <use x="261.230469" xlink:href="#ArialMT-2d"/>
     <use x="294.53125" xlink:href="#ArialMT-72"/>
     <use x="327.832031" xlink:href="#ArialMT-65"/>
     <use x="383.447266" xlink:href="#ArialMT-76"/>
     <use x="433.447266" xlink:href="#ArialMT-65"/>
     <use x="489.0625" xlink:href="#ArialMT-72"/>
     <use x="522.363281" xlink:href="#ArialMT-73"/>
     <use x="572.363281" xlink:href="#ArialMT-65"/>
    </g>
   </g>
  </g>
 </g>
 <defs>
  <clipPath id="p85af1b2e4a">
   <rect height="308.583312" width="316.61045" x="52.60625" y="20.479687"/>
  </clipPath>
  <clipPath id="p42dcdea51d">
   <rect height="308.583312" width="316.61045" x="380.0167" y="20.479687"/>
  </clipPath>
  <clipPath id="p1744953d02">
   <rect height="308.583312" width="316.61045" x="52.60625" y="359.903"/>
  </clipPath>
  <clipPath id="pf0c5b90aa7">
   <rect height="308.583312" width="316.61045" x="380.0167" y="359.903"/>
  </clipPath>
 </defs>
</svg>
