<?xml version="1.0" encoding="utf-8" standalone="no"?>
<!DOCTYPE svg PUBLIC "-//W3C//DTD SVG 1.1//EN"
  "http://www.w3.org/Graphics/SVG/1.1/DTD/svg11.dtd">
<svg xmlns:xlink="http://www.w3.org/1999/xlink" width="816.604375pt" height="708.370687pt" viewBox="0 0 816.604375 708.370687" xmlns="http://www.w3.org/2000/svg" version="1.1">
 <metadata>
  <rdf:RDF xmlns:dc="http://purl.org/dc/elements/1.1/" xmlns:cc="http://creativecommons.org/ns#" xmlns:rdf="http://www.w3.org/1999/02/22-rdf-syntax-ns#">
   <cc:Work>
    <dc:type rdf:resource="http://purl.org/dc/dcmitype/StillImage"/>
    <dc:date>2022-01-04T17:08:04.969645</dc:date>
    <dc:format>image/svg+xml</dc:format>
    <dc:creator>
     <cc:Agent>
      <dc:title>Matplotlib v3.5.0, https://matplotlib.org/</dc:title>
     </cc:Agent>
    </dc:creator>
   </cc:Work>
  </rdf:RDF>
 </metadata>
 <defs>
  <style type="text/css">*{stroke-linejoin: round; stroke-linecap: butt}</style>
 </defs>
 <g id="figure_1">
  <g id="patch_1">
   <path d="M 0 708.370687 
L 816.604375 708.370687 
L 816.604375 0 
L 0 0 
z
" style="fill: #ffffff"/>
  </g>
  <g id="axes_1">
   <g id="patch_2">
    <path d="M 52.484375 329.063 
L 369.094825 329.063 
L 369.094825 20.479687 
L 52.484375 20.479687 
z
" style="fill: #ffffff"/>
   </g>
   <g id="matplotlib.axis_1">
    <g id="xtick_1">
     <g id="line2d_1">
      <path d="M 94.553471 329.063 
L 94.553471 20.479687 
" clip-path="url(#p4785fcc82a)" style="fill: none; stroke: #cccccc; stroke-width: 0.8; stroke-linecap: round"/>
     </g>
    </g>
    <g id="xtick_2">
     <g id="line2d_2">
      <path d="M 170.75007 329.063 
L 170.75007 20.479687 
" clip-path="url(#p4785fcc82a)" style="fill: none; stroke: #cccccc; stroke-width: 0.8; stroke-linecap: round"/>
     </g>
    </g>
    <g id="xtick_3">
     <g id="line2d_3">
      <path d="M 246.946668 329.063 
L 246.946668 20.479687 
" clip-path="url(#p4785fcc82a)" style="fill: none; stroke: #cccccc; stroke-width: 0.8; stroke-linecap: round"/>
     </g>
    </g>
    <g id="xtick_4">
     <g id="line2d_4">
      <path d="M 323.143267 329.063 
L 323.143267 20.479687 
" clip-path="url(#p4785fcc82a)" style="fill: none; stroke: #cccccc; stroke-width: 0.8; stroke-linecap: round"/>
     </g>
    </g>
   </g>
   <g id="matplotlib.axis_2">
    <g id="ytick_1">
     <g id="line2d_5">
      <path d="M 52.484375 329.063 
L 369.094825 329.063 
" clip-path="url(#p4785fcc82a)" style="fill: none; stroke: #cccccc; stroke-width: 0.8; stroke-linecap: round"/>
     </g>
     <g id="text_1">
      <!-- 0.00 -->
      <g style="fill: #262626" transform="translate(26.023438 332.641906)scale(0.1 -0.1)">
       <defs>
        <path id="ArialMT-30" d="M 266 2259 
Q 266 3072 433 3567 
Q 600 4063 929 4331 
Q 1259 4600 1759 4600 
Q 2128 4600 2406 4451 
Q 2684 4303 2865 4023 
Q 3047 3744 3150 3342 
Q 3253 2941 3253 2259 
Q 3253 1453 3087 958 
Q 2922 463 2592 192 
Q 2263 -78 1759 -78 
Q 1097 -78 719 397 
Q 266 969 266 2259 
z
M 844 2259 
Q 844 1131 1108 757 
Q 1372 384 1759 384 
Q 2147 384 2411 759 
Q 2675 1134 2675 2259 
Q 2675 3391 2411 3762 
Q 2147 4134 1753 4134 
Q 1366 4134 1134 3806 
Q 844 3388 844 2259 
z
" transform="scale(0.015625)"/>
        <path id="ArialMT-2e" d="M 581 0 
L 581 641 
L 1222 641 
L 1222 0 
L 581 0 
z
" transform="scale(0.015625)"/>
       </defs>
       <use xlink:href="#ArialMT-30"/>
       <use xlink:href="#ArialMT-2e" x="55.615234"/>
       <use xlink:href="#ArialMT-30" x="83.398438"/>
       <use xlink:href="#ArialMT-30" x="139.013672"/>
      </g>
     </g>
    </g>
    <g id="ytick_2">
     <g id="line2d_6">
      <path d="M 52.484375 284.526588 
L 369.094825 284.526588 
" clip-path="url(#p4785fcc82a)" style="fill: none; stroke: #cccccc; stroke-width: 0.8; stroke-linecap: round"/>
     </g>
     <g id="text_2">
      <!-- 0.01 -->
      <g style="fill: #262626" transform="translate(26.023438 288.105494)scale(0.1 -0.1)">
       <defs>
        <path id="ArialMT-31" d="M 2384 0 
L 1822 0 
L 1822 3584 
Q 1619 3391 1289 3197 
Q 959 3003 697 2906 
L 697 3450 
Q 1169 3672 1522 3987 
Q 1875 4303 2022 4600 
L 2384 4600 
L 2384 0 
z
" transform="scale(0.015625)"/>
       </defs>
       <use xlink:href="#ArialMT-30"/>
       <use xlink:href="#ArialMT-2e" x="55.615234"/>
       <use xlink:href="#ArialMT-30" x="83.398438"/>
       <use xlink:href="#ArialMT-31" x="139.013672"/>
      </g>
     </g>
    </g>
    <g id="ytick_3">
     <g id="line2d_7">
      <path d="M 52.484375 239.990176 
L 369.094825 239.990176 
" clip-path="url(#p4785fcc82a)" style="fill: none; stroke: #cccccc; stroke-width: 0.8; stroke-linecap: round"/>
     </g>
     <g id="text_3">
      <!-- 0.02 -->
      <g style="fill: #262626" transform="translate(26.023438 243.569082)scale(0.1 -0.1)">
       <defs>
        <path id="ArialMT-32" d="M 3222 541 
L 3222 0 
L 194 0 
Q 188 203 259 391 
Q 375 700 629 1000 
Q 884 1300 1366 1694 
Q 2113 2306 2375 2664 
Q 2638 3022 2638 3341 
Q 2638 3675 2398 3904 
Q 2159 4134 1775 4134 
Q 1369 4134 1125 3890 
Q 881 3647 878 3216 
L 300 3275 
Q 359 3922 746 4261 
Q 1134 4600 1788 4600 
Q 2447 4600 2831 4234 
Q 3216 3869 3216 3328 
Q 3216 3053 3103 2787 
Q 2991 2522 2730 2228 
Q 2469 1934 1863 1422 
Q 1356 997 1212 845 
Q 1069 694 975 541 
L 3222 541 
z
" transform="scale(0.015625)"/>
       </defs>
       <use xlink:href="#ArialMT-30"/>
       <use xlink:href="#ArialMT-2e" x="55.615234"/>
       <use xlink:href="#ArialMT-30" x="83.398438"/>
       <use xlink:href="#ArialMT-32" x="139.013672"/>
      </g>
     </g>
    </g>
    <g id="ytick_4">
     <g id="line2d_8">
      <path d="M 52.484375 195.453764 
L 369.094825 195.453764 
" clip-path="url(#p4785fcc82a)" style="fill: none; stroke: #cccccc; stroke-width: 0.8; stroke-linecap: round"/>
     </g>
     <g id="text_4">
      <!-- 0.03 -->
      <g style="fill: #262626" transform="translate(26.023438 199.03267)scale(0.1 -0.1)">
       <defs>
        <path id="ArialMT-33" d="M 269 1209 
L 831 1284 
Q 928 806 1161 595 
Q 1394 384 1728 384 
Q 2125 384 2398 659 
Q 2672 934 2672 1341 
Q 2672 1728 2419 1979 
Q 2166 2231 1775 2231 
Q 1616 2231 1378 2169 
L 1441 2663 
Q 1497 2656 1531 2656 
Q 1891 2656 2178 2843 
Q 2466 3031 2466 3422 
Q 2466 3731 2256 3934 
Q 2047 4138 1716 4138 
Q 1388 4138 1169 3931 
Q 950 3725 888 3313 
L 325 3413 
Q 428 3978 793 4289 
Q 1159 4600 1703 4600 
Q 2078 4600 2393 4439 
Q 2709 4278 2876 4000 
Q 3044 3722 3044 3409 
Q 3044 3113 2884 2869 
Q 2725 2625 2413 2481 
Q 2819 2388 3044 2092 
Q 3269 1797 3269 1353 
Q 3269 753 2831 336 
Q 2394 -81 1725 -81 
Q 1122 -81 723 278 
Q 325 638 269 1209 
z
" transform="scale(0.015625)"/>
       </defs>
       <use xlink:href="#ArialMT-30"/>
       <use xlink:href="#ArialMT-2e" x="55.615234"/>
       <use xlink:href="#ArialMT-30" x="83.398438"/>
       <use xlink:href="#ArialMT-33" x="139.013672"/>
      </g>
     </g>
    </g>
    <g id="ytick_5">
     <g id="line2d_9">
      <path d="M 52.484375 150.917352 
L 369.094825 150.917352 
" clip-path="url(#p4785fcc82a)" style="fill: none; stroke: #cccccc; stroke-width: 0.8; stroke-linecap: round"/>
     </g>
     <g id="text_5">
      <!-- 0.04 -->
      <g style="fill: #262626" transform="translate(26.023438 154.496258)scale(0.1 -0.1)">
       <defs>
        <path id="ArialMT-34" d="M 2069 0 
L 2069 1097 
L 81 1097 
L 81 1613 
L 2172 4581 
L 2631 4581 
L 2631 1613 
L 3250 1613 
L 3250 1097 
L 2631 1097 
L 2631 0 
L 2069 0 
z
M 2069 1613 
L 2069 3678 
L 634 1613 
L 2069 1613 
z
" transform="scale(0.015625)"/>
       </defs>
       <use xlink:href="#ArialMT-30"/>
       <use xlink:href="#ArialMT-2e" x="55.615234"/>
       <use xlink:href="#ArialMT-30" x="83.398438"/>
       <use xlink:href="#ArialMT-34" x="139.013672"/>
      </g>
     </g>
    </g>
    <g id="ytick_6">
     <g id="line2d_10">
      <path d="M 52.484375 106.38094 
L 369.094825 106.38094 
" clip-path="url(#p4785fcc82a)" style="fill: none; stroke: #cccccc; stroke-width: 0.8; stroke-linecap: round"/>
     </g>
     <g id="text_6">
      <!-- 0.05 -->
      <g style="fill: #262626" transform="translate(26.023438 109.959846)scale(0.1 -0.1)">
       <defs>
        <path id="ArialMT-35" d="M 266 1200 
L 856 1250 
Q 922 819 1161 601 
Q 1400 384 1738 384 
Q 2144 384 2425 690 
Q 2706 997 2706 1503 
Q 2706 1984 2436 2262 
Q 2166 2541 1728 2541 
Q 1456 2541 1237 2417 
Q 1019 2294 894 2097 
L 366 2166 
L 809 4519 
L 3088 4519 
L 3088 3981 
L 1259 3981 
L 1013 2750 
Q 1425 3038 1878 3038 
Q 2478 3038 2890 2622 
Q 3303 2206 3303 1553 
Q 3303 931 2941 478 
Q 2500 -78 1738 -78 
Q 1113 -78 717 272 
Q 322 622 266 1200 
z
" transform="scale(0.015625)"/>
       </defs>
       <use xlink:href="#ArialMT-30"/>
       <use xlink:href="#ArialMT-2e" x="55.615234"/>
       <use xlink:href="#ArialMT-30" x="83.398438"/>
       <use xlink:href="#ArialMT-35" x="139.013672"/>
      </g>
     </g>
    </g>
    <g id="ytick_7">
     <g id="line2d_11">
      <path d="M 52.484375 61.844528 
L 369.094825 61.844528 
" clip-path="url(#p4785fcc82a)" style="fill: none; stroke: #cccccc; stroke-width: 0.8; stroke-linecap: round"/>
     </g>
     <g id="text_7">
      <!-- 0.06 -->
      <g style="fill: #262626" transform="translate(26.023438 65.423434)scale(0.1 -0.1)">
       <defs>
        <path id="ArialMT-36" d="M 3184 3459 
L 2625 3416 
Q 2550 3747 2413 3897 
Q 2184 4138 1850 4138 
Q 1581 4138 1378 3988 
Q 1113 3794 959 3422 
Q 806 3050 800 2363 
Q 1003 2672 1297 2822 
Q 1591 2972 1913 2972 
Q 2475 2972 2870 2558 
Q 3266 2144 3266 1488 
Q 3266 1056 3080 686 
Q 2894 316 2569 119 
Q 2244 -78 1831 -78 
Q 1128 -78 684 439 
Q 241 956 241 2144 
Q 241 3472 731 4075 
Q 1159 4600 1884 4600 
Q 2425 4600 2770 4297 
Q 3116 3994 3184 3459 
z
M 888 1484 
Q 888 1194 1011 928 
Q 1134 663 1356 523 
Q 1578 384 1822 384 
Q 2178 384 2434 671 
Q 2691 959 2691 1453 
Q 2691 1928 2437 2201 
Q 2184 2475 1800 2475 
Q 1419 2475 1153 2201 
Q 888 1928 888 1484 
z
" transform="scale(0.015625)"/>
       </defs>
       <use xlink:href="#ArialMT-30"/>
       <use xlink:href="#ArialMT-2e" x="55.615234"/>
       <use xlink:href="#ArialMT-30" x="83.398438"/>
       <use xlink:href="#ArialMT-36" x="139.013672"/>
      </g>
     </g>
    </g>
    <g id="text_8">
     <!-- Density -->
     <g style="fill: #262626" transform="translate(19.91875 191.443219)rotate(-90)scale(0.1 -0.1)">
      <defs>
       <path id="ArialMT-44" d="M 494 0 
L 494 4581 
L 2072 4581 
Q 2606 4581 2888 4516 
Q 3281 4425 3559 4188 
Q 3922 3881 4101 3404 
Q 4281 2928 4281 2316 
Q 4281 1794 4159 1391 
Q 4038 988 3847 723 
Q 3656 459 3429 307 
Q 3203 156 2883 78 
Q 2563 0 2147 0 
L 494 0 
z
M 1100 541 
L 2078 541 
Q 2531 541 2789 625 
Q 3047 709 3200 863 
Q 3416 1078 3536 1442 
Q 3656 1806 3656 2325 
Q 3656 3044 3420 3430 
Q 3184 3816 2847 3947 
Q 2603 4041 2063 4041 
L 1100 4041 
L 1100 541 
z
" transform="scale(0.015625)"/>
       <path id="ArialMT-65" d="M 2694 1069 
L 3275 997 
Q 3138 488 2766 206 
Q 2394 -75 1816 -75 
Q 1088 -75 661 373 
Q 234 822 234 1631 
Q 234 2469 665 2931 
Q 1097 3394 1784 3394 
Q 2450 3394 2872 2941 
Q 3294 2488 3294 1666 
Q 3294 1616 3291 1516 
L 816 1516 
Q 847 969 1125 678 
Q 1403 388 1819 388 
Q 2128 388 2347 550 
Q 2566 713 2694 1069 
z
M 847 1978 
L 2700 1978 
Q 2663 2397 2488 2606 
Q 2219 2931 1791 2931 
Q 1403 2931 1139 2672 
Q 875 2413 847 1978 
z
" transform="scale(0.015625)"/>
       <path id="ArialMT-6e" d="M 422 0 
L 422 3319 
L 928 3319 
L 928 2847 
Q 1294 3394 1984 3394 
Q 2284 3394 2536 3286 
Q 2788 3178 2913 3003 
Q 3038 2828 3088 2588 
Q 3119 2431 3119 2041 
L 3119 0 
L 2556 0 
L 2556 2019 
Q 2556 2363 2490 2533 
Q 2425 2703 2258 2804 
Q 2091 2906 1866 2906 
Q 1506 2906 1245 2678 
Q 984 2450 984 1813 
L 984 0 
L 422 0 
z
" transform="scale(0.015625)"/>
       <path id="ArialMT-73" d="M 197 991 
L 753 1078 
Q 800 744 1014 566 
Q 1228 388 1613 388 
Q 2000 388 2187 545 
Q 2375 703 2375 916 
Q 2375 1106 2209 1216 
Q 2094 1291 1634 1406 
Q 1016 1563 777 1677 
Q 538 1791 414 1992 
Q 291 2194 291 2438 
Q 291 2659 392 2848 
Q 494 3038 669 3163 
Q 800 3259 1026 3326 
Q 1253 3394 1513 3394 
Q 1903 3394 2198 3281 
Q 2494 3169 2634 2976 
Q 2775 2784 2828 2463 
L 2278 2388 
Q 2241 2644 2061 2787 
Q 1881 2931 1553 2931 
Q 1166 2931 1000 2803 
Q 834 2675 834 2503 
Q 834 2394 903 2306 
Q 972 2216 1119 2156 
Q 1203 2125 1616 2013 
Q 2213 1853 2448 1751 
Q 2684 1650 2818 1456 
Q 2953 1263 2953 975 
Q 2953 694 2789 445 
Q 2625 197 2315 61 
Q 2006 -75 1616 -75 
Q 969 -75 630 194 
Q 291 463 197 991 
z
" transform="scale(0.015625)"/>
       <path id="ArialMT-69" d="M 425 3934 
L 425 4581 
L 988 4581 
L 988 3934 
L 425 3934 
z
M 425 0 
L 425 3319 
L 988 3319 
L 988 0 
L 425 0 
z
" transform="scale(0.015625)"/>
       <path id="ArialMT-74" d="M 1650 503 
L 1731 6 
Q 1494 -44 1306 -44 
Q 1000 -44 831 53 
Q 663 150 594 308 
Q 525 466 525 972 
L 525 2881 
L 113 2881 
L 113 3319 
L 525 3319 
L 525 4141 
L 1084 4478 
L 1084 3319 
L 1650 3319 
L 1650 2881 
L 1084 2881 
L 1084 941 
Q 1084 700 1114 631 
Q 1144 563 1211 522 
Q 1278 481 1403 481 
Q 1497 481 1650 503 
z
" transform="scale(0.015625)"/>
       <path id="ArialMT-79" d="M 397 -1278 
L 334 -750 
Q 519 -800 656 -800 
Q 844 -800 956 -737 
Q 1069 -675 1141 -563 
Q 1194 -478 1313 -144 
Q 1328 -97 1363 -6 
L 103 3319 
L 709 3319 
L 1400 1397 
Q 1534 1031 1641 628 
Q 1738 1016 1872 1384 
L 2581 3319 
L 3144 3319 
L 1881 -56 
Q 1678 -603 1566 -809 
Q 1416 -1088 1222 -1217 
Q 1028 -1347 759 -1347 
Q 597 -1347 397 -1278 
z
" transform="scale(0.015625)"/>
      </defs>
      <use xlink:href="#ArialMT-44"/>
      <use xlink:href="#ArialMT-65" x="72.216797"/>
      <use xlink:href="#ArialMT-6e" x="127.832031"/>
      <use xlink:href="#ArialMT-73" x="183.447266"/>
      <use xlink:href="#ArialMT-69" x="233.447266"/>
      <use xlink:href="#ArialMT-74" x="255.664062"/>
      <use xlink:href="#ArialMT-79" x="283.447266"/>
     </g>
    </g>
   </g>
   <g id="line2d_12">
    <path d="M 99.563874 329.062843 
L 118.309658 328.978809 
L 133.306284 328.415701 
L 134.556003 328.226193 
L 135.805722 327.90769 
L 138.30516 326.862753 
L 140.804598 325.614741 
L 142.054317 324.588586 
L 143.304036 323.039673 
L 144.553754 321.028699 
L 147.053192 316.271039 
L 150.802349 308.346467 
L 153.301787 302.736294 
L 154.551506 299.257067 
L 155.801225 294.811398 
L 158.300662 283.743656 
L 160.8001 271.620873 
L 162.049819 264.337633 
L 168.298414 222.416668 
L 169.548133 213.241361 
L 173.297289 183.243163 
L 175.796727 164.685448 
L 178.296165 145.319958 
L 183.29504 108.870577 
L 184.544759 99.642903 
L 185.794478 91.726987 
L 187.044197 85.494108 
L 188.293916 80.470715 
L 189.543635 76.206142 
L 190.793354 72.723389 
L 193.292792 66.938766 
L 197.041948 56.471295 
L 198.291667 54.876683 
L 199.541386 54.748618 
L 200.791105 55.175278 
L 202.040824 54.982543 
L 203.290543 53.732845 
L 204.540262 52.203692 
L 205.789981 51.774374 
L 207.0397 53.149029 
L 209.539137 58.070903 
L 210.788856 59.890751 
L 212.038575 61.917569 
L 213.288294 65.347041 
L 214.538013 70.665381 
L 217.037451 83.405707 
L 218.28717 88.34728 
L 220.786608 95.837859 
L 222.036326 100.656473 
L 223.286045 107.620461 
L 224.535764 117.061183 
L 228.284921 150.074077 
L 229.53464 158.184364 
L 230.784359 164.188403 
L 232.034078 169.36281 
L 233.283797 175.628009 
L 234.533515 184.163803 
L 237.032953 204.729872 
L 238.282672 213.674363 
L 239.532391 220.988401 
L 242.031829 233.424123 
L 244.531267 245.140634 
L 247.030704 255.312591 
L 249.530142 263.959271 
L 250.779861 267.591531 
L 252.02958 270.438896 
L 255.778737 277.213302 
L 257.028456 280.181423 
L 258.278175 283.982018 
L 260.777612 293.711175 
L 262.027331 298.508526 
L 263.27705 302.677378 
L 265.776488 309.802985 
L 268.275926 316.436807 
L 269.525645 319.456739 
L 270.775364 322.143841 
L 272.025083 324.375729 
L 273.274801 326.025529 
L 274.52452 327.057138 
L 275.774239 327.580113 
L 277.023958 327.784192 
L 279.523396 327.796032 
L 285.77199 327.667811 
L 289.521147 327.557362 
L 294.520023 327.062746 
L 298.269179 326.91797 
L 302.018336 326.715396 
L 307.017212 326.73431 
L 312.016087 326.350205 
L 318.264682 326.566728 
L 323.263558 325.981743 
L 327.012714 325.815867 
L 329.512152 325.647832 
L 330.761871 325.704724 
L 332.01159 325.901706 
L 333.261309 326.238281 
L 338.260184 328.000805 
L 342.009341 328.754406 
L 344.508779 329.013599 
L 348.257936 329.062572 
L 348.257936 329.062572 
" clip-path="url(#p4785fcc82a)" style="fill: none; stroke: #d62728; stroke-width: 1.5; stroke-linecap: round"/>
   </g>
   <g id="line2d_13">
    <path d="M 72.732502 329.061889 
L 103.254004 329.063 
L 125.451459 328.95955 
L 129.613482 328.899625 
L 133.775505 328.912248 
L 135.162846 328.793627 
L 136.550187 328.33176 
L 137.937528 326.942604 
L 139.324869 323.841242 
L 140.71221 318.684828 
L 142.099551 312.008544 
L 143.486892 304.560087 
L 144.874233 296.371629 
L 146.261574 287.041794 
L 149.036256 266.395566 
L 150.423597 257.400751 
L 151.810938 250.759751 
L 153.198279 246.508808 
L 155.972961 240.269051 
L 157.360302 236.046178 
L 158.747643 230.70225 
L 160.134984 224.116117 
L 161.522325 216.083305 
L 165.684348 188.811247 
L 168.45903 172.891657 
L 171.233712 157.143274 
L 176.783076 122.252895 
L 178.170417 112.959856 
L 179.557758 104.724518 
L 182.33244 89.876092 
L 183.719781 81.373634 
L 185.107122 72.117495 
L 186.494463 63.663082 
L 187.881804 57.459398 
L 189.269145 53.605435 
L 190.656486 51.583391 
L 192.043827 50.704806 
L 193.431168 49.369445 
L 194.818509 46.11091 
L 196.20585 41.64814 
L 197.59319 38.318153 
L 198.980531 37.641268 
L 200.367872 39.161448 
L 201.755213 41.243275 
L 203.142554 42.559678 
L 205.917236 43.519543 
L 207.304577 44.68348 
L 208.691918 46.519569 
L 210.079259 48.82561 
L 211.4666 51.568614 
L 212.853941 54.767988 
L 214.241282 58.762679 
L 215.628623 64.160584 
L 222.565328 97.56998 
L 223.952669 106.654655 
L 225.34001 118.640677 
L 228.114692 145.764355 
L 229.502033 156.425032 
L 230.889374 164.147402 
L 232.276715 170.452365 
L 233.664056 177.691815 
L 235.051397 187.304317 
L 237.826079 209.827769 
L 239.21342 219.198161 
L 240.600761 226.851836 
L 243.375443 240.21056 
L 244.762784 246.346553 
L 246.150125 251.942378 
L 247.537466 256.877032 
L 248.924807 261.18248 
L 251.699489 268.650665 
L 254.474171 275.046175 
L 255.861512 278.030858 
L 257.248853 281.35162 
L 258.636194 285.431761 
L 260.023535 290.366091 
L 262.798217 300.962702 
L 264.185558 305.477852 
L 268.347581 316.814748 
L 269.734922 320.47065 
L 271.122263 323.54272 
L 272.509604 325.731261 
L 273.896944 327.038719 
L 275.284285 327.66641 
L 276.671626 327.895865 
L 280.833649 328.061177 
L 283.608331 327.980625 
L 287.770354 327.797848 
L 294.707059 327.749618 
L 301.643764 327.234578 
L 307.193128 326.944404 
L 314.129833 326.576268 
L 316.904515 326.70971 
L 319.679197 326.551015 
L 328.003243 325.856004 
L 330.777925 325.644271 
L 332.165266 325.737093 
L 333.552607 326.077443 
L 339.101971 328.228654 
L 341.876653 328.801426 
L 344.651335 329.016259 
L 348.813358 329.062491 
L 348.813358 329.062491 
" clip-path="url(#p4785fcc82a)" style="fill: none; stroke: #2ca02c; stroke-width: 1.5; stroke-linecap: round"/>
   </g>
   <g id="line2d_14">
    <path d="M 72.508163 329.058967 
L 75.282831 328.989559 
L 80.832166 328.656442 
L 86.381501 328.768341 
L 93.31817 328.765622 
L 104.416841 328.659504 
L 111.35351 329.028351 
L 125.226848 328.979223 
L 132.163517 328.826344 
L 133.55085 328.553253 
L 134.938184 327.763488 
L 136.325518 325.983927 
L 137.712852 323.118952 
L 141.874853 313.196009 
L 143.262187 308.635608 
L 144.649521 302.504295 
L 146.036855 294.726325 
L 150.198856 266.493084 
L 151.58619 259.947946 
L 152.973524 256.059666 
L 155.748191 251.327079 
L 157.135525 248.000831 
L 158.522859 243.423542 
L 159.910193 237.579639 
L 161.297526 230.559862 
L 165.459528 206.816225 
L 168.234195 189.141067 
L 171.008863 170.605607 
L 172.396197 162.615196 
L 175.170864 149.023858 
L 176.558198 140.983329 
L 179.332866 122.618143 
L 180.7202 114.994059 
L 183.494867 102.143332 
L 186.269535 88.391995 
L 187.656869 83.03719 
L 189.044202 78.652818 
L 190.431536 74.665608 
L 191.81887 71.191593 
L 193.206204 68.240536 
L 194.593538 65.010604 
L 197.368205 56.717379 
L 198.755539 54.39639 
L 200.142873 54.494177 
L 201.530207 55.657111 
L 202.91754 56.224166 
L 204.304874 56.051746 
L 205.692208 56.456216 
L 207.079542 58.520116 
L 208.466876 62.002774 
L 212.628877 74.283066 
L 215.403545 81.05076 
L 216.790878 85.269444 
L 219.565546 95.086219 
L 220.95288 100.27946 
L 222.340214 106.271209 
L 223.727547 114.153102 
L 225.114881 124.809071 
L 227.889549 150.606433 
L 229.276883 161.400306 
L 230.664216 169.354488 
L 232.05155 175.714229 
L 233.438884 182.711671 
L 234.826218 191.679879 
L 237.600885 211.805372 
L 238.988219 219.988421 
L 244.537554 247.163518 
L 245.924888 253.085926 
L 247.312222 258.250527 
L 248.699556 262.85463 
L 250.08689 267.02385 
L 251.474223 270.665084 
L 252.861557 273.546853 
L 255.636225 277.946868 
L 257.023559 281.121072 
L 258.410892 285.689308 
L 261.18556 296.754121 
L 262.572894 301.668417 
L 263.960228 305.764701 
L 269.509563 319.621032 
L 270.896897 322.631608 
L 272.28423 324.917701 
L 273.671564 326.356765 
L 275.058898 327.065119 
L 276.446232 327.324756 
L 280.608233 327.478973 
L 286.157568 327.289697 
L 290.31957 327.029316 
L 295.868905 326.625513 
L 306.967575 326.090548 
L 309.742243 325.54787 
L 311.129577 325.423371 
L 312.516911 325.500535 
L 316.678912 326.106725 
L 319.45358 326.168174 
L 322.228247 325.929866 
L 326.390249 325.399459 
L 329.164916 325.279764 
L 330.55225 325.345474 
L 331.939584 325.572863 
L 333.326918 325.975771 
L 338.876253 328.074002 
L 341.65092 328.767118 
L 344.425588 329.022223 
L 348.587589 329.062645 
L 348.587589 329.062645 
" clip-path="url(#p4785fcc82a)" style="fill: none; stroke: #ff7f0e; stroke-width: 1.5; stroke-linecap: round"/>
   </g>
   <g id="line2d_15">
    <path d="M 72.275007 329.060661 
L 76.437074 328.965418 
L 79.211786 328.843008 
L 100.022124 328.915613 
L 105.571547 328.93401 
L 111.120971 329.005033 
L 119.445106 328.953986 
L 130.543953 328.462991 
L 131.931309 328.287504 
L 133.318665 327.870703 
L 134.706021 326.795272 
L 136.093376 324.48173 
L 137.480732 320.80965 
L 140.255444 312.64397 
L 141.6428 307.42392 
L 143.030156 297.027303 
L 144.417512 276.572189 
L 145.804867 242.205765 
L 147.192223 193.893939 
L 148.579579 138.921813 
L 149.966935 92.632983 
L 151.354291 72.630202 
L 152.741647 88.136133 
L 154.129003 132.987509 
L 155.516358 189.462714 
L 156.903714 239.647157 
L 158.29107 274.222149 
L 159.678426 293.225684 
L 161.065782 301.461487 
L 162.453138 303.933699 
L 163.840494 304.006216 
L 166.615205 302.981785 
L 168.002561 300.80935 
L 169.389917 292.236612 
L 170.777273 270.843289 
L 172.164629 234.79572 
L 173.551985 191.975027 
L 174.93934 154.929015 
L 176.326696 130.164126 
L 177.714052 115.492605 
L 179.101408 105.998097 
L 183.263476 82.953226 
L 186.038187 65.225082 
L 187.425543 58.653746 
L 188.812899 54.597595 
L 190.200255 52.138538 
L 192.974967 48.297796 
L 194.362323 45.612577 
L 197.137034 37.672865 
L 198.52439 35.174131 
L 199.911746 35.555703 
L 201.299102 38.216225 
L 202.686458 41.298929 
L 204.073814 43.51511 
L 206.848525 46.689208 
L 208.235881 48.657013 
L 209.623237 51.09051 
L 211.010593 54.409774 
L 213.785305 63.199764 
L 215.17266 67.814575 
L 216.560016 72.866572 
L 219.334728 84.587986 
L 220.722084 90.837744 
L 222.10944 97.80078 
L 223.496796 106.513185 
L 224.884152 117.613363 
L 229.046219 155.538621 
L 230.433575 165.042245 
L 234.595643 188.630315 
L 237.370354 207.873003 
L 238.75771 216.478351 
L 241.532422 231.205362 
L 244.307134 244.630607 
L 245.694489 250.183139 
L 248.469201 259.63756 
L 249.856557 263.936087 
L 251.243913 267.609462 
L 252.631269 270.409362 
L 255.40598 274.995396 
L 256.793336 278.277005 
L 258.180692 282.788233 
L 262.34276 299.674741 
L 263.730116 304.216105 
L 267.892183 315.284875 
L 269.279539 319.000122 
L 270.666895 322.28849 
L 272.054251 324.789704 
L 273.441607 326.408732 
L 274.828963 327.281692 
L 276.216318 327.663292 
L 278.99103 327.854932 
L 284.540454 327.875153 
L 288.702521 327.741566 
L 292.864589 327.332699 
L 297.026656 327.398546 
L 303.963436 326.780429 
L 306.738147 326.620494 
L 310.900215 326.164777 
L 315.062283 326.07825 
L 317.836994 325.949046 
L 320.611706 326.10433 
L 323.386418 325.925831 
L 326.161129 325.613288 
L 328.935841 325.551997 
L 331.710553 325.817423 
L 333.097909 326.120342 
L 335.87262 327.075526 
L 338.647332 328.091974 
L 341.422044 328.743764 
L 344.196756 329.006067 
L 348.358823 329.062338 
L 348.358823 329.062338 
" clip-path="url(#p4785fcc82a)" style="fill: none; stroke: #1f77b4; stroke-width: 1.5; stroke-linecap: round"/>
   </g>
   <g id="patch_3">
    <path d="M 52.484375 329.063 
L 52.484375 20.479687 
" style="fill: none; stroke: #cccccc; stroke-width: 0.8; stroke-linejoin: miter; stroke-linecap: square"/>
   </g>
   <g id="patch_4">
    <path d="M 52.484375 329.063 
L 369.094825 329.063 
" style="fill: none; stroke: #cccccc; stroke-width: 0.8; stroke-linejoin: miter; stroke-linecap: square"/>
   </g>
   <g id="text_9">
    <!-- group = G1S | rep = 1 -->
    <g style="fill: #262626" transform="translate(162.517725 14.479687)scale(0.1 -0.1)">
     <defs>
      <path id="ArialMT-67" d="M 319 -275 
L 866 -356 
Q 900 -609 1056 -725 
Q 1266 -881 1628 -881 
Q 2019 -881 2231 -725 
Q 2444 -569 2519 -288 
Q 2563 -116 2559 434 
Q 2191 0 1641 0 
Q 956 0 581 494 
Q 206 988 206 1678 
Q 206 2153 378 2554 
Q 550 2956 876 3175 
Q 1203 3394 1644 3394 
Q 2231 3394 2613 2919 
L 2613 3319 
L 3131 3319 
L 3131 450 
Q 3131 -325 2973 -648 
Q 2816 -972 2473 -1159 
Q 2131 -1347 1631 -1347 
Q 1038 -1347 672 -1080 
Q 306 -813 319 -275 
z
M 784 1719 
Q 784 1066 1043 766 
Q 1303 466 1694 466 
Q 2081 466 2343 764 
Q 2606 1063 2606 1700 
Q 2606 2309 2336 2618 
Q 2066 2928 1684 2928 
Q 1309 2928 1046 2623 
Q 784 2319 784 1719 
z
" transform="scale(0.015625)"/>
      <path id="ArialMT-72" d="M 416 0 
L 416 3319 
L 922 3319 
L 922 2816 
Q 1116 3169 1280 3281 
Q 1444 3394 1641 3394 
Q 1925 3394 2219 3213 
L 2025 2691 
Q 1819 2813 1613 2813 
Q 1428 2813 1281 2702 
Q 1134 2591 1072 2394 
Q 978 2094 978 1738 
L 978 0 
L 416 0 
z
" transform="scale(0.015625)"/>
      <path id="ArialMT-6f" d="M 213 1659 
Q 213 2581 725 3025 
Q 1153 3394 1769 3394 
Q 2453 3394 2887 2945 
Q 3322 2497 3322 1706 
Q 3322 1066 3130 698 
Q 2938 331 2570 128 
Q 2203 -75 1769 -75 
Q 1072 -75 642 372 
Q 213 819 213 1659 
z
M 791 1659 
Q 791 1022 1069 705 
Q 1347 388 1769 388 
Q 2188 388 2466 706 
Q 2744 1025 2744 1678 
Q 2744 2294 2464 2611 
Q 2184 2928 1769 2928 
Q 1347 2928 1069 2612 
Q 791 2297 791 1659 
z
" transform="scale(0.015625)"/>
      <path id="ArialMT-75" d="M 2597 0 
L 2597 488 
Q 2209 -75 1544 -75 
Q 1250 -75 995 37 
Q 741 150 617 320 
Q 494 491 444 738 
Q 409 903 409 1263 
L 409 3319 
L 972 3319 
L 972 1478 
Q 972 1038 1006 884 
Q 1059 663 1231 536 
Q 1403 409 1656 409 
Q 1909 409 2131 539 
Q 2353 669 2445 892 
Q 2538 1116 2538 1541 
L 2538 3319 
L 3100 3319 
L 3100 0 
L 2597 0 
z
" transform="scale(0.015625)"/>
      <path id="ArialMT-70" d="M 422 -1272 
L 422 3319 
L 934 3319 
L 934 2888 
Q 1116 3141 1344 3267 
Q 1572 3394 1897 3394 
Q 2322 3394 2647 3175 
Q 2972 2956 3137 2557 
Q 3303 2159 3303 1684 
Q 3303 1175 3120 767 
Q 2938 359 2589 142 
Q 2241 -75 1856 -75 
Q 1575 -75 1351 44 
Q 1128 163 984 344 
L 984 -1272 
L 422 -1272 
z
M 931 1641 
Q 931 1000 1190 694 
Q 1450 388 1819 388 
Q 2194 388 2461 705 
Q 2728 1022 2728 1688 
Q 2728 2322 2467 2637 
Q 2206 2953 1844 2953 
Q 1484 2953 1207 2617 
Q 931 2281 931 1641 
z
" transform="scale(0.015625)"/>
      <path id="ArialMT-20" transform="scale(0.015625)"/>
      <path id="ArialMT-3d" d="M 3381 2694 
L 356 2694 
L 356 3219 
L 3381 3219 
L 3381 2694 
z
M 3381 1303 
L 356 1303 
L 356 1828 
L 3381 1828 
L 3381 1303 
z
" transform="scale(0.015625)"/>
      <path id="ArialMT-47" d="M 2638 1797 
L 2638 2334 
L 4578 2338 
L 4578 638 
Q 4131 281 3656 101 
Q 3181 -78 2681 -78 
Q 2006 -78 1454 211 
Q 903 500 622 1047 
Q 341 1594 341 2269 
Q 341 2938 620 3517 
Q 900 4097 1425 4378 
Q 1950 4659 2634 4659 
Q 3131 4659 3532 4498 
Q 3934 4338 4162 4050 
Q 4391 3763 4509 3300 
L 3963 3150 
Q 3859 3500 3706 3700 
Q 3553 3900 3268 4020 
Q 2984 4141 2638 4141 
Q 2222 4141 1919 4014 
Q 1616 3888 1430 3681 
Q 1244 3475 1141 3228 
Q 966 2803 966 2306 
Q 966 1694 1177 1281 
Q 1388 869 1791 669 
Q 2194 469 2647 469 
Q 3041 469 3416 620 
Q 3791 772 3984 944 
L 3984 1797 
L 2638 1797 
z
" transform="scale(0.015625)"/>
      <path id="ArialMT-53" d="M 288 1472 
L 859 1522 
Q 900 1178 1048 958 
Q 1197 738 1509 602 
Q 1822 466 2213 466 
Q 2559 466 2825 569 
Q 3091 672 3220 851 
Q 3350 1031 3350 1244 
Q 3350 1459 3225 1620 
Q 3100 1781 2813 1891 
Q 2628 1963 1997 2114 
Q 1366 2266 1113 2400 
Q 784 2572 623 2826 
Q 463 3081 463 3397 
Q 463 3744 659 4045 
Q 856 4347 1234 4503 
Q 1613 4659 2075 4659 
Q 2584 4659 2973 4495 
Q 3363 4331 3572 4012 
Q 3781 3694 3797 3291 
L 3216 3247 
Q 3169 3681 2898 3903 
Q 2628 4125 2100 4125 
Q 1550 4125 1298 3923 
Q 1047 3722 1047 3438 
Q 1047 3191 1225 3031 
Q 1400 2872 2139 2705 
Q 2878 2538 3153 2413 
Q 3553 2228 3743 1945 
Q 3934 1663 3934 1294 
Q 3934 928 3725 604 
Q 3516 281 3123 101 
Q 2731 -78 2241 -78 
Q 1619 -78 1198 103 
Q 778 284 539 648 
Q 300 1013 288 1472 
z
" transform="scale(0.015625)"/>
      <path id="ArialMT-7c" d="M 588 -1347 
L 588 4659 
L 1078 4659 
L 1078 -1347 
L 588 -1347 
z
" transform="scale(0.015625)"/>
     </defs>
     <use xlink:href="#ArialMT-67"/>
     <use xlink:href="#ArialMT-72" x="55.615234"/>
     <use xlink:href="#ArialMT-6f" x="88.916016"/>
     <use xlink:href="#ArialMT-75" x="144.53125"/>
     <use xlink:href="#ArialMT-70" x="200.146484"/>
     <use xlink:href="#ArialMT-20" x="255.761719"/>
     <use xlink:href="#ArialMT-3d" x="283.544922"/>
     <use xlink:href="#ArialMT-20" x="341.943359"/>
     <use xlink:href="#ArialMT-47" x="369.726562"/>
     <use xlink:href="#ArialMT-31" x="447.509766"/>
     <use xlink:href="#ArialMT-53" x="503.125"/>
     <use xlink:href="#ArialMT-20" x="569.824219"/>
     <use xlink:href="#ArialMT-7c" x="597.607422"/>
     <use xlink:href="#ArialMT-20" x="623.583984"/>
     <use xlink:href="#ArialMT-72" x="651.367188"/>
     <use xlink:href="#ArialMT-65" x="684.667969"/>
     <use xlink:href="#ArialMT-70" x="740.283203"/>
     <use xlink:href="#ArialMT-20" x="795.898438"/>
     <use xlink:href="#ArialMT-3d" x="823.681641"/>
     <use xlink:href="#ArialMT-20" x="882.080078"/>
     <use xlink:href="#ArialMT-31" x="909.863281"/>
    </g>
   </g>
  </g>
  <g id="axes_2">
   <g id="patch_5">
    <path d="M 379.894825 329.063 
L 696.505275 329.063 
L 696.505275 20.479687 
L 379.894825 20.479687 
z
" style="fill: #ffffff"/>
   </g>
   <g id="matplotlib.axis_3">
    <g id="xtick_5">
     <g id="line2d_16">
      <path d="M 421.963921 329.063 
L 421.963921 20.479687 
" clip-path="url(#p26a10c7227)" style="fill: none; stroke: #cccccc; stroke-width: 0.8; stroke-linecap: round"/>
     </g>
    </g>
    <g id="xtick_6">
     <g id="line2d_17">
      <path d="M 498.16052 329.063 
L 498.16052 20.479687 
" clip-path="url(#p26a10c7227)" style="fill: none; stroke: #cccccc; stroke-width: 0.8; stroke-linecap: round"/>
     </g>
    </g>
    <g id="xtick_7">
     <g id="line2d_18">
      <path d="M 574.357118 329.063 
L 574.357118 20.479687 
" clip-path="url(#p26a10c7227)" style="fill: none; stroke: #cccccc; stroke-width: 0.8; stroke-linecap: round"/>
     </g>
    </g>
    <g id="xtick_8">
     <g id="line2d_19">
      <path d="M 650.553717 329.063 
L 650.553717 20.479687 
" clip-path="url(#p26a10c7227)" style="fill: none; stroke: #cccccc; stroke-width: 0.8; stroke-linecap: round"/>
     </g>
    </g>
   </g>
   <g id="matplotlib.axis_4">
    <g id="ytick_8">
     <g id="line2d_20">
      <path d="M 379.894825 329.063 
L 696.505275 329.063 
" clip-path="url(#p26a10c7227)" style="fill: none; stroke: #cccccc; stroke-width: 0.8; stroke-linecap: round"/>
     </g>
    </g>
    <g id="ytick_9">
     <g id="line2d_21">
      <path d="M 379.894825 284.526588 
L 696.505275 284.526588 
" clip-path="url(#p26a10c7227)" style="fill: none; stroke: #cccccc; stroke-width: 0.8; stroke-linecap: round"/>
     </g>
    </g>
    <g id="ytick_10">
     <g id="line2d_22">
      <path d="M 379.894825 239.990176 
L 696.505275 239.990176 
" clip-path="url(#p26a10c7227)" style="fill: none; stroke: #cccccc; stroke-width: 0.8; stroke-linecap: round"/>
     </g>
    </g>
    <g id="ytick_11">
     <g id="line2d_23">
      <path d="M 379.894825 195.453764 
L 696.505275 195.453764 
" clip-path="url(#p26a10c7227)" style="fill: none; stroke: #cccccc; stroke-width: 0.8; stroke-linecap: round"/>
     </g>
    </g>
    <g id="ytick_12">
     <g id="line2d_24">
      <path d="M 379.894825 150.917352 
L 696.505275 150.917352 
" clip-path="url(#p26a10c7227)" style="fill: none; stroke: #cccccc; stroke-width: 0.8; stroke-linecap: round"/>
     </g>
    </g>
    <g id="ytick_13">
     <g id="line2d_25">
      <path d="M 379.894825 106.38094 
L 696.505275 106.38094 
" clip-path="url(#p26a10c7227)" style="fill: none; stroke: #cccccc; stroke-width: 0.8; stroke-linecap: round"/>
     </g>
    </g>
    <g id="ytick_14">
     <g id="line2d_26">
      <path d="M 379.894825 61.844528 
L 696.505275 61.844528 
" clip-path="url(#p26a10c7227)" style="fill: none; stroke: #cccccc; stroke-width: 0.8; stroke-linecap: round"/>
     </g>
    </g>
   </g>
   <g id="line2d_27">
    <path d="M 427.918747 329.062772 
L 449.272742 328.945886 
L 456.809446 328.746108 
L 459.321681 328.486423 
L 460.577798 328.235557 
L 461.833916 327.856708 
L 464.34615 326.697787 
L 466.858385 325.427094 
L 469.37062 324.194851 
L 470.626737 323.357299 
L 473.138972 321.166682 
L 476.907324 317.742227 
L 479.419558 315.491762 
L 480.675676 314.236164 
L 481.931793 312.789145 
L 483.18791 311.078418 
L 484.444028 309.075251 
L 485.700145 306.79983 
L 488.21238 301.547386 
L 490.724614 295.421858 
L 494.492966 285.947962 
L 498.261319 276.791594 
L 504.541905 260.582756 
L 507.05414 254.343884 
L 512.078609 241.237795 
L 513.334727 238.617364 
L 514.590844 236.428158 
L 515.846961 234.591176 
L 520.871431 228.067211 
L 522.127548 226.32133 
L 523.383665 224.987545 
L 524.639783 224.40365 
L 525.8959 224.607713 
L 529.664252 226.625011 
L 530.920369 226.764497 
L 533.432604 226.445876 
L 534.688722 226.523325 
L 535.944839 226.956515 
L 537.200956 227.675422 
L 538.457074 228.573789 
L 539.713191 229.643037 
L 540.969308 230.950306 
L 543.481543 234.200125 
L 547.249895 239.249712 
L 548.506012 241.254453 
L 549.76213 243.73062 
L 551.018247 246.784489 
L 552.274364 250.397557 
L 556.042716 262.315775 
L 557.298834 265.672812 
L 559.811068 271.260488 
L 562.323303 277.054979 
L 564.835538 283.253227 
L 567.347772 288.607482 
L 572.372242 298.082152 
L 574.884477 302.373739 
L 576.140594 304.188023 
L 577.396711 305.68223 
L 578.652829 306.797009 
L 579.908946 307.555568 
L 582.421181 308.715214 
L 583.677298 309.59501 
L 584.933415 310.85284 
L 586.189533 312.439119 
L 591.214002 319.450537 
L 593.726237 322.263753 
L 596.238471 324.501249 
L 598.750706 326.237339 
L 600.006823 326.878358 
L 601.262941 327.34873 
L 602.519058 327.654886 
L 605.031293 327.895349 
L 608.799645 327.893444 
L 612.567997 327.712647 
L 618.848584 327.317233 
L 622.616936 327.369207 
L 625.12917 327.375989 
L 641.458696 326.723114 
L 648.9954 326.838782 
L 654.019869 326.602879 
L 656.532104 326.737856 
L 660.300456 327.198437 
L 664.068808 327.971337 
L 667.83716 328.660447 
L 670.349395 328.918036 
L 674.117747 329.049899 
L 677.886099 329.062692 
L 677.886099 329.062692 
" clip-path="url(#p26a10c7227)" style="fill: none; stroke: #d62728; stroke-width: 1.5; stroke-linecap: round"/>
   </g>
   <g id="line2d_28">
    <path d="M 417.868692 329.06289 
L 459.525281 328.975301 
L 462.128818 328.808498 
L 463.430586 328.539107 
L 464.732354 327.974471 
L 466.034123 326.937156 
L 467.335891 325.294509 
L 468.63766 323.039741 
L 469.939428 320.295157 
L 472.542965 313.981874 
L 475.146502 307.457522 
L 476.44827 304.568246 
L 477.750038 302.208192 
L 479.051807 300.449849 
L 480.353575 299.171469 
L 482.957112 296.876739 
L 484.25888 295.271088 
L 485.560649 293.171119 
L 486.862417 290.614951 
L 489.465954 284.587998 
L 494.673027 271.771347 
L 498.578333 262.923318 
L 501.181869 257.465352 
L 505.087175 249.676174 
L 507.690711 243.700465 
L 512.897785 230.535419 
L 514.199553 228.035578 
L 515.501322 226.264776 
L 516.80309 225.184206 
L 518.104858 224.578697 
L 520.708395 223.584815 
L 523.311932 222.073105 
L 524.6137 221.538049 
L 525.915469 221.349687 
L 528.519006 221.573708 
L 531.122542 221.96471 
L 532.424311 222.297665 
L 533.726079 222.80684 
L 535.027848 223.541321 
L 536.329616 224.531159 
L 538.933153 227.131343 
L 541.53669 230.053568 
L 544.140226 233.410563 
L 546.743763 237.383801 
L 548.045531 239.565056 
L 549.3473 241.991672 
L 550.649068 244.824935 
L 551.950837 248.182409 
L 554.554373 256.246343 
L 557.15791 264.474135 
L 558.459679 268.054498 
L 567.572057 290.35913 
L 570.175594 295.410509 
L 571.477363 297.560689 
L 572.779131 299.44469 
L 575.382668 302.576022 
L 577.986205 305.164656 
L 580.589741 307.223026 
L 581.89151 308.173051 
L 583.193278 309.265312 
L 584.495046 310.632985 
L 585.796815 312.303077 
L 589.70212 317.815072 
L 591.003888 319.334541 
L 593.607425 321.908488 
L 597.51273 325.473026 
L 598.814499 326.432988 
L 600.116267 327.174037 
L 601.418036 327.687311 
L 602.719804 328.003886 
L 605.323341 328.270033 
L 609.228646 328.357685 
L 613.133951 328.214165 
L 617.039256 328.049352 
L 623.548098 327.933754 
L 628.755172 327.74528 
L 635.264014 327.680883 
L 640.471087 327.414639 
L 646.979929 327.216835 
L 652.187003 326.930885 
L 656.092308 327.008348 
L 659.997613 327.336227 
L 662.60115 327.71562 
L 667.808224 328.75732 
L 670.41176 328.989766 
L 675.618834 329.061998 
L 676.920602 329.062762 
L 676.920602 329.062762 
" clip-path="url(#p26a10c7227)" style="fill: none; stroke: #2ca02c; stroke-width: 1.5; stroke-linecap: round"/>
   </g>
   <g id="line2d_29">
    <path d="M 397.8768 329.061644 
L 404.894237 328.951064 
L 410.508186 328.903082 
L 417.525623 328.901646 
L 427.350034 328.871122 
L 435.770958 328.960427 
L 445.59537 328.99517 
L 456.823268 328.841036 
L 459.630243 328.6289 
L 461.03373 328.302024 
L 462.437218 327.665716 
L 463.840705 326.643185 
L 465.244192 325.280327 
L 468.051167 321.993378 
L 469.454654 320.055776 
L 470.858142 317.737832 
L 472.261629 314.964421 
L 476.472091 305.606392 
L 477.875578 303.158031 
L 479.279066 301.357156 
L 480.682553 300.071329 
L 483.489528 297.871945 
L 484.893015 296.433122 
L 486.296503 294.582752 
L 487.69999 292.289242 
L 489.103477 289.585075 
L 491.910452 283.36423 
L 496.120914 273.236477 
L 498.927889 266.692129 
L 505.945325 252.375296 
L 510.155787 244.064427 
L 514.366249 236.014675 
L 515.769737 233.77742 
L 517.173224 231.922022 
L 519.980199 229.019689 
L 524.190661 224.692681 
L 525.594148 223.742836 
L 526.997635 223.363106 
L 532.611585 223.309218 
L 534.015072 223.797888 
L 535.418559 224.89182 
L 542.435996 232.494915 
L 543.839483 234.415231 
L 545.242971 236.655869 
L 548.049945 241.830022 
L 549.453433 244.769977 
L 550.85692 248.085224 
L 552.260407 251.850975 
L 556.470869 263.86903 
L 559.277844 270.308809 
L 560.681331 273.493303 
L 566.295281 287.335409 
L 569.102255 292.813316 
L 571.90923 297.450612 
L 576.119692 303.479239 
L 577.52318 305.272066 
L 578.926667 306.775952 
L 581.733642 309.079707 
L 583.137129 310.233089 
L 584.540616 311.583834 
L 587.347591 314.85016 
L 590.154566 318.137864 
L 592.96154 320.799842 
L 597.172002 324.335408 
L 598.57549 325.398209 
L 599.978977 326.284495 
L 601.382464 326.935784 
L 602.785952 327.341072 
L 604.189439 327.539257 
L 606.996414 327.583765 
L 611.206876 327.312776 
L 616.820825 326.715056 
L 619.6278 326.650547 
L 623.838262 326.722477 
L 630.855698 326.227928 
L 636.469648 326.12447 
L 639.276622 326.125415 
L 642.083597 326.431167 
L 644.890572 326.796179 
L 647.697546 326.865916 
L 654.714983 326.565466 
L 657.521958 326.775144 
L 660.328932 327.205686 
L 668.749857 328.773448 
L 671.556831 328.995453 
L 677.170781 329.062521 
L 677.170781 329.062521 
" clip-path="url(#p26a10c7227)" style="fill: none; stroke: #ff7f0e; stroke-width: 1.5; stroke-linecap: round"/>
   </g>
   <g id="line2d_30">
    <path d="M 397.138536 329.061179 
L 404.204972 328.941827 
L 408.444833 328.896329 
L 416.924555 328.97453 
L 436.710574 328.978169 
L 445.190297 328.982051 
L 453.670019 328.736511 
L 456.496594 328.516854 
L 457.909881 328.241514 
L 459.323168 327.683521 
L 460.736455 326.553436 
L 462.149742 324.376172 
L 463.563029 320.512839 
L 464.976316 314.22226 
L 466.389603 304.631202 
L 467.80289 290.540194 
L 469.216177 270.27589 
L 470.629464 242.041572 
L 472.042751 205.066531 
L 474.869326 116.528335 
L 476.282613 80.082111 
L 477.6959 61.72739 
L 479.109187 67.454871 
L 480.522474 96.220642 
L 481.935761 140.108788 
L 483.349048 187.97003 
L 484.762335 230.15015 
L 486.175622 261.481096 
L 487.588909 281.435719 
L 489.002196 292.370598 
L 490.415483 297.481819 
L 491.82877 299.487177 
L 493.242058 300.111265 
L 494.655345 299.986601 
L 496.068632 298.742351 
L 497.481919 295.413378 
L 498.895206 289.264902 
L 500.308493 280.599794 
L 503.135067 261.676449 
L 504.548354 254.233083 
L 505.961641 248.644694 
L 507.374928 244.428393 
L 510.201502 237.748327 
L 513.028077 231.638081 
L 514.441364 228.930006 
L 515.854651 226.603973 
L 517.267938 224.680601 
L 518.681225 223.144125 
L 520.094512 221.958695 
L 521.507799 221.03999 
L 522.921086 220.279958 
L 524.334373 219.656149 
L 525.74766 219.294966 
L 527.160947 219.363521 
L 528.574234 219.873132 
L 531.400809 221.341762 
L 534.227383 222.573253 
L 535.64067 223.394962 
L 537.053957 224.525184 
L 538.467244 225.970153 
L 539.880531 227.706311 
L 541.293818 229.723203 
L 544.120392 234.483784 
L 546.946966 239.804382 
L 548.360253 242.654101 
L 549.773541 245.760305 
L 551.186828 249.239242 
L 554.013402 257.229035 
L 556.839976 265.13129 
L 559.66655 271.677212 
L 562.493124 278.024222 
L 566.732985 288.065498 
L 569.55956 293.799483 
L 572.386134 298.588765 
L 575.212708 302.548698 
L 576.625995 304.227616 
L 578.039282 305.680048 
L 579.452569 306.894021 
L 583.69243 310.015074 
L 585.105717 311.380193 
L 586.519005 313.019032 
L 590.758866 318.450652 
L 593.58544 321.468337 
L 596.412014 324.092818 
L 597.825301 325.260891 
L 599.238588 326.239633 
L 600.651875 326.969169 
L 602.065162 327.445687 
L 603.478449 327.720453 
L 606.305024 327.951374 
L 610.544885 327.982723 
L 614.784746 327.709489 
L 620.437894 327.290693 
L 635.984052 326.791685 
L 638.810626 326.68713 
L 641.6372 326.811245 
L 645.877062 327.055059 
L 648.703636 327.003937 
L 654.356784 326.715325 
L 657.183358 326.860686 
L 660.009932 327.278148 
L 667.076368 328.507134 
L 669.902942 328.853073 
L 672.729516 329.014348 
L 678.382664 329.062534 
L 678.382664 329.062534 
" clip-path="url(#p26a10c7227)" style="fill: none; stroke: #1f77b4; stroke-width: 1.5; stroke-linecap: round"/>
   </g>
   <g id="patch_6">
    <path d="M 379.894825 329.063 
L 379.894825 20.479687 
" style="fill: none; stroke: #cccccc; stroke-width: 0.8; stroke-linejoin: miter; stroke-linecap: square"/>
   </g>
   <g id="patch_7">
    <path d="M 379.894825 329.063 
L 696.505275 329.063 
" style="fill: none; stroke: #cccccc; stroke-width: 0.8; stroke-linejoin: miter; stroke-linecap: square"/>
   </g>
   <g id="text_10">
    <!-- group = G1S | rep = 2 -->
    <g style="fill: #262626" transform="translate(489.928175 14.479687)scale(0.1 -0.1)">
     <use xlink:href="#ArialMT-67"/>
     <use xlink:href="#ArialMT-72" x="55.615234"/>
     <use xlink:href="#ArialMT-6f" x="88.916016"/>
     <use xlink:href="#ArialMT-75" x="144.53125"/>
     <use xlink:href="#ArialMT-70" x="200.146484"/>
     <use xlink:href="#ArialMT-20" x="255.761719"/>
     <use xlink:href="#ArialMT-3d" x="283.544922"/>
     <use xlink:href="#ArialMT-20" x="341.943359"/>
     <use xlink:href="#ArialMT-47" x="369.726562"/>
     <use xlink:href="#ArialMT-31" x="447.509766"/>
     <use xlink:href="#ArialMT-53" x="503.125"/>
     <use xlink:href="#ArialMT-20" x="569.824219"/>
     <use xlink:href="#ArialMT-7c" x="597.607422"/>
     <use xlink:href="#ArialMT-20" x="623.583984"/>
     <use xlink:href="#ArialMT-72" x="651.367188"/>
     <use xlink:href="#ArialMT-65" x="684.667969"/>
     <use xlink:href="#ArialMT-70" x="740.283203"/>
     <use xlink:href="#ArialMT-20" x="795.898438"/>
     <use xlink:href="#ArialMT-3d" x="823.681641"/>
     <use xlink:href="#ArialMT-20" x="882.080078"/>
     <use xlink:href="#ArialMT-32" x="909.863281"/>
    </g>
   </g>
  </g>
  <g id="axes_3">
   <g id="patch_8">
    <path d="M 52.484375 668.486312 
L 369.094825 668.486312 
L 369.094825 359.903 
L 52.484375 359.903 
z
" style="fill: #ffffff"/>
   </g>
   <g id="matplotlib.axis_5">
    <g id="xtick_9">
     <g id="line2d_31">
      <path d="M 94.553471 668.486312 
L 94.553471 359.903 
" clip-path="url(#p8036f8c5b7)" style="fill: none; stroke: #cccccc; stroke-width: 0.8; stroke-linecap: round"/>
     </g>
     <g id="text_11">
      <!-- $\mathdefault{10^{1}}$ -->
      <g style="fill: #262626" transform="translate(86.703471 685.798812)scale(0.1 -0.1)">
       <use xlink:href="#ArialMT-31" transform="translate(0 0.99375)"/>
       <use xlink:href="#ArialMT-30" transform="translate(55.615234 0.99375)"/>
       <use xlink:href="#ArialMT-31" transform="translate(112.972813 70.6875)scale(0.7)"/>
      </g>
     </g>
    </g>
    <g id="xtick_10">
     <g id="line2d_32">
      <path d="M 170.75007 668.486312 
L 170.75007 359.903 
" clip-path="url(#p8036f8c5b7)" style="fill: none; stroke: #cccccc; stroke-width: 0.8; stroke-linecap: round"/>
     </g>
     <g id="text_12">
      <!-- $\mathdefault{10^{3}}$ -->
      <g style="fill: #262626" transform="translate(162.90007 685.798812)scale(0.1 -0.1)">
       <use xlink:href="#ArialMT-31" transform="translate(0 0.99375)"/>
       <use xlink:href="#ArialMT-30" transform="translate(55.615234 0.99375)"/>
       <use xlink:href="#ArialMT-33" transform="translate(112.972813 70.6875)scale(0.7)"/>
      </g>
     </g>
    </g>
    <g id="xtick_11">
     <g id="line2d_33">
      <path d="M 246.946668 668.486312 
L 246.946668 359.903 
" clip-path="url(#p8036f8c5b7)" style="fill: none; stroke: #cccccc; stroke-width: 0.8; stroke-linecap: round"/>
     </g>
     <g id="text_13">
      <!-- $\mathdefault{10^{5}}$ -->
      <g style="fill: #262626" transform="translate(239.096668 685.698812)scale(0.1 -0.1)">
       <use xlink:href="#ArialMT-31" transform="translate(0 0.879688)"/>
       <use xlink:href="#ArialMT-30" transform="translate(55.615234 0.879688)"/>
       <use xlink:href="#ArialMT-35" transform="translate(112.972813 70.573438)scale(0.7)"/>
      </g>
     </g>
    </g>
    <g id="xtick_12">
     <g id="line2d_34">
      <path d="M 323.143267 668.486312 
L 323.143267 359.903 
" clip-path="url(#p8036f8c5b7)" style="fill: none; stroke: #cccccc; stroke-width: 0.8; stroke-linecap: round"/>
     </g>
     <g id="text_14">
      <!-- $\mathdefault{10^{7}}$ -->
      <g style="fill: #262626" transform="translate(315.293267 685.698812)scale(0.1 -0.1)">
       <defs>
        <path id="ArialMT-37" d="M 303 3981 
L 303 4522 
L 3269 4522 
L 3269 4084 
Q 2831 3619 2401 2847 
Q 1972 2075 1738 1259 
Q 1569 684 1522 0 
L 944 0 
Q 953 541 1156 1306 
Q 1359 2072 1739 2783 
Q 2119 3494 2547 3981 
L 303 3981 
z
" transform="scale(0.015625)"/>
       </defs>
       <use xlink:href="#ArialMT-31" transform="translate(0 0.846875)"/>
       <use xlink:href="#ArialMT-30" transform="translate(55.615234 0.846875)"/>
       <use xlink:href="#ArialMT-37" transform="translate(112.972813 70.540625)scale(0.7)"/>
      </g>
     </g>
    </g>
    <g id="text_15">
     <!-- Insert Size (bp) -->
     <g style="fill: #262626" transform="translate(176.890381 699.066)scale(0.1 -0.1)">
      <defs>
       <path id="ArialMT-49" d="M 597 0 
L 597 4581 
L 1203 4581 
L 1203 0 
L 597 0 
z
" transform="scale(0.015625)"/>
       <path id="ArialMT-7a" d="M 125 0 
L 125 456 
L 2238 2881 
Q 1878 2863 1603 2863 
L 250 2863 
L 250 3319 
L 2963 3319 
L 2963 2947 
L 1166 841 
L 819 456 
Q 1197 484 1528 484 
L 3063 484 
L 3063 0 
L 125 0 
z
" transform="scale(0.015625)"/>
       <path id="ArialMT-28" d="M 1497 -1347 
Q 1031 -759 709 28 
Q 388 816 388 1659 
Q 388 2403 628 3084 
Q 909 3875 1497 4659 
L 1900 4659 
Q 1522 4009 1400 3731 
Q 1209 3300 1100 2831 
Q 966 2247 966 1656 
Q 966 153 1900 -1347 
L 1497 -1347 
z
" transform="scale(0.015625)"/>
       <path id="ArialMT-62" d="M 941 0 
L 419 0 
L 419 4581 
L 981 4581 
L 981 2947 
Q 1338 3394 1891 3394 
Q 2197 3394 2470 3270 
Q 2744 3147 2920 2923 
Q 3097 2700 3197 2384 
Q 3297 2069 3297 1709 
Q 3297 856 2875 390 
Q 2453 -75 1863 -75 
Q 1275 -75 941 416 
L 941 0 
z
M 934 1684 
Q 934 1088 1097 822 
Q 1363 388 1816 388 
Q 2184 388 2453 708 
Q 2722 1028 2722 1663 
Q 2722 2313 2464 2622 
Q 2206 2931 1841 2931 
Q 1472 2931 1203 2611 
Q 934 2291 934 1684 
z
" transform="scale(0.015625)"/>
       <path id="ArialMT-29" d="M 791 -1347 
L 388 -1347 
Q 1322 153 1322 1656 
Q 1322 2244 1188 2822 
Q 1081 3291 891 3722 
Q 769 4003 388 4659 
L 791 4659 
Q 1378 3875 1659 3084 
Q 1900 2403 1900 1659 
Q 1900 816 1576 28 
Q 1253 -759 791 -1347 
z
" transform="scale(0.015625)"/>
      </defs>
      <use xlink:href="#ArialMT-49"/>
      <use xlink:href="#ArialMT-6e" x="27.783203"/>
      <use xlink:href="#ArialMT-73" x="83.398438"/>
      <use xlink:href="#ArialMT-65" x="133.398438"/>
      <use xlink:href="#ArialMT-72" x="189.013672"/>
      <use xlink:href="#ArialMT-74" x="222.314453"/>
      <use xlink:href="#ArialMT-20" x="250.097656"/>
      <use xlink:href="#ArialMT-53" x="277.880859"/>
      <use xlink:href="#ArialMT-69" x="344.580078"/>
      <use xlink:href="#ArialMT-7a" x="366.796875"/>
      <use xlink:href="#ArialMT-65" x="416.796875"/>
      <use xlink:href="#ArialMT-20" x="472.412109"/>
      <use xlink:href="#ArialMT-28" x="500.195312"/>
      <use xlink:href="#ArialMT-62" x="533.496094"/>
      <use xlink:href="#ArialMT-70" x="589.111328"/>
      <use xlink:href="#ArialMT-29" x="644.726562"/>
     </g>
    </g>
   </g>
   <g id="matplotlib.axis_6">
    <g id="ytick_15">
     <g id="line2d_35">
      <path d="M 52.484375 668.486312 
L 369.094825 668.486312 
" clip-path="url(#p8036f8c5b7)" style="fill: none; stroke: #cccccc; stroke-width: 0.8; stroke-linecap: round"/>
     </g>
     <g id="text_16">
      <!-- 0.000 -->
      <g style="fill: #262626" transform="translate(20.4625 672.065219)scale(0.1 -0.1)">
       <use xlink:href="#ArialMT-30"/>
       <use xlink:href="#ArialMT-2e" x="55.615234"/>
       <use xlink:href="#ArialMT-30" x="83.398438"/>
       <use xlink:href="#ArialMT-30" x="139.013672"/>
       <use xlink:href="#ArialMT-30" x="194.628906"/>
      </g>
     </g>
    </g>
    <g id="ytick_16">
     <g id="line2d_36">
      <path d="M 52.484375 623.097607 
L 369.094825 623.097607 
" clip-path="url(#p8036f8c5b7)" style="fill: none; stroke: #cccccc; stroke-width: 0.8; stroke-linecap: round"/>
     </g>
     <g id="text_17">
      <!-- 0.005 -->
      <g style="fill: #262626" transform="translate(20.4625 626.676513)scale(0.1 -0.1)">
       <use xlink:href="#ArialMT-30"/>
       <use xlink:href="#ArialMT-2e" x="55.615234"/>
       <use xlink:href="#ArialMT-30" x="83.398438"/>
       <use xlink:href="#ArialMT-30" x="139.013672"/>
       <use xlink:href="#ArialMT-35" x="194.628906"/>
      </g>
     </g>
    </g>
    <g id="ytick_17">
     <g id="line2d_37">
      <path d="M 52.484375 577.708901 
L 369.094825 577.708901 
" clip-path="url(#p8036f8c5b7)" style="fill: none; stroke: #cccccc; stroke-width: 0.8; stroke-linecap: round"/>
     </g>
     <g id="text_18">
      <!-- 0.010 -->
      <g style="fill: #262626" transform="translate(20.4625 581.287807)scale(0.1 -0.1)">
       <use xlink:href="#ArialMT-30"/>
       <use xlink:href="#ArialMT-2e" x="55.615234"/>
       <use xlink:href="#ArialMT-30" x="83.398438"/>
       <use xlink:href="#ArialMT-31" x="139.013672"/>
       <use xlink:href="#ArialMT-30" x="194.628906"/>
      </g>
     </g>
    </g>
    <g id="ytick_18">
     <g id="line2d_38">
      <path d="M 52.484375 532.320195 
L 369.094825 532.320195 
" clip-path="url(#p8036f8c5b7)" style="fill: none; stroke: #cccccc; stroke-width: 0.8; stroke-linecap: round"/>
     </g>
     <g id="text_19">
      <!-- 0.015 -->
      <g style="fill: #262626" transform="translate(20.4625 535.899102)scale(0.1 -0.1)">
       <use xlink:href="#ArialMT-30"/>
       <use xlink:href="#ArialMT-2e" x="55.615234"/>
       <use xlink:href="#ArialMT-30" x="83.398438"/>
       <use xlink:href="#ArialMT-31" x="139.013672"/>
       <use xlink:href="#ArialMT-35" x="194.628906"/>
      </g>
     </g>
    </g>
    <g id="ytick_19">
     <g id="line2d_39">
      <path d="M 52.484375 486.93149 
L 369.094825 486.93149 
" clip-path="url(#p8036f8c5b7)" style="fill: none; stroke: #cccccc; stroke-width: 0.8; stroke-linecap: round"/>
     </g>
     <g id="text_20">
      <!-- 0.020 -->
      <g style="fill: #262626" transform="translate(20.4625 490.510396)scale(0.1 -0.1)">
       <use xlink:href="#ArialMT-30"/>
       <use xlink:href="#ArialMT-2e" x="55.615234"/>
       <use xlink:href="#ArialMT-30" x="83.398438"/>
       <use xlink:href="#ArialMT-32" x="139.013672"/>
       <use xlink:href="#ArialMT-30" x="194.628906"/>
      </g>
     </g>
    </g>
    <g id="ytick_20">
     <g id="line2d_40">
      <path d="M 52.484375 441.542784 
L 369.094825 441.542784 
" clip-path="url(#p8036f8c5b7)" style="fill: none; stroke: #cccccc; stroke-width: 0.8; stroke-linecap: round"/>
     </g>
     <g id="text_21">
      <!-- 0.025 -->
      <g style="fill: #262626" transform="translate(20.4625 445.12169)scale(0.1 -0.1)">
       <use xlink:href="#ArialMT-30"/>
       <use xlink:href="#ArialMT-2e" x="55.615234"/>
       <use xlink:href="#ArialMT-30" x="83.398438"/>
       <use xlink:href="#ArialMT-32" x="139.013672"/>
       <use xlink:href="#ArialMT-35" x="194.628906"/>
      </g>
     </g>
    </g>
    <g id="ytick_21">
     <g id="line2d_41">
      <path d="M 52.484375 396.154078 
L 369.094825 396.154078 
" clip-path="url(#p8036f8c5b7)" style="fill: none; stroke: #cccccc; stroke-width: 0.8; stroke-linecap: round"/>
     </g>
     <g id="text_22">
      <!-- 0.030 -->
      <g style="fill: #262626" transform="translate(20.4625 399.732984)scale(0.1 -0.1)">
       <use xlink:href="#ArialMT-30"/>
       <use xlink:href="#ArialMT-2e" x="55.615234"/>
       <use xlink:href="#ArialMT-30" x="83.398438"/>
       <use xlink:href="#ArialMT-33" x="139.013672"/>
       <use xlink:href="#ArialMT-30" x="194.628906"/>
      </g>
     </g>
    </g>
    <g id="text_23">
     <!-- Density -->
     <g style="fill: #262626" transform="translate(14.357813 530.866531)rotate(-90)scale(0.1 -0.1)">
      <use xlink:href="#ArialMT-44"/>
      <use xlink:href="#ArialMT-65" x="72.216797"/>
      <use xlink:href="#ArialMT-6e" x="127.832031"/>
      <use xlink:href="#ArialMT-73" x="183.447266"/>
      <use xlink:href="#ArialMT-69" x="233.447266"/>
      <use xlink:href="#ArialMT-74" x="255.664062"/>
      <use xlink:href="#ArialMT-79" x="283.447266"/>
     </g>
    </g>
   </g>
   <g id="line2d_42">
    <path d="M 98.457105 668.486034 
L 112.340809 668.380002 
L 121.175893 668.128264 
L 127.486667 667.689429 
L 131.273132 667.219652 
L 132.535286 666.948928 
L 133.797441 666.562675 
L 135.059596 666.030432 
L 138.846061 663.925158 
L 141.37037 662.435919 
L 142.632525 661.370765 
L 143.89468 659.883275 
L 145.156835 657.904978 
L 146.41899 655.456198 
L 150.205454 647.047008 
L 151.467609 644.779756 
L 153.991919 641.069501 
L 155.254074 638.889601 
L 156.516229 636.092873 
L 157.778383 632.644468 
L 159.040538 628.67001 
L 161.564848 619.695864 
L 164.089158 609.695488 
L 166.613467 598.41234 
L 169.137777 585.154869 
L 172.924242 562.906492 
L 175.448551 546.095907 
L 180.497171 509.237404 
L 183.021481 490.760342 
L 185.54579 473.878015 
L 188.0701 458.518478 
L 189.332255 451.577008 
L 190.59441 445.483545 
L 191.856565 440.258208 
L 194.380874 431.351749 
L 195.643029 427.357673 
L 196.905184 423.813748 
L 198.167339 420.877985 
L 199.429494 418.54272 
L 201.953803 414.853474 
L 203.215958 413.156975 
L 204.478113 411.660996 
L 205.740268 410.659883 
L 207.002423 410.438386 
L 208.264578 411.11067 
L 209.526733 412.519838 
L 212.051042 415.856158 
L 213.313197 417.039606 
L 214.575352 417.81318 
L 217.099662 418.739149 
L 218.361816 419.219586 
L 219.623971 420.025476 
L 220.886126 421.527627 
L 222.148281 424.194145 
L 223.410436 428.467026 
L 224.672591 434.479767 
L 228.459055 456.603144 
L 229.72121 462.495676 
L 233.507675 477.450143 
L 234.76983 484.203885 
L 237.294139 499.082159 
L 238.556294 505.334939 
L 248.653533 547.709503 
L 251.177843 558.825153 
L 252.439998 563.665241 
L 254.964307 571.998313 
L 256.226462 576.810272 
L 257.488617 583.034333 
L 258.750772 590.848709 
L 262.537236 616.798476 
L 263.799391 623.685423 
L 266.323701 635.021226 
L 270.110166 650.769624 
L 271.37232 655.138094 
L 272.634475 658.617823 
L 273.89663 661.141605 
L 275.158785 662.78675 
L 276.42094 663.739832 
L 277.683095 664.239086 
L 280.207404 664.66933 
L 282.731714 664.901715 
L 283.993869 664.920096 
L 285.256024 664.820807 
L 287.780334 664.307803 
L 290.304643 663.762864 
L 292.828953 663.553129 
L 295.353263 663.527042 
L 296.615417 663.423423 
L 299.139727 662.89432 
L 301.664037 662.251267 
L 304.188347 661.926326 
L 307.974811 661.745281 
L 311.761276 661.271455 
L 313.023431 661.284844 
L 316.809895 661.692595 
L 318.07205 661.647166 
L 320.59636 661.148453 
L 324.382824 660.224487 
L 326.907134 659.872425 
L 329.431444 659.797715 
L 330.693599 660.006271 
L 331.955753 660.471524 
L 333.217908 661.211574 
L 334.480063 662.191474 
L 338.266528 665.572036 
L 339.528683 666.476837 
L 340.790837 667.1833 
L 342.052992 667.702898 
L 343.315147 668.059299 
L 345.839457 668.400473 
L 349.625921 668.484051 
L 349.625921 668.484051 
" clip-path="url(#p8036f8c5b7)" style="fill: none; stroke: #d62728; stroke-width: 1.5; stroke-linecap: round"/>
   </g>
   <g id="line2d_43">
    <path d="M 71.050567 668.476825 
L 73.856941 668.368576 
L 76.663315 667.958722 
L 78.066502 667.724046 
L 79.469689 667.632567 
L 80.872876 667.745068 
L 85.082436 668.381037 
L 87.88881 668.47829 
L 106.13024 668.455611 
L 128.581231 668.35159 
L 134.193978 668.141498 
L 135.597165 667.876826 
L 137.000352 667.209934 
L 138.403539 665.868811 
L 139.806726 663.68027 
L 141.209913 660.705868 
L 144.016287 653.474017 
L 146.822661 645.452566 
L 148.225847 640.892472 
L 149.629034 635.754257 
L 151.032221 630.006498 
L 153.838595 617.155472 
L 156.644969 603.760083 
L 158.048156 597.486032 
L 159.451343 591.794956 
L 165.06409 571.006616 
L 166.467277 565.065134 
L 167.870464 558.536505 
L 170.676838 543.67572 
L 174.886399 519.599866 
L 177.692773 501.867663 
L 181.902333 473.691211 
L 186.111894 448.275838 
L 187.515081 440.115509 
L 188.918268 432.798977 
L 190.321455 426.851236 
L 191.724642 422.16954 
L 194.531016 413.783439 
L 197.337389 404.85983 
L 198.740576 401.43326 
L 200.143763 399.361909 
L 201.54695 398.443362 
L 202.950137 398.127449 
L 204.353324 398.109823 
L 205.756511 398.563973 
L 207.159698 399.782067 
L 209.966072 403.657839 
L 211.369258 405.033386 
L 212.772445 405.574924 
L 214.175632 405.75241 
L 215.578819 406.276377 
L 216.982006 407.417114 
L 218.385193 408.94824 
L 219.78838 410.729226 
L 221.191567 413.121209 
L 222.594754 416.830013 
L 223.997941 422.438991 
L 225.401128 429.966654 
L 228.207501 447.457182 
L 229.610688 455.267333 
L 233.820249 475.766375 
L 239.432997 508.848692 
L 242.239371 521.843311 
L 245.045744 533.646296 
L 249.255305 549.748717 
L 253.464866 567.574944 
L 256.27124 578.935922 
L 257.674427 585.722411 
L 259.077613 593.808354 
L 261.883987 611.770302 
L 263.287174 620.002629 
L 266.093548 634.204127 
L 268.899922 647.362414 
L 270.303109 653.253975 
L 271.706296 658.06439 
L 273.109483 661.509833 
L 274.512669 663.632008 
L 275.915856 664.742761 
L 277.319043 665.260365 
L 280.125417 665.708316 
L 282.931791 665.833692 
L 284.334978 665.703682 
L 289.947726 664.805314 
L 294.157286 664.593592 
L 298.366847 664.583253 
L 299.770034 664.407219 
L 305.382782 663.070352 
L 318.011464 662.27503 
L 319.414651 662.075018 
L 322.221024 661.353611 
L 323.624211 660.985901 
L 325.027398 660.776441 
L 327.833772 660.788482 
L 330.640146 661.063232 
L 332.043333 661.363669 
L 333.44652 661.856955 
L 334.849707 662.584879 
L 336.252894 663.53803 
L 340.462454 666.721788 
L 341.865641 667.468845 
L 343.268828 667.966433 
L 344.672015 668.254165 
L 347.478389 668.457661 
L 350.284763 668.484679 
L 350.284763 668.484679 
" clip-path="url(#p8036f8c5b7)" style="fill: none; stroke: #2ca02c; stroke-width: 1.5; stroke-linecap: round"/>
   </g>
   <g id="line2d_44">
    <path d="M 70.675091 668.461667 
L 72.080386 668.392755 
L 73.485681 668.2052 
L 74.890976 667.817689 
L 77.701565 666.607837 
L 79.10686 666.262968 
L 80.512155 666.389606 
L 84.728039 667.879492 
L 86.133334 668.080222 
L 88.943924 668.159127 
L 97.375693 668.07508 
L 102.996872 667.890684 
L 112.833935 668.443105 
L 124.076294 668.408651 
L 129.697473 668.237818 
L 131.102768 668.14206 
L 132.508063 667.933892 
L 133.913357 667.464583 
L 135.318652 666.558219 
L 136.723947 665.146516 
L 139.534537 661.46971 
L 142.345126 657.454014 
L 143.750421 654.996982 
L 145.155716 652.064104 
L 146.561011 648.62085 
L 147.966305 644.618666 
L 149.3716 639.99948 
L 150.776895 634.762037 
L 153.587485 622.8385 
L 156.398074 610.575357 
L 157.803369 605.258672 
L 159.208664 600.777142 
L 162.019253 592.942147 
L 163.424548 588.408891 
L 164.829843 582.960899 
L 166.235138 576.663176 
L 169.045728 562.608946 
L 171.856317 547.697757 
L 174.666907 531.407415 
L 180.288086 496.561453 
L 183.098676 480.463835 
L 185.909265 465.643795 
L 188.719855 452.693733 
L 191.530444 441.434969 
L 195.746329 424.584575 
L 197.151624 418.965922 
L 198.556918 413.972181 
L 199.962213 410.122168 
L 201.367508 407.719779 
L 202.772803 406.784021 
L 204.178098 407.147667 
L 205.583392 408.544726 
L 209.799277 414.47038 
L 211.204572 415.563792 
L 212.609866 416.105659 
L 214.015161 416.499864 
L 215.420456 417.183562 
L 216.825751 418.278159 
L 219.63634 420.918631 
L 221.041635 422.719234 
L 222.44693 425.777928 
L 223.852225 430.81878 
L 225.25752 437.915192 
L 228.068109 454.622364 
L 229.473404 461.93533 
L 233.689288 480.113267 
L 235.094583 487.531157 
L 237.905173 503.597693 
L 239.310468 510.66229 
L 242.121057 522.880802 
L 247.742236 546.763265 
L 250.552826 559.69563 
L 251.958121 565.437152 
L 254.768711 575.354453 
L 256.174005 581.09258 
L 257.5793 588.167138 
L 260.38989 605.172906 
L 261.795185 613.66391 
L 263.200479 621.320754 
L 264.605774 627.984101 
L 267.416364 639.438445 
L 270.226953 650.062711 
L 271.632248 654.672414 
L 273.037543 658.332477 
L 274.442838 660.870641 
L 275.848133 662.355336 
L 277.253427 663.033375 
L 278.658722 663.215471 
L 281.469312 663.051526 
L 285.685196 662.752487 
L 288.495786 662.674002 
L 295.52226 662.745078 
L 296.927555 662.423682 
L 299.738144 661.330433 
L 302.548734 660.257111 
L 303.954029 659.96791 
L 305.359323 659.87519 
L 308.169913 660.088234 
L 313.791092 660.707399 
L 316.601682 660.81942 
L 320.817566 660.451606 
L 325.033451 660.042813 
L 327.84404 659.595857 
L 329.249335 659.55951 
L 330.65463 659.830859 
L 332.059925 660.459145 
L 333.46522 661.378223 
L 336.275809 663.633419 
L 339.086399 665.886828 
L 340.491694 666.811863 
L 341.896988 667.515774 
L 343.302283 667.988462 
L 344.707578 668.264351 
L 347.518168 668.45931 
L 350.328757 668.484758 
L 350.328757 668.484758 
" clip-path="url(#p8036f8c5b7)" style="fill: none; stroke: #ff7f0e; stroke-width: 1.5; stroke-linecap: round"/>
   </g>
   <g id="line2d_45">
    <path d="M 70.231312 668.476022 
L 73.052003 668.378886 
L 75.872694 668.007152 
L 78.693385 667.564947 
L 80.10373 667.54421 
L 87.155457 668.221624 
L 95.61753 668.236098 
L 118.183057 668.19271 
L 122.414093 667.932243 
L 126.64513 667.485347 
L 129.465821 666.984087 
L 130.876166 666.525479 
L 132.286512 665.748744 
L 133.696857 664.406694 
L 135.107202 662.182847 
L 136.517548 658.834266 
L 137.927893 654.372726 
L 139.338239 649.039721 
L 140.748584 642.960783 
L 142.15893 635.742178 
L 143.569275 626.377088 
L 144.979621 613.498207 
L 146.389966 595.74075 
L 147.800311 572.071922 
L 149.210657 542.143427 
L 150.621002 506.729035 
L 153.441693 430.224337 
L 154.852039 398.26408 
L 156.262384 378.035932 
L 157.67273 374.597438 
L 159.083075 390.339684 
L 160.493421 423.284968 
L 164.724457 553.971488 
L 166.134802 585.035927 
L 167.545148 604.683408 
L 168.955493 612.597246 
L 170.365839 608.785031 
L 171.776184 594.182722 
L 173.18653 571.855672 
L 176.00722 523.531451 
L 177.417566 504.648258 
L 178.827911 490.009337 
L 180.238257 478.271799 
L 183.058948 458.644978 
L 185.879639 441.313682 
L 187.289984 433.740328 
L 188.700329 427.155361 
L 190.110675 421.637189 
L 191.52102 417.11996 
L 192.931366 413.344661 
L 197.162402 402.976801 
L 198.572748 399.866798 
L 199.983093 397.478879 
L 201.393438 395.857998 
L 202.803784 394.748589 
L 204.214129 393.958551 
L 205.624475 393.603752 
L 207.03482 393.915846 
L 208.445166 394.887895 
L 211.265857 397.68882 
L 212.676202 399.21372 
L 214.086547 400.972699 
L 215.496893 403.147532 
L 216.907238 405.817999 
L 218.317584 408.960585 
L 219.727929 412.562438 
L 221.138275 416.767929 
L 222.54862 421.900173 
L 223.958966 428.249549 
L 229.600347 457.767114 
L 233.831384 474.617064 
L 235.241729 481.872737 
L 239.472765 506.025509 
L 240.883111 512.924222 
L 243.703802 525.105221 
L 246.524493 536.95307 
L 252.165874 562.798434 
L 254.986565 574.34182 
L 256.396911 580.918057 
L 257.807256 588.574647 
L 263.448638 622.216073 
L 266.269329 635.497859 
L 269.09002 647.446335 
L 270.500365 652.790889 
L 271.910711 657.286932 
L 273.321056 660.682996 
L 274.731402 662.935785 
L 276.141747 664.206645 
L 277.552092 664.776554 
L 278.962438 664.936075 
L 281.783129 664.79883 
L 297.296929 663.3286 
L 300.11762 662.636989 
L 302.93831 661.89392 
L 305.759001 661.619019 
L 309.990038 661.308226 
L 312.810729 661.230488 
L 317.041765 661.491843 
L 319.862456 661.287783 
L 322.683147 661.069407 
L 325.503838 661.039633 
L 329.734874 661.210406 
L 331.145219 661.332617 
L 332.555565 661.602687 
L 333.96591 662.133811 
L 335.376256 662.96895 
L 339.607292 666.207286 
L 341.017637 667.05274 
L 342.427983 667.66809 
L 343.838328 668.069085 
L 345.248674 668.299717 
L 348.069365 668.462816 
L 350.890056 668.484845 
L 350.890056 668.484845 
" clip-path="url(#p8036f8c5b7)" style="fill: none; stroke: #1f77b4; stroke-width: 1.5; stroke-linecap: round"/>
   </g>
   <g id="patch_9">
    <path d="M 52.484375 668.486312 
L 52.484375 359.903 
" style="fill: none; stroke: #cccccc; stroke-width: 0.8; stroke-linejoin: miter; stroke-linecap: square"/>
   </g>
   <g id="patch_10">
    <path d="M 52.484375 668.486312 
L 369.094825 668.486312 
" style="fill: none; stroke: #cccccc; stroke-width: 0.8; stroke-linejoin: miter; stroke-linecap: square"/>
   </g>
   <g id="text_24">
    <!-- group = AS | rep = 1 -->
    <g style="fill: #262626" transform="translate(166.1271 353.903)scale(0.1 -0.1)">
     <defs>
      <path id="ArialMT-41" d="M -9 0 
L 1750 4581 
L 2403 4581 
L 4278 0 
L 3588 0 
L 3053 1388 
L 1138 1388 
L 634 0 
L -9 0 
z
M 1313 1881 
L 2866 1881 
L 2388 3150 
Q 2169 3728 2063 4100 
Q 1975 3659 1816 3225 
L 1313 1881 
z
" transform="scale(0.015625)"/>
     </defs>
     <use xlink:href="#ArialMT-67"/>
     <use xlink:href="#ArialMT-72" x="55.615234"/>
     <use xlink:href="#ArialMT-6f" x="88.916016"/>
     <use xlink:href="#ArialMT-75" x="144.53125"/>
     <use xlink:href="#ArialMT-70" x="200.146484"/>
     <use xlink:href="#ArialMT-20" x="255.761719"/>
     <use xlink:href="#ArialMT-3d" x="283.544922"/>
     <use xlink:href="#ArialMT-20" x="341.943359"/>
     <use xlink:href="#ArialMT-41" x="364.226562"/>
     <use xlink:href="#ArialMT-53" x="430.925781"/>
     <use xlink:href="#ArialMT-20" x="497.625"/>
     <use xlink:href="#ArialMT-7c" x="525.408203"/>
     <use xlink:href="#ArialMT-20" x="551.384766"/>
     <use xlink:href="#ArialMT-72" x="579.167969"/>
     <use xlink:href="#ArialMT-65" x="612.46875"/>
     <use xlink:href="#ArialMT-70" x="668.083984"/>
     <use xlink:href="#ArialMT-20" x="723.699219"/>
     <use xlink:href="#ArialMT-3d" x="751.482422"/>
     <use xlink:href="#ArialMT-20" x="809.880859"/>
     <use xlink:href="#ArialMT-31" x="837.664062"/>
    </g>
   </g>
  </g>
  <g id="axes_4">
   <g id="patch_11">
    <path d="M 379.894825 668.486312 
L 696.505275 668.486312 
L 696.505275 359.903 
L 379.894825 359.903 
z
" style="fill: #ffffff"/>
   </g>
   <g id="matplotlib.axis_7">
    <g id="xtick_13">
     <g id="line2d_46">
      <path d="M 421.963921 668.486312 
L 421.963921 359.903 
" clip-path="url(#pc7013c55b1)" style="fill: none; stroke: #cccccc; stroke-width: 0.8; stroke-linecap: round"/>
     </g>
     <g id="text_25">
      <!-- $\mathdefault{10^{1}}$ -->
      <g style="fill: #262626" transform="translate(414.113921 685.798812)scale(0.1 -0.1)">
       <use xlink:href="#ArialMT-31" transform="translate(0 0.99375)"/>
       <use xlink:href="#ArialMT-30" transform="translate(55.615234 0.99375)"/>
       <use xlink:href="#ArialMT-31" transform="translate(112.972813 70.6875)scale(0.7)"/>
      </g>
     </g>
    </g>
    <g id="xtick_14">
     <g id="line2d_47">
      <path d="M 498.16052 668.486312 
L 498.16052 359.903 
" clip-path="url(#pc7013c55b1)" style="fill: none; stroke: #cccccc; stroke-width: 0.8; stroke-linecap: round"/>
     </g>
     <g id="text_26">
      <!-- $\mathdefault{10^{3}}$ -->
      <g style="fill: #262626" transform="translate(490.31052 685.798812)scale(0.1 -0.1)">
       <use xlink:href="#ArialMT-31" transform="translate(0 0.99375)"/>
       <use xlink:href="#ArialMT-30" transform="translate(55.615234 0.99375)"/>
       <use xlink:href="#ArialMT-33" transform="translate(112.972813 70.6875)scale(0.7)"/>
      </g>
     </g>
    </g>
    <g id="xtick_15">
     <g id="line2d_48">
      <path d="M 574.357118 668.486312 
L 574.357118 359.903 
" clip-path="url(#pc7013c55b1)" style="fill: none; stroke: #cccccc; stroke-width: 0.8; stroke-linecap: round"/>
     </g>
     <g id="text_27">
      <!-- $\mathdefault{10^{5}}$ -->
      <g style="fill: #262626" transform="translate(566.507118 685.698812)scale(0.1 -0.1)">
       <use xlink:href="#ArialMT-31" transform="translate(0 0.879688)"/>
       <use xlink:href="#ArialMT-30" transform="translate(55.615234 0.879688)"/>
       <use xlink:href="#ArialMT-35" transform="translate(112.972813 70.573438)scale(0.7)"/>
      </g>
     </g>
    </g>
    <g id="xtick_16">
     <g id="line2d_49">
      <path d="M 650.553717 668.486312 
L 650.553717 359.903 
" clip-path="url(#pc7013c55b1)" style="fill: none; stroke: #cccccc; stroke-width: 0.8; stroke-linecap: round"/>
     </g>
     <g id="text_28">
      <!-- $\mathdefault{10^{7}}$ -->
      <g style="fill: #262626" transform="translate(642.703717 685.698812)scale(0.1 -0.1)">
       <use xlink:href="#ArialMT-31" transform="translate(0 0.846875)"/>
       <use xlink:href="#ArialMT-30" transform="translate(55.615234 0.846875)"/>
       <use xlink:href="#ArialMT-37" transform="translate(112.972813 70.540625)scale(0.7)"/>
      </g>
     </g>
    </g>
    <g id="text_29">
     <!-- Insert Size (bp) -->
     <g style="fill: #262626" transform="translate(504.300831 699.066)scale(0.1 -0.1)">
      <use xlink:href="#ArialMT-49"/>
      <use xlink:href="#ArialMT-6e" x="27.783203"/>
      <use xlink:href="#ArialMT-73" x="83.398438"/>
      <use xlink:href="#ArialMT-65" x="133.398438"/>
      <use xlink:href="#ArialMT-72" x="189.013672"/>
      <use xlink:href="#ArialMT-74" x="222.314453"/>
      <use xlink:href="#ArialMT-20" x="250.097656"/>
      <use xlink:href="#ArialMT-53" x="277.880859"/>
      <use xlink:href="#ArialMT-69" x="344.580078"/>
      <use xlink:href="#ArialMT-7a" x="366.796875"/>
      <use xlink:href="#ArialMT-65" x="416.796875"/>
      <use xlink:href="#ArialMT-20" x="472.412109"/>
      <use xlink:href="#ArialMT-28" x="500.195312"/>
      <use xlink:href="#ArialMT-62" x="533.496094"/>
      <use xlink:href="#ArialMT-70" x="589.111328"/>
      <use xlink:href="#ArialMT-29" x="644.726562"/>
     </g>
    </g>
   </g>
   <g id="matplotlib.axis_8">
    <g id="ytick_22">
     <g id="line2d_50">
      <path d="M 379.894825 668.486312 
L 696.505275 668.486312 
" clip-path="url(#pc7013c55b1)" style="fill: none; stroke: #cccccc; stroke-width: 0.8; stroke-linecap: round"/>
     </g>
    </g>
    <g id="ytick_23">
     <g id="line2d_51">
      <path d="M 379.894825 623.097607 
L 696.505275 623.097607 
" clip-path="url(#pc7013c55b1)" style="fill: none; stroke: #cccccc; stroke-width: 0.8; stroke-linecap: round"/>
     </g>
    </g>
    <g id="ytick_24">
     <g id="line2d_52">
      <path d="M 379.894825 577.708901 
L 696.505275 577.708901 
" clip-path="url(#pc7013c55b1)" style="fill: none; stroke: #cccccc; stroke-width: 0.8; stroke-linecap: round"/>
     </g>
    </g>
    <g id="ytick_25">
     <g id="line2d_53">
      <path d="M 379.894825 532.320195 
L 696.505275 532.320195 
" clip-path="url(#pc7013c55b1)" style="fill: none; stroke: #cccccc; stroke-width: 0.8; stroke-linecap: round"/>
     </g>
    </g>
    <g id="ytick_26">
     <g id="line2d_54">
      <path d="M 379.894825 486.93149 
L 696.505275 486.93149 
" clip-path="url(#pc7013c55b1)" style="fill: none; stroke: #cccccc; stroke-width: 0.8; stroke-linecap: round"/>
     </g>
    </g>
    <g id="ytick_27">
     <g id="line2d_55">
      <path d="M 379.894825 441.542784 
L 696.505275 441.542784 
" clip-path="url(#pc7013c55b1)" style="fill: none; stroke: #cccccc; stroke-width: 0.8; stroke-linecap: round"/>
     </g>
    </g>
    <g id="ytick_28">
     <g id="line2d_56">
      <path d="M 379.894825 396.154078 
L 696.505275 396.154078 
" clip-path="url(#pc7013c55b1)" style="fill: none; stroke: #cccccc; stroke-width: 0.8; stroke-linecap: round"/>
     </g>
    </g>
   </g>
   <g id="line2d_57">
    <path d="M 422.006336 668.485149 
L 429.805653 668.380265 
L 446.704172 667.59759 
L 449.303944 667.19393 
L 451.903717 666.557876 
L 454.503489 665.651921 
L 457.103261 664.414958 
L 459.703033 662.838202 
L 462.302805 661.294736 
L 463.602691 660.80312 
L 464.902578 660.642797 
L 466.202464 660.842667 
L 468.802236 661.924046 
L 470.102122 662.426033 
L 471.402008 662.656564 
L 472.701894 662.527361 
L 474.00178 662.0501 
L 475.301666 661.308873 
L 477.901439 659.450171 
L 480.501211 657.441351 
L 483.100983 655.107927 
L 484.400869 653.701932 
L 485.700755 652.104183 
L 487.000641 650.31301 
L 489.600414 646.161057 
L 492.200186 641.248739 
L 494.799958 635.685641 
L 498.699616 626.654163 
L 507.798819 604.624385 
L 511.698477 594.606694 
L 514.298249 588.529348 
L 519.497794 577.118769 
L 520.79768 574.546947 
L 522.097566 572.310538 
L 523.397452 570.49652 
L 524.697338 569.122847 
L 525.997224 568.139144 
L 527.297111 567.453291 
L 528.596997 566.971388 
L 529.896883 566.631167 
L 531.196769 566.410063 
L 533.796541 566.29545 
L 537.696199 566.351122 
L 540.295972 566.260571 
L 541.595858 566.302688 
L 542.895744 566.462774 
L 544.19563 566.752489 
L 545.495516 567.183471 
L 546.795402 567.800662 
L 548.095288 568.690585 
L 549.395174 569.952514 
L 550.69506 571.647366 
L 551.994946 573.753536 
L 558.494377 585.620357 
L 561.094149 590.054345 
L 563.693921 595.269166 
L 568.893466 606.619551 
L 571.493238 611.733767 
L 575.392896 618.752967 
L 579.292555 625.340121 
L 583.192213 631.711373 
L 585.791985 636.650851 
L 592.291416 650.33271 
L 594.891188 654.854714 
L 597.49096 658.719537 
L 598.790846 660.370868 
L 600.090732 661.778764 
L 601.390618 662.905552 
L 602.690505 663.73891 
L 603.990391 664.299474 
L 605.290277 664.635794 
L 607.890049 664.880887 
L 611.789707 664.839245 
L 618.289138 664.497476 
L 620.88891 664.217259 
L 623.488682 663.762456 
L 628.688227 662.632902 
L 631.287999 662.340343 
L 635.187657 662.277458 
L 645.586746 662.325155 
L 649.486404 661.728873 
L 652.086176 661.411435 
L 653.386063 661.38455 
L 654.685949 661.47091 
L 657.285721 661.977183 
L 659.885493 662.873884 
L 662.485265 664.116628 
L 667.68481 666.891635 
L 668.984696 667.408737 
L 671.584468 668.084048 
L 674.18424 668.374743 
L 678.083898 668.477593 
L 680.683671 668.485302 
L 680.683671 668.485302 
" clip-path="url(#pc7013c55b1)" style="fill: none; stroke: #d62728; stroke-width: 1.5; stroke-linecap: round"/>
   </g>
   <g id="line2d_58">
    <path d="M 395.718245 668.484272 
L 402.868318 668.382148 
L 408.588376 668.322903 
L 418.598477 668.484799 
L 455.778855 668.38116 
L 460.068899 668.242428 
L 462.928928 667.91891 
L 464.358943 667.559226 
L 465.788957 666.990702 
L 467.218972 666.174618 
L 468.648986 665.107987 
L 470.079001 663.825002 
L 472.93903 660.811439 
L 475.799059 657.346311 
L 478.659088 653.393044 
L 481.519117 649.053246 
L 485.809161 642.04659 
L 494.389248 627.620236 
L 497.249277 621.680461 
L 500.109306 615.048342 
L 512.979437 584.231474 
L 515.839466 578.008667 
L 517.26948 575.354722 
L 518.699495 573.060406 
L 520.129509 571.061894 
L 521.559524 569.275725 
L 522.989538 567.670198 
L 524.419553 566.275853 
L 525.849568 565.128955 
L 527.279582 564.215012 
L 528.709597 563.479522 
L 530.139611 562.89478 
L 531.569626 562.504816 
L 532.99964 562.393296 
L 534.429655 562.602356 
L 535.859669 563.07906 
L 540.149713 564.812343 
L 541.579727 565.170412 
L 543.009742 565.37328 
L 545.869771 565.515496 
L 547.299786 565.741706 
L 548.7298 566.38603 
L 550.159815 567.680004 
L 551.589829 569.727672 
L 553.019844 572.44678 
L 555.879873 578.914883 
L 560.169916 588.472777 
L 567.319989 604.194553 
L 570.180018 609.291658 
L 580.19012 625.47273 
L 581.620134 628.06966 
L 583.050149 630.917662 
L 585.910178 637.317931 
L 588.770207 643.787733 
L 591.630236 649.464707 
L 595.92028 657.026147 
L 597.350294 659.310452 
L 598.780309 661.297052 
L 600.210323 662.865974 
L 601.640338 663.969909 
L 603.070352 664.652998 
L 604.500367 665.026625 
L 607.360396 665.331213 
L 610.220425 665.449869 
L 613.080454 665.375615 
L 617.370498 664.939645 
L 625.950585 664.007613 
L 630.240629 663.192576 
L 633.100658 662.935966 
L 644.540774 662.424125 
L 651.690847 661.659257 
L 654.550876 661.693208 
L 657.410905 662.058338 
L 658.840919 662.382823 
L 660.270934 662.830051 
L 661.700948 663.422854 
L 664.560977 665.006718 
L 667.421006 666.674372 
L 668.851021 667.328141 
L 670.281036 667.806675 
L 671.71105 668.121105 
L 674.571079 668.406511 
L 678.861123 668.482586 
L 680.291137 668.485251 
L 680.291137 668.485251 
" clip-path="url(#pc7013c55b1)" style="fill: none; stroke: #2ca02c; stroke-width: 1.5; stroke-linecap: round"/>
   </g>
   <g id="line2d_59">
    <path d="M 395.06948 668.476157 
L 399.376235 668.334564 
L 402.247406 668.013611 
L 405.118576 667.614372 
L 407.989746 667.50872 
L 416.603257 668.044225 
L 432.394693 667.954681 
L 439.572618 668.339204 
L 445.314959 668.365331 
L 455.364055 668.149412 
L 458.235225 667.872319 
L 459.67081 667.60295 
L 461.106395 667.205861 
L 463.977565 666.032786 
L 471.155491 662.480179 
L 472.591076 661.452922 
L 474.026661 660.170475 
L 475.462246 658.640427 
L 478.333416 655.031323 
L 484.075757 646.972725 
L 488.382512 640.836685 
L 491.253682 636.21823 
L 494.124853 630.850125 
L 501.302778 616.352821 
L 504.173948 610.026649 
L 507.045118 602.989561 
L 509.916289 595.812123 
L 512.787459 589.418229 
L 515.658629 584.022119 
L 518.529799 579.102438 
L 521.40097 574.587728 
L 522.836555 572.633152 
L 524.27214 570.936618 
L 525.707725 569.497913 
L 527.14331 568.303279 
L 528.578895 567.348125 
L 530.01448 566.644078 
L 531.450065 566.203574 
L 532.88565 566.011817 
L 535.756821 566.113012 
L 540.063576 566.548922 
L 542.934746 567.040061 
L 545.805916 567.735244 
L 547.241502 568.275022 
L 548.677087 569.180025 
L 550.112672 570.68611 
L 551.548257 572.941952 
L 552.983842 575.906207 
L 557.290597 586.218567 
L 558.726182 589.215049 
L 561.597353 594.37308 
L 577.388789 620.860261 
L 581.695544 627.639061 
L 583.131129 630.118706 
L 584.566714 632.888757 
L 587.437885 639.248671 
L 590.309055 645.821025 
L 591.74464 648.825712 
L 593.180225 651.544204 
L 594.61581 653.960222 
L 596.051395 656.076503 
L 597.48698 657.899938 
L 598.922565 659.437402 
L 600.358151 660.696359 
L 601.793736 661.687043 
L 603.229321 662.426345 
L 604.664906 662.941896 
L 606.100491 663.272435 
L 608.971661 663.553482 
L 611.842831 663.550765 
L 620.456342 663.26348 
L 623.327512 663.108165 
L 624.763097 662.833574 
L 627.634268 661.935381 
L 630.505438 661.058192 
L 631.941023 660.782016 
L 634.812193 660.590897 
L 637.683363 660.788101 
L 640.554534 661.287381 
L 643.425704 661.801356 
L 646.296874 661.960902 
L 649.168044 661.75238 
L 653.4748 661.305725 
L 654.910385 661.267486 
L 656.34597 661.340489 
L 657.781555 661.54999 
L 659.21714 661.914398 
L 660.652725 662.442865 
L 662.08831 663.129065 
L 664.95948 664.832217 
L 667.830651 666.531776 
L 669.266236 667.206045 
L 670.701821 667.714006 
L 672.137406 668.05972 
L 675.008576 668.388349 
L 679.315332 668.481329 
L 680.750917 668.48483 
L 680.750917 668.48483 
" clip-path="url(#pc7013c55b1)" style="fill: none; stroke: #ff7f0e; stroke-width: 1.5; stroke-linecap: round"/>
   </g>
   <g id="line2d_60">
    <path d="M 394.286209 668.479529 
L 398.62532 668.396665 
L 402.964431 668.082336 
L 405.857171 667.874994 
L 408.749912 667.894003 
L 415.981763 668.252636 
L 424.659985 668.210251 
L 443.462798 667.68647 
L 446.355538 667.358191 
L 449.248279 666.809761 
L 452.14102 665.960359 
L 453.58739 665.384638 
L 455.03376 664.658317 
L 456.48013 663.698601 
L 457.926501 662.358068 
L 459.372871 660.40086 
L 460.819241 657.496915 
L 462.265611 653.255486 
L 463.711982 647.304539 
L 465.158352 639.391065 
L 466.604722 629.4536 
L 468.051092 617.630766 
L 469.497463 604.215318 
L 472.390203 574.261127 
L 475.282944 543.778426 
L 476.729314 530.094661 
L 478.175684 518.592513 
L 479.622054 510.219405 
L 481.068425 505.913358 
L 482.514795 506.453605 
L 483.961165 512.244698 
L 485.407535 523.102507 
L 486.853906 538.146507 
L 491.193017 592.03227 
L 492.639387 607.11549 
L 494.085757 618.699685 
L 495.532127 626.293145 
L 496.978498 629.847368 
L 498.424868 629.698728 
L 499.871238 626.530817 
L 501.317608 621.293842 
L 505.656719 602.697954 
L 507.103089 597.441435 
L 508.54946 592.84118 
L 509.99583 588.765761 
L 511.4422 585.08771 
L 514.334941 578.607904 
L 517.227681 572.9233 
L 520.120422 567.698532 
L 521.566792 565.305808 
L 523.013162 563.175004 
L 524.459533 561.403391 
L 525.905903 560.04959 
L 527.352273 559.11196 
L 528.798643 558.536442 
L 530.245014 558.250019 
L 531.691384 558.200057 
L 533.137754 558.372787 
L 534.584124 558.776325 
L 536.030495 559.400725 
L 544.708716 564.102681 
L 546.155086 565.199281 
L 547.601457 566.733204 
L 549.047827 568.77207 
L 550.494197 571.267716 
L 556.279678 582.430638 
L 562.065159 592.33563 
L 573.636121 614.024916 
L 577.975232 621.760633 
L 583.760713 631.861963 
L 586.653454 637.869035 
L 590.992565 647.371646 
L 593.885305 652.91424 
L 595.331675 655.357435 
L 596.778046 657.572859 
L 598.224416 659.532275 
L 599.670786 661.193857 
L 601.117156 662.520936 
L 602.563527 663.502016 
L 604.009897 664.16148 
L 605.456267 664.555888 
L 606.902637 664.758507 
L 609.795378 664.854183 
L 614.134489 664.708649 
L 621.36634 664.118456 
L 624.25908 663.756844 
L 631.490932 662.651511 
L 638.722783 662.163607 
L 643.061894 661.981749 
L 647.401005 661.838234 
L 654.632856 661.381583 
L 656.079226 661.442908 
L 657.525596 661.624228 
L 658.971967 661.951077 
L 660.418337 662.438647 
L 661.864707 663.083263 
L 664.757448 664.703558 
L 667.650188 666.347914 
L 669.096559 667.022059 
L 670.542929 667.550488 
L 671.989299 667.930706 
L 674.88204 668.33206 
L 679.22115 668.474579 
L 682.113891 668.484999 
L 682.113891 668.484999 
" clip-path="url(#pc7013c55b1)" style="fill: none; stroke: #1f77b4; stroke-width: 1.5; stroke-linecap: round"/>
   </g>
   <g id="patch_12">
    <path d="M 379.894825 668.486312 
L 379.894825 359.903 
" style="fill: none; stroke: #cccccc; stroke-width: 0.8; stroke-linejoin: miter; stroke-linecap: square"/>
   </g>
   <g id="patch_13">
    <path d="M 379.894825 668.486312 
L 696.505275 668.486312 
" style="fill: none; stroke: #cccccc; stroke-width: 0.8; stroke-linejoin: miter; stroke-linecap: square"/>
   </g>
   <g id="text_30">
    <!-- group = AS | rep = 2 -->
    <g style="fill: #262626" transform="translate(493.53755 353.903)scale(0.1 -0.1)">
     <use xlink:href="#ArialMT-67"/>
     <use xlink:href="#ArialMT-72" x="55.615234"/>
     <use xlink:href="#ArialMT-6f" x="88.916016"/>
     <use xlink:href="#ArialMT-75" x="144.53125"/>
     <use xlink:href="#ArialMT-70" x="200.146484"/>
     <use xlink:href="#ArialMT-20" x="255.761719"/>
     <use xlink:href="#ArialMT-3d" x="283.544922"/>
     <use xlink:href="#ArialMT-20" x="341.943359"/>
     <use xlink:href="#ArialMT-41" x="364.226562"/>
     <use xlink:href="#ArialMT-53" x="430.925781"/>
     <use xlink:href="#ArialMT-20" x="497.625"/>
     <use xlink:href="#ArialMT-7c" x="525.408203"/>
     <use xlink:href="#ArialMT-20" x="551.384766"/>
     <use xlink:href="#ArialMT-72" x="579.167969"/>
     <use xlink:href="#ArialMT-65" x="612.46875"/>
     <use xlink:href="#ArialMT-70" x="668.083984"/>
     <use xlink:href="#ArialMT-20" x="723.699219"/>
     <use xlink:href="#ArialMT-3d" x="751.482422"/>
     <use xlink:href="#ArialMT-20" x="809.880859"/>
     <use xlink:href="#ArialMT-32" x="837.664062"/>
    </g>
   </g>
  </g>
  <g id="legend_1">
   <g id="text_31">
    <!-- orientation -->
    <g style="fill: #262626" transform="translate(738.859844 328.479875)scale(0.1 -0.1)">
     <defs>
      <path id="ArialMT-61" d="M 2588 409 
Q 2275 144 1986 34 
Q 1697 -75 1366 -75 
Q 819 -75 525 192 
Q 231 459 231 875 
Q 231 1119 342 1320 
Q 453 1522 633 1644 
Q 813 1766 1038 1828 
Q 1203 1872 1538 1913 
Q 2219 1994 2541 2106 
Q 2544 2222 2544 2253 
Q 2544 2597 2384 2738 
Q 2169 2928 1744 2928 
Q 1347 2928 1158 2789 
Q 969 2650 878 2297 
L 328 2372 
Q 403 2725 575 2942 
Q 747 3159 1072 3276 
Q 1397 3394 1825 3394 
Q 2250 3394 2515 3294 
Q 2781 3194 2906 3042 
Q 3031 2891 3081 2659 
Q 3109 2516 3109 2141 
L 3109 1391 
Q 3109 606 3145 398 
Q 3181 191 3288 0 
L 2700 0 
Q 2613 175 2588 409 
z
M 2541 1666 
Q 2234 1541 1622 1453 
Q 1275 1403 1131 1340 
Q 988 1278 909 1158 
Q 831 1038 831 891 
Q 831 666 1001 516 
Q 1172 366 1500 366 
Q 1825 366 2078 508 
Q 2331 650 2450 897 
Q 2541 1088 2541 1459 
L 2541 1666 
z
" transform="scale(0.015625)"/>
     </defs>
     <use xlink:href="#ArialMT-6f"/>
     <use xlink:href="#ArialMT-72" x="55.615234"/>
     <use xlink:href="#ArialMT-69" x="88.916016"/>
     <use xlink:href="#ArialMT-65" x="111.132812"/>
     <use xlink:href="#ArialMT-6e" x="166.748047"/>
     <use xlink:href="#ArialMT-74" x="222.363281"/>
     <use xlink:href="#ArialMT-61" x="250.146484"/>
     <use xlink:href="#ArialMT-74" x="305.761719"/>
     <use xlink:href="#ArialMT-69" x="333.544922"/>
     <use xlink:href="#ArialMT-6f" x="355.761719"/>
     <use xlink:href="#ArialMT-6e" x="411.376953"/>
    </g>
   </g>
   <g id="line2d_61">
    <path d="M 716.810625 339.125187 
L 726.810625 339.125187 
L 736.810625 339.125187 
" style="fill: none; stroke: #1f77b4; stroke-width: 1.5; stroke-linecap: round"/>
   </g>
   <g id="text_32">
    <!-- Inward -->
    <g style="fill: #262626" transform="translate(744.810625 342.625187)scale(0.1 -0.1)">
     <defs>
      <path id="ArialMT-77" d="M 1034 0 
L 19 3319 
L 600 3319 
L 1128 1403 
L 1325 691 
Q 1338 744 1497 1375 
L 2025 3319 
L 2603 3319 
L 3100 1394 
L 3266 759 
L 3456 1400 
L 4025 3319 
L 4572 3319 
L 3534 0 
L 2950 0 
L 2422 1988 
L 2294 2553 
L 1622 0 
L 1034 0 
z
" transform="scale(0.015625)"/>
      <path id="ArialMT-64" d="M 2575 0 
L 2575 419 
Q 2259 -75 1647 -75 
Q 1250 -75 917 144 
Q 584 363 401 755 
Q 219 1147 219 1656 
Q 219 2153 384 2558 
Q 550 2963 881 3178 
Q 1213 3394 1622 3394 
Q 1922 3394 2156 3267 
Q 2391 3141 2538 2938 
L 2538 4581 
L 3097 4581 
L 3097 0 
L 2575 0 
z
M 797 1656 
Q 797 1019 1065 703 
Q 1334 388 1700 388 
Q 2069 388 2326 689 
Q 2584 991 2584 1609 
Q 2584 2291 2321 2609 
Q 2059 2928 1675 2928 
Q 1300 2928 1048 2622 
Q 797 2316 797 1656 
z
" transform="scale(0.015625)"/>
     </defs>
     <use xlink:href="#ArialMT-49"/>
     <use xlink:href="#ArialMT-6e" x="27.783203"/>
     <use xlink:href="#ArialMT-77" x="83.398438"/>
     <use xlink:href="#ArialMT-61" x="155.615234"/>
     <use xlink:href="#ArialMT-72" x="211.230469"/>
     <use xlink:href="#ArialMT-64" x="244.53125"/>
    </g>
   </g>
   <g id="line2d_62">
    <path d="M 716.810625 353.2705 
L 726.810625 353.2705 
L 736.810625 353.2705 
" style="fill: none; stroke: #ff7f0e; stroke-width: 1.5; stroke-linecap: round"/>
   </g>
   <g id="text_33">
    <!-- Same-forward -->
    <g style="fill: #262626" transform="translate(744.810625 356.7705)scale(0.1 -0.1)">
     <defs>
      <path id="ArialMT-6d" d="M 422 0 
L 422 3319 
L 925 3319 
L 925 2853 
Q 1081 3097 1340 3245 
Q 1600 3394 1931 3394 
Q 2300 3394 2536 3241 
Q 2772 3088 2869 2813 
Q 3263 3394 3894 3394 
Q 4388 3394 4653 3120 
Q 4919 2847 4919 2278 
L 4919 0 
L 4359 0 
L 4359 2091 
Q 4359 2428 4304 2576 
Q 4250 2725 4106 2815 
Q 3963 2906 3769 2906 
Q 3419 2906 3187 2673 
Q 2956 2441 2956 1928 
L 2956 0 
L 2394 0 
L 2394 2156 
Q 2394 2531 2256 2718 
Q 2119 2906 1806 2906 
Q 1569 2906 1367 2781 
Q 1166 2656 1075 2415 
Q 984 2175 984 1722 
L 984 0 
L 422 0 
z
" transform="scale(0.015625)"/>
      <path id="ArialMT-2d" d="M 203 1375 
L 203 1941 
L 1931 1941 
L 1931 1375 
L 203 1375 
z
" transform="scale(0.015625)"/>
      <path id="ArialMT-66" d="M 556 0 
L 556 2881 
L 59 2881 
L 59 3319 
L 556 3319 
L 556 3672 
Q 556 4006 616 4169 
Q 697 4388 901 4523 
Q 1106 4659 1475 4659 
Q 1713 4659 2000 4603 
L 1916 4113 
Q 1741 4144 1584 4144 
Q 1328 4144 1222 4034 
Q 1116 3925 1116 3625 
L 1116 3319 
L 1763 3319 
L 1763 2881 
L 1116 2881 
L 1116 0 
L 556 0 
z
" transform="scale(0.015625)"/>
     </defs>
     <use xlink:href="#ArialMT-53"/>
     <use xlink:href="#ArialMT-61" x="66.699219"/>
     <use xlink:href="#ArialMT-6d" x="122.314453"/>
     <use xlink:href="#ArialMT-65" x="205.615234"/>
     <use xlink:href="#ArialMT-2d" x="261.230469"/>
     <use xlink:href="#ArialMT-66" x="294.53125"/>
     <use xlink:href="#ArialMT-6f" x="322.314453"/>
     <use xlink:href="#ArialMT-72" x="377.929688"/>
     <use xlink:href="#ArialMT-77" x="411.230469"/>
     <use xlink:href="#ArialMT-61" x="483.447266"/>
     <use xlink:href="#ArialMT-72" x="539.0625"/>
     <use xlink:href="#ArialMT-64" x="572.363281"/>
    </g>
   </g>
   <g id="line2d_63">
    <path d="M 716.810625 367.415812 
L 726.810625 367.415812 
L 736.810625 367.415812 
" style="fill: none; stroke: #2ca02c; stroke-width: 1.5; stroke-linecap: round"/>
   </g>
   <g id="text_34">
    <!-- Same-reverse -->
    <g style="fill: #262626" transform="translate(744.810625 370.915812)scale(0.1 -0.1)">
     <defs>
      <path id="ArialMT-76" d="M 1344 0 
L 81 3319 
L 675 3319 
L 1388 1331 
Q 1503 1009 1600 663 
Q 1675 925 1809 1294 
L 2547 3319 
L 3125 3319 
L 1869 0 
L 1344 0 
z
" transform="scale(0.015625)"/>
     </defs>
     <use xlink:href="#ArialMT-53"/>
     <use xlink:href="#ArialMT-61" x="66.699219"/>
     <use xlink:href="#ArialMT-6d" x="122.314453"/>
     <use xlink:href="#ArialMT-65" x="205.615234"/>
     <use xlink:href="#ArialMT-2d" x="261.230469"/>
     <use xlink:href="#ArialMT-72" x="294.53125"/>
     <use xlink:href="#ArialMT-65" x="327.832031"/>
     <use xlink:href="#ArialMT-76" x="383.447266"/>
     <use xlink:href="#ArialMT-65" x="433.447266"/>
     <use xlink:href="#ArialMT-72" x="489.0625"/>
     <use xlink:href="#ArialMT-73" x="522.363281"/>
     <use xlink:href="#ArialMT-65" x="572.363281"/>
    </g>
   </g>
   <g id="line2d_64">
    <path d="M 716.810625 381.561125 
L 726.810625 381.561125 
L 736.810625 381.561125 
" style="fill: none; stroke: #d62728; stroke-width: 1.5; stroke-linecap: round"/>
   </g>
   <g id="text_35">
    <!-- Outward -->
    <g style="fill: #262626" transform="translate(744.810625 385.061125)scale(0.1 -0.1)">
     <defs>
      <path id="ArialMT-4f" d="M 309 2231 
Q 309 3372 921 4017 
Q 1534 4663 2503 4663 
Q 3138 4663 3647 4359 
Q 4156 4056 4423 3514 
Q 4691 2972 4691 2284 
Q 4691 1588 4409 1038 
Q 4128 488 3612 205 
Q 3097 -78 2500 -78 
Q 1853 -78 1343 234 
Q 834 547 571 1087 
Q 309 1628 309 2231 
z
M 934 2222 
Q 934 1394 1379 917 
Q 1825 441 2497 441 
Q 3181 441 3623 922 
Q 4066 1403 4066 2288 
Q 4066 2847 3877 3264 
Q 3688 3681 3323 3911 
Q 2959 4141 2506 4141 
Q 1863 4141 1398 3698 
Q 934 3256 934 2222 
z
" transform="scale(0.015625)"/>
     </defs>
     <use xlink:href="#ArialMT-4f"/>
     <use xlink:href="#ArialMT-75" x="77.783203"/>
     <use xlink:href="#ArialMT-74" x="133.398438"/>
     <use xlink:href="#ArialMT-77" x="161.181641"/>
     <use xlink:href="#ArialMT-61" x="233.398438"/>
     <use xlink:href="#ArialMT-72" x="289.013672"/>
     <use xlink:href="#ArialMT-64" x="322.314453"/>
    </g>
   </g>
  </g>
 </g>
 <defs>
  <clipPath id="p4785fcc82a">
   <rect x="52.484375" y="20.479687" width="316.61045" height="308.583312"/>
  </clipPath>
  <clipPath id="p26a10c7227">
   <rect x="379.894825" y="20.479687" width="316.61045" height="308.583312"/>
  </clipPath>
  <clipPath id="p8036f8c5b7">
   <rect x="52.484375" y="359.903" width="316.61045" height="308.583312"/>
  </clipPath>
  <clipPath id="pc7013c55b1">
   <rect x="379.894825" y="359.903" width="316.61045" height="308.583312"/>
  </clipPath>
 </defs>
</svg>
